<?xml version="1.0" encoding="utf-8"?>
<!-- Generator: Adobe Illustrator 19.0.0, SVG Export Plug-In . SVG Version: 6.00 Build 0)  -->
<svg version="1.1" id="Isolation_Mode" xmlns="http://www.w3.org/2000/svg" xmlns:xlink="http://www.w3.org/1999/xlink" x="0px"
	 y="0px" viewBox="89.8 290.2 220 214.6" style="enable-background:new 89.8 290.2 220 214.6;" xml:space="preserve">
<style type="text/css">
	.st0{opacity:0.3;fill:#FFFFFF;}
	.st1{fill:#FFFFFF;}
</style>
<g>
	<path class="st0" d="M253.5,392.1c-1.3,0-2.7,0.1-4,0.1c9.2-10.8,14.8-24.8,14.8-40.1c0-34.1-27.8-61.9-61.9-61.9
		c-0.2,0-0.4,0-0.5,0c-0.2,0-0.4,0-0.6,0c-34.1,0-61.9,27.8-61.9,61.9c0,21.3,10.8,40.2,27.3,51.3c-14.8,5.3-28.5,13.8-39.9,25.2
		c-20.2,20.2-31.4,47.1-31.4,75.7H112c0-49.6,40.2-90,89.8-90.3c2.3,0,4.6,0.1,6.8,0.3c-7.2,9.5-11.5,21.3-11.5,34.1
		c0,31.1,25.2,56.4,56.4,56.4s56.4-25.2,56.4-56.4S284.6,392.1,253.5,392.1z M201.7,397.3c-24.6-0.3-44.6-20.5-44.6-45.2
		c0-24.7,19.9-44.9,44.6-45.2c2.9,0,5.8,0.4,8.5,0.9c0.2,0,0.4-0.1,0.6-0.1c2.6,0.5,5.2,1.2,7.6,2.2c-0.3,0-0.7,0-1,0.1
		c16.8,6.6,28.8,23,28.8,42.1C246.3,376.8,226.4,397,201.7,397.3z M292.1,429.8l-48.2,48.6c0,0-0.1,0.1-0.1,0.1c0,0-0.1,0.1-0.1,0.1
		c-0.1,0.1-0.1,0.1-0.2,0.1c-0.1,0.1-0.2,0.1-0.3,0.2c-0.1,0.1-0.2,0.1-0.3,0.2c-0.1,0.1-0.2,0.1-0.3,0.2c-0.1,0.1-0.2,0.1-0.3,0.2
		c-0.1,0.1-0.2,0.1-0.3,0.2c-0.1,0.1-0.2,0.1-0.3,0.2c-0.1,0-0.2,0.1-0.3,0.1c-0.1,0-0.2,0.1-0.4,0.1c-0.1,0-0.2,0.1-0.3,0.1
		c-0.1,0-0.3,0.1-0.4,0.1c-0.1,0-0.2,0-0.2,0.1c-0.2,0-0.3,0-0.5,0.1c-0.1,0-0.1,0-0.2,0c-0.2,0-0.4,0-0.7,0c0,0,0,0,0,0
		c0,0,0,0,0,0c-0.2,0-0.5,0-0.7,0c-0.1,0-0.1,0-0.2,0c-0.2,0-0.3,0-0.5-0.1c-0.1,0-0.2,0-0.2-0.1c-0.1,0-0.3-0.1-0.4-0.1
		c-0.1,0-0.2-0.1-0.3-0.1c-0.1,0-0.3-0.1-0.4-0.1c-0.1,0-0.2-0.1-0.3-0.1c-0.1-0.1-0.2-0.1-0.3-0.2c-0.1-0.1-0.2-0.1-0.3-0.2
		c-0.1-0.1-0.2-0.1-0.3-0.2c-0.1-0.1-0.2-0.1-0.3-0.2c-0.1-0.1-0.2-0.1-0.3-0.2c-0.1-0.1-0.2-0.1-0.3-0.2c-0.1-0.1-0.1-0.1-0.2-0.2
		c0,0-0.1-0.1-0.1-0.1c0,0-0.1-0.1-0.1-0.1l-17.2-18.4c-2.6-2.8-2.4-7.2,0.3-9.8c2.8-2.6,7.2-2.4,9.8,0.3l12.3,13.2l43.1-43.5
		c2.7-2.7,7.1-2.7,9.8,0C294.8,422.7,294.8,427.1,292.1,429.8z"/>
	<path class="st1" d="M248,392.1c-1.3,0-2.7,0.1-4,0.1c9.2-10.8,14.8-24.8,14.8-40.1c0-34.1-27.8-61.9-61.9-61.9c-0.2,0-0.4,0-0.5,0
		c-0.2,0-0.4,0-0.6,0c-34.1,0-61.9,27.8-61.9,61.9c0,21.3,10.8,40.2,27.3,51.3c-14.8,5.3-28.5,13.8-39.9,25.2
		c-20.2,20.2-31.4,47.1-31.4,75.7h16.7c0-49.6,40.2-90,89.8-90.3c2.3,0,4.6,0.1,6.8,0.3c-7.2,9.5-11.5,21.3-11.5,34.1
		c0,31.1,25.2,56.4,56.4,56.4s56.4-25.2,56.4-56.4S279.2,392.1,248,392.1z M196.3,397.3c-24.6-0.3-44.6-20.5-44.6-45.2
		c0-24.7,19.9-45.2,44.6-45.2c29.3,0,44.6,26,44.6,45.2C240.9,376.8,221,397,196.3,397.3z M286.7,429.8l-48.2,48.6
		c0,0-0.1,0.1-0.1,0.1c0,0-0.1,0.1-0.1,0.1c-0.1,0.1-0.1,0.1-0.2,0.1c-0.1,0.1-0.2,0.1-0.3,0.2c-0.1,0.1-0.2,0.1-0.3,0.2
		c-0.1,0.1-0.2,0.1-0.3,0.2c-0.1,0.1-0.2,0.1-0.3,0.2c-0.1,0.1-0.2,0.1-0.3,0.2c-0.1,0.1-0.2,0.1-0.3,0.2c-0.1,0-0.2,0.1-0.3,0.1
		c-0.1,0-0.2,0.1-0.4,0.1c-0.1,0-0.2,0.1-0.3,0.1c-0.1,0-0.3,0.1-0.4,0.1c-0.1,0-0.2,0-0.2,0.1c-0.2,0-0.3,0-0.5,0.1
		c-0.1,0-0.1,0-0.2,0c-0.2,0-0.4,0-0.7,0c0,0,0,0,0,0c0,0,0,0,0,0c-0.2,0-0.5,0-0.7,0c-0.1,0-0.1,0-0.2,0c-0.2,0-0.3,0-0.5-0.1
		c-0.1,0-0.2,0-0.2-0.1c-0.1,0-0.3-0.1-0.4-0.1c-0.1,0-0.2-0.1-0.3-0.1c-0.1,0-0.3-0.1-0.4-0.1c-0.1,0-0.2-0.1-0.3-0.1
		c-0.1-0.1-0.2-0.1-0.3-0.2c-0.1-0.1-0.2-0.1-0.3-0.2c-0.1-0.1-0.2-0.1-0.3-0.2c-0.1-0.1-0.2-0.1-0.3-0.2c-0.1-0.1-0.2-0.1-0.3-0.2
		c-0.1-0.1-0.2-0.1-0.3-0.2c-0.1-0.1-0.1-0.1-0.2-0.2c0,0-0.1-0.1-0.1-0.1c0,0-0.1-0.1-0.1-0.1l-17.2-18.4c-2.6-2.8-2.4-7.2,0.3-9.8
		c2.8-2.6,7.2-2.4,9.8,0.3l12.3,13.2l43.1-43.5c2.7-2.7,7.1-2.7,9.8,0C289.4,422.7,289.4,427.1,286.7,429.8z"/>
</g>
</svg>
