<?xml version="1.0" encoding="utf-8"?>
<!-- Generator: Adobe Illustrator 19.0.0, SVG Export Plug-In . SVG Version: 6.00 Build 0)  -->
<svg version="1.1" id="Capa_1" xmlns="http://www.w3.org/2000/svg" xmlns:xlink="http://www.w3.org/1999/xlink" x="0px" y="0px"
	 viewBox="195 385 24 24" style="enable-background:new 195 385 24 24;" xml:space="preserve">
<style type="text/css">
	.st0{fill:#66CC66;}
</style>
<path class="st0" d="M212.7,396.4c-0.1,0-0.3,0-0.4,0c1-1.2,1.7-2.8,1.7-4.5c0-3.8-3.1-6.9-6.9-6.9c0,0,0,0-0.1,0c0,0,0,0-0.1,0
	c-3.8,0-6.9,3.1-6.9,6.9c0,2.4,1.2,4.5,3.1,5.7c-1.7,0.6-3.2,1.5-4.5,2.8c-2.3,2.3-3.5,5.3-3.5,8.5h1.9c0-5.6,4.5-10.1,10-10.1
	c0.3,0,0.5,0,0.8,0c-0.8,1.1-1.3,2.4-1.3,3.8c0,3.5,2.8,6.3,6.3,6.3s6.3-2.8,6.3-6.3C219,399.2,216.2,396.4,212.7,396.4z M206.9,397
	c-2.8,0-5-2.3-5-5.1s2.2-5,5-5.1c0.3,0,0.6,0,1,0.1c0,0,0,0,0.1,0c0.3,0.1,0.6,0.1,0.9,0.2c0,0-0.1,0-0.1,0c1.9,0.7,3.2,2.6,3.2,4.7
	C211.9,394.7,209.7,396.9,206.9,397z M217,400.6l-5.4,5.4c0,0,0,0,0,0c0,0,0,0,0,0c0,0,0,0,0,0c0,0,0,0,0,0c0,0,0,0,0,0c0,0,0,0,0,0
	c0,0,0,0,0,0c0,0,0,0,0,0c0,0,0,0,0,0c0,0,0,0,0,0c0,0,0,0,0,0c0,0,0,0,0,0c0,0,0,0,0,0c0,0,0,0,0,0c0,0,0,0-0.1,0c0,0,0,0,0,0
	c0,0,0,0-0.1,0c0,0,0,0,0,0s0,0,0,0c0,0-0.1,0-0.1,0c0,0,0,0,0,0c0,0,0,0-0.1,0c0,0,0,0,0,0c0,0,0,0,0,0c0,0,0,0,0,0c0,0,0,0,0,0
	c0,0,0,0,0,0c0,0,0,0,0,0c0,0,0,0,0,0c0,0,0,0,0,0c0,0,0,0,0,0c0,0,0,0,0,0c0,0,0,0,0,0c0,0,0,0,0,0c0,0,0,0,0,0c0,0,0,0,0,0
	l-1.9-2.1c-0.3-0.3-0.3-0.8,0-1.1c0.3-0.3,0.8-0.3,1.1,0l1.4,1.5l4.8-4.9c0.3-0.3,0.8-0.3,1.1,0C217.3,399.8,217.3,400.3,217,400.6z
	"/>
</svg>
