<?xml version="1.0" encoding="utf-8"?>
<!-- Generator: Adobe Illustrator 19.0.0, SVG Export Plug-In . SVG Version: 6.00 Build 0)  -->
<svg version="1.1" id="Layer_1" xmlns="http://www.w3.org/2000/svg" xmlns:xlink="http://www.w3.org/1999/xlink" x="0px" y="0px"
	 viewBox="0 0 236 236" style="enable-background:new 0 0 236 236;" xml:space="preserve">
<style type="text/css">
	.st0{fill:#4862A8;stroke:#4862A8;stroke-miterlimit:10;}
	.st1{fill:#FFFFFF;}
</style>
<circle class="st0" cx="118" cy="118" r="117.5"/>
<g>
	<path class="st1" d="M51.5,139.3C48.1,97.8,66,73.6,81.7,60.6c16.8-14,34.5-18,35.3-18.2l4.4,19.5l-2.2-9.8l2.2,9.7
		c-2.3,0.5-55.1,13.6-49.9,75.8L51.5,139.3z"/>
	<rect x="24.2" y="115.9" transform="matrix(0.6925 0.7214 -0.7214 0.6925 106.1764 2.645)" class="st1" width="51.6" height="20"/>
</g>
<g>
	<path class="st1" d="M118.4,193.4l-3.1-19.8l1.6,9.9l-1.6-9.9c2.2-0.4,54.3-9.7,50.3-67.4l20-1.4c2.7,39.7-15.7,61.8-31.7,73.3
		C136.8,190.4,119.1,193.3,118.4,193.4z"/>
	
		<rect x="161.6" y="107.2" transform="matrix(0.6928 0.7211 -0.7211 0.6928 141.3669 -97.5336)" class="st1" width="47.2" height="20"/>
</g>
</svg>
