<?xml version="1.0" encoding="utf-8"?>
<!-- Generator: Adobe Illustrator 19.0.0, SVG Export Plug-In . SVG Version: 6.00 Build 0)  -->
<svg version="1.1" id="Layer_1" xmlns="http://www.w3.org/2000/svg" xmlns:xlink="http://www.w3.org/1999/xlink" x="0px" y="0px"
	 viewBox="-48.1 179.5 450 460.5" style="enable-background:new -48.1 179.5 450 460.5;" xml:space="preserve">
<style type="text/css">
	.st0{fill:#747474;}
</style>
<path class="st0" d="M156.7,501.1c2.5,2.5,6,4,9.6,4s7.1-1.4,9.6-4l48.6-48.6c5.3-5.3,5.3-13.9,0-19.2c-5.3-5.3-13.9-5.3-19.2,0
	l-38.9,38.9l-17.7-17.7c-5.3-5.3-13.9-5.3-19.2,0c-5.3,5.3-5.3,13.9,0,19.2L156.7,501.1z"/>
<path class="st0" d="M176.9,575.1c59.5,0,107.9-48.4,107.9-107.9s-48.4-107.9-107.9-107.9S69,407.6,69,467.2
	S117.3,575.1,176.9,575.1z M176.9,386.5c44.5,0,80.8,36.2,80.8,80.8S221.4,548,176.9,548s-80.8-36.2-80.8-80.8
	S132.4,386.5,176.9,386.5z"/>
<path class="st0" d="M357.9,208.5H333v-15.4c0-7.5-6.1-13.6-13.6-13.6c-7.5,0-13.6,6.1-13.6,13.6v15.4h-26.7v-15.4
	c0-7.5-6.1-13.6-13.6-13.6s-13.6,6.1-13.6,13.6v15.4H101.9v-15.4c0-7.5-6.1-13.6-13.6-13.6s-13.6,6.1-13.6,13.6v15.4H47.9v-15.4
	c0-7.5-6.1-13.6-13.6-13.6s-13.6,6.1-13.6,13.6v15.4H-4.1c-24.3,0-44,19.7-44,44v343.6c0,24.3,19.7,44,44,44h362
	c24.3,0,44-19.7,44-44V252.5C401.8,228.2,382.1,208.5,357.9,208.5z M374.7,596.1c0,9.3-7.6,16.8-16.8,16.8H-4.1
	c-9.3,0-16.8-7.6-16.8-16.8V321.6h395.6V596.1z M-20.9,252.5c0-9.3,7.6-16.8,16.8-16.8h24.8V251c0,7.5,6.1,13.6,13.6,13.6
	s13.6-6.1,13.6-13.6v-15.4h26.7V251c0,7.5,6.1,13.6,13.6,13.6c7.5,0,13.6-6.1,13.6-13.6v-15.4h150.1V251c0,7.5,6.1,13.6,13.6,13.6
	c7.5,0,13.6-6.1,13.6-13.6v-15.4h26.7V251c0,7.5,6.1,13.6,13.6,13.6c7.6,0,13.6-6.1,13.6-13.6v-15.4h24.8c9.3,0,16.8,7.6,16.8,16.8
	v41.9H-20.9V252.5z"/>
</svg>
