<?xml version="1.0" encoding="utf-8"?>
<!-- Generator: Adobe Illustrator 19.0.0, SVG Export Plug-In . SVG Version: 6.00 Build 0)  -->
<svg version="1.1" id="Layer_1" xmlns="http://www.w3.org/2000/svg" xmlns:xlink="http://www.w3.org/1999/xlink" x="0px" y="0px"
	 viewBox="-49 141 500.2 512" style="enable-background:new -49 141 500.2 512;" xml:space="preserve">
<style type="text/css">
	.st0{fill:#95ABD8;}
</style>
<path class="st0" d="M178.7,498.5c2.8,2.8,6.7,4.4,10.7,4.4c4,0,7.9-1.6,10.7-4.4l54-54c5.9-5.9,5.9-15.5,0-21.4
	c-5.9-5.9-15.5-5.9-21.4,0l-43.3,43.3l-19.7-19.7c-5.9-5.9-15.5-5.9-21.4,0c-5.9,5.9-5.9,15.5,0,21.4L178.7,498.5z"/>
<path class="st0" d="M201.1,580.8c66.2,0,120-53.8,120-120s-53.8-120-120-120c-66.2,0-120,53.8-120,120S134.9,580.8,201.1,580.8z
	 M201.1,371.1c49.5,0,89.8,40.3,89.8,89.8s-40.3,89.8-89.8,89.8s-89.8-40.3-89.8-89.8S151.6,371.1,201.1,371.1z"/>
<path class="st0" d="M402.3,173.2h-27.6v-17.1c0-8.3-6.8-15.1-15.1-15.1s-15.1,6.8-15.1,15.1v17.1h-29.7v-17.1
	c0-8.3-6.8-15.1-15.1-15.1c-8.3,0-15.1,6.8-15.1,15.1v17.1H117.7v-17.1c0-8.3-6.8-15.1-15.1-15.1c-8.3,0-15.1,6.8-15.1,15.1v17.1
	H57.7v-17.1c0-8.3-6.8-15.1-15.1-15.1c-8.3,0-15.1,6.8-15.1,15.1v17.1H-0.1c-27,0-48.9,21.9-48.9,48.9v382c0,27,21.9,48.9,48.9,48.9
	h402.5c27,0,48.9-21.9,48.9-48.9v-382C451.2,195.1,429.3,173.2,402.3,173.2z M421,604.1c0,10.3-8.4,18.7-18.7,18.7H-0.1
	c-10.3,0-18.7-8.4-18.7-18.7V298.9H421V604.1z M-18.8,222.1c0-10.3,8.4-18.7,18.7-18.7h27.6v17.1c0,8.3,6.8,15.1,15.1,15.1
	c8.3,0,15.1-6.8,15.1-15.1v-17.1h29.7v17.1c0,8.3,6.8,15.1,15.1,15.1c8.3,0,15.1-6.8,15.1-15.1v-17.1h166.9v17.1
	c0,8.3,6.8,15.1,15.1,15.1c8.3,0,15.1-6.8,15.1-15.1v-17.1h29.7v17.1c0,8.3,6.8,15.1,15.1,15.1c8.4,0,15.1-6.8,15.1-15.1v-17.1h27.6
	c10.3,0,18.7,8.4,18.7,18.7v46.6H-18.8V222.1z"/>
</svg>
