<?xml version="1.0" encoding="utf-8"?>
<!-- Generator: Adobe Illustrator 19.0.0, SVG Export Plug-In . SVG Version: 6.00 Build 0)  -->
<svg version="1.1" id="Layer_1" xmlns="http://www.w3.org/2000/svg" xmlns:xlink="http://www.w3.org/1999/xlink" x="0px" y="0px"
	 viewBox="0 0 1920 1200" style="enable-background:new 0 0 1920 1200;" xml:space="preserve">
<style type="text/css">
	.st0{filter:url(#Adobe_OpacityMaskFilter);}
	.st1{opacity:0.11;clip-path:url(#XMLID_28_);mask:url(#XMLID_29_);}
	.st2{opacity:0.3;}
	.st3{fill:#E2E3E4;}
</style>
<g id="XMLID_19_">
	<defs>
		<rect id="XMLID_15_" y="-2" width="1920" height="1202"/>
	</defs>
	<clipPath id="XMLID_28_">
		<use xlink:href="#XMLID_15_"  style="overflow:visible;"/>
	</clipPath>
	<defs>
		<filter id="Adobe_OpacityMaskFilter" filterUnits="userSpaceOnUse" x="-729.9" y="-292.8" width="2487.9" height="1896.6">
			<feFlood  style="flood-color:white;flood-opacity:1" result="back"/>
			<feBlend  in="SourceGraphic" in2="back" mode="normal"/>
		</filter>
	</defs>
	<mask maskUnits="userSpaceOnUse" x="-729.9" y="-292.8" width="2487.9" height="1896.6" id="XMLID_29_">
		<g id="XMLID_18_" class="st0">
		</g>
	</mask>
	<g id="XMLID_2721_" class="st1">
		<g id="XMLID_2642_">
			<g id="XMLID_2715_">
				<path id="XMLID_3000_" d="M1758,241.6l-26.8,100.3c0,0-1.9,7.6-5.1,19c-5.8,21-16.4,55.7-28,77
					c-39.4,73.8-120.3,64.7-145.4,56.2c-42.1-14.3-71.6-60.3-84-85.3l-189-383.4c-2.8-5.7-6.5-10.8-8.2-16.6l-82.3-167.1
					c-9.9-20.1-12.1-41.4-6.3-63.6c6.8-27.4,22.9-47.6,48.3-60.1l2.2-1.1c24.7-12.2,49.8-12.8,75.3-2.3c21.9,8.6,38,23.9,48.7,45.6
					l49.6,100.6l55.8-27.5c20.1-9.9,40.5-11.9,61.5-5.6c0.3,0.1,0.6,0.2,0.9,0.3c21.9,8.1,37.7,22.3,47.7,42.7
					c10.7,21.7,11.7,43.7,3.3,65.8c-3.2,8.9-7.9,16.9-13.6,23.6c-7,8.6-16.1,15.5-27,20.9l-55.8,27.5l2.8,10.1L1590.3,237
					c11.7,23.7,27.1,42.5,46.3,51.7C1667,303.6,1707.3,294,1758,241.6z"/>
				<g id="XMLID_2995_">
					<g id="XMLID_47_">
						<path id="XMLID_48_" d="M1132.3,139.9l197.3,400.2c8.8,17.9,11.7,36.2,8.7,54.5c-0.5,4.4-1.5,8.8-2.9,13.5
							c-7.7,26.1-23.7,45-48.3,57.2c-23.1,11.4-47,13.1-71.5,4.6c-24.4-8.3-42.2-24-53.6-47.1L964.1,221.3
							c-9.8-19.9-12.2-41.1-6.2-63.4c6.7-27.6,22.7-47.5,48.1-60l2.2-1.1c24.7-12.2,49.7-13,75.3-2.3
							C1105.4,103.1,1121.7,118.4,1132.3,139.9z"/>
					</g>
				</g>
				<path id="XMLID_2994_" d="M-295.5,1122.4l1.5,3c2.1,4.3,4.2,9,5.5,13.7c2.7,8,4.6,16.4,5.5,25.5c0.4,13.8-2.3,27.1-7.9,40.2
					c-9.2,21.2-24.2,36.9-45.1,47.2c-16.4,8.1-33.4,11.3-50.9,9.6c-17.4-1.5-33-7.8-46.7-18.7c-11.5-8.3-20.8-19.4-27.8-33.6
					c-6.2-12.6-9.6-25.4-10.2-38.1c-0.1-4.1,0.1-8.2,0.7-12.1c-0.2-0.9,0-2,0-2.9c1.5-12.8,5.7-24.6,12.4-36
					c9.4-15.7,22.6-27.8,39.7-36.3c20.9-10.3,42.9-12.8,65.9-7.5c16.4,4.9,30.4,13.4,41.7,25.5
					C-304.9,1107.6-299.8,1114.7-295.5,1122.4z"/>
				<g id="XMLID_2720_">
					<g id="XMLID_54_">
						<path id="XMLID_55_" d="M489.5,919.3l-13.3-10.6l-22.9-15.7l-14-9.5l-60.9-42l-12-8.3l-14.1-9.7L285,777.1l-30.2-20.9
							L31.3,602.1L-168,464.8c-11.5-8.3-24.3-14-38.9-16.8c-9-1.9-19.1-2.4-29.6-0.9c-9.7,1.1-19.4,3.9-29.3,8.8
							c-17,8.4-30.3,21.1-39.7,37.7c-8.5,14.5-13.1,30.2-13,46.8l-6.7,160c0.2-0.1,0.3,0.1,0.1,0.7c-0.1,1.8,0.7,3.3,1.6,4.3
							c2.1,2.2,5.1,2.9,8.1,1.4c9.1-4.5,20.9-10.3,32.9-15.7c0,0,0,0,0.2-0.1c12.1-5.7,24.5-11.1,34.3-14.5
							c6.5-2.2,12.2-3.6,15.7-3.5c1.2,0.4,1.8-0.4,2.8,0.1c1.8,0.1,3.7,0.1,5.6,0.4c8.4,0.5,16.7,2.1,24.8,5
							c11.3,3.5,21.4,8.6,31.1,14.8l269.8,185.2l34,23.2l80.9,55.7l0.6,0.2l12.7,8.9c0,0,0,0,0.2-0.1l22.2,15.3l39,26.9l44.8,30.6
							l32.7,22.6c14,10,29.7,15.5,47.2,17.2c17.5,1.7,34.1-1.4,49.7-9.1c22.5-11.1,38.1-28.6,46.7-52.4c8.7-25.6,7.3-49.9-4.1-73
							C503.4,934.7,497.4,926.5,489.5,919.3z"/>
					</g>
				</g>
				<g id="XMLID_2718_">
					<path id="XMLID_2719_" d="M138.4,1126.7c1.8,3.7,3.4,7.4,4.6,11.2c1.9,6.4,3.2,12.9,3.6,19.8c1,14-1.3,28.6-6.1,43.2
						c-8.7,23.7-24.3,41.2-46.6,52.1c-15.8,7.8-32.2,10.7-49.9,9.2c-17.5-1.7-33.2-7.2-47.4-17.1l-15.3-10.6l-12.6-8.7l-26.6-18.2
						l-43.4-29.8l-9.6-6.5l-0.2,0.1l-24.6-17.1l-28.5-19.5l-48.5-33.2l-15.5-10.5l-63.9-44l-0.4-0.3l-153.3-105.1l-67.4-46.2
						c-1.1,38.5-2.5,73.1-2.2,79.1l-0.9,16.6l-8.4,160l-14.8,289.2l-0.6,10.8l-3.2,60.2c-0.8,17.3-5.7,33.2-15.2,48.2
						c-9.3,14.9-21.8,26.4-37.4,34.1c-24.1,11.9-48.3,13.5-73.1,4.4c-19.5-7.3-34.6-18.5-45.4-35c-2.3-3.3-4.4-6.9-6.3-10.9
						c-7-14.2-9.5-27.7-9.1-43.8l2.1-41.5l14.7-293.1l0.8-16.3l6.3-126.9l1-19.9l14.4-287.1c0.1-16.7,4.4-32.3,13.1-46.9
						c9.2-16.6,22.7-29.1,39.8-37.5c9.9-4.9,19.6-8,29.3-8.8c10.2-1.6,20.7-1.4,29.7,0.6c14.6,2.8,28.2,8.4,39.6,16.7L-329.4,791
						l5.9,4l275.3,188.4l7,4.7l17.4,12l92.8,63.4l14.9,10.3l13.9,9.3l11.5,7.8C123,1100,131.4,1112.5,138.4,1126.7z"/>
				</g>
				<path id="XMLID_2717_" d="M916,538.7c15.8,32.1,25.4,63,30.1,91.8c1,6.1,1.9,12.3,2.6,18.1l-0.2,0.1
					c25.2,147.5-127.3,246.1-136.7,250.8c-43,21.2-75-11.8-75-11.8s-87.3-72.2-89.3-76.3c-2.1-4.3-3.1-10.7-2.6-17.6
					c0.2-4.5,1.1-9.1,2.9-13.9c3.6-10.6,11.2-21,23.5-27l35.1-17.3c29.8-14.7,44.6-39.9,47-64.8c1.5-13.5-0.7-26.9-6.1-38.7
					c-0.3-1.1-0.9-2.3-1.4-3.3c-15.4-31.2-61.6-59.4-109.7-35.6C609.8,606,527.3,646.9,491,664.8c-3,1.5-6,2.7-8.8,3.6
					c-17.9,6.9-37.8,4.4-54.3-5.1c-1.4-0.8-2.8-1.8-4.3-2.8c-2.9-2-6-4.2-9.1-6.5c-4.9-3-9.9-6.6-15.4-10.3
					c-32.6-22.9-73.8-51.7-74.6-53.4c-21.7-44,28-63.1,28-63.1l142.6-70.3c30.4-15,47.6-47.2,43.4-79c-0.6-6.6-2.3-13.1-4.9-19.4
					l-0.8-1.6c-9.3-21.4-26.6-32.5-43.9-37.9c-5.5-1.7-11-2.9-16.6-3.3c-19.7-2.6-39.7,1.4-57.7,10.3l-239.4,118
					c-24.3,11.5-52.9,8.2-74.9-7.2c-29.9-20.8-88.6-56.9-89.7-59.2c-21.7-44,23.8-69.1,23.8-69.1l258.2-127.7
					c2.6-1.3,99.7-48.9,102.6-49.6c19.7-4.3,84.2-11.6,121.3-3.1c35.2,8.2,72.5,19.7,110.9,52.9c3.7,3.1,7.4,6.6,11,10.3
					c4.9,4.5,9.5,9.3,14.3,14.5c70.2,78.2,76.1,162.8,75.9,190.8c0.1,4.1,1.8,7.7,5.2,10c1.2,0.9,2.5,1.5,4.1,1.9
					c2.7,0.9,6,1.7,9.8,3l0.2-0.1c5.4,1.5,11.8,3.5,18.7,6.2l0.2-0.1C810.1,432.8,880.2,466.6,916,538.7z"/>
				<path id="XMLID_2716_" d="M1024.2-77c2.4,4.9,4.5,10.1,5.7,15.1c3.1,10.2,4.1,20.8,3.6,31.1c-1.8,32.2-20.2,62.4-51.2,77.7
					c-43,21.2-93.9,6.1-118.8-33.1c-1.9-3-3.7-6-5.2-9c-2.1-4.3-3.9-8.9-5.2-13.6c-13.4-42.7,6-89.7,47.4-110.2
					C946.3-141.5,1001.7-122.7,1024.2-77z"/>
			</g>
		</g>
		<g id="XMLID_2643_" class="st2">
			<path id="XMLID_2714_" class="st3" d="M-323.5,794.9c-12,31.9-43.2,80.9-122.4,146.6l-67.4-46.2c-1.1,38.5-2.5,73.1-2.2,79.1
				c-3.8,2.1-7.7,4.3-11.6,6.2c-53.5,26.3-120.8,31.9-177.9,30.1l14.4-287.1c0.1-16.7,4.4-32.3,13.1-46.9
				c9.2-16.6,22.7-29.1,39.8-37.5c9.9-4.9,19.6-8,29.3-8.8c10.2-1.6,20.7-1.4,29.7,0.6c14.6,2.8,28.2,8.4,39.6,16.7l209.6,143.3
				L-323.5,794.9z"/>
			<path id="XMLID_2713_" class="st3" d="M31.3,602.1c-174-57.1-271.2,40.2-313.6,88.9c-0.2,0.1-0.2,0.1-0.2,0.1
				c-12,5.4-23.9,11.3-32.9,15.7c-3,1.5-6,0.8-8.1-1.4c-1-1-1.8-2.6-1.6-4.3c0.2-0.6,0.1-0.8-0.1-0.7l6.7-160
				c-0.1-16.6,4.4-32.3,13-46.8c9.4-16.7,22.8-29.4,39.7-37.7c9.9-4.9,19.5-7.7,29.3-8.8c10.5-1.5,20.6-1.1,29.6,0.9
				c14.6,2.8,27.5,8.5,38.9,16.8L31.3,602.1z"/>
			<path id="XMLID_2712_" class="st3" d="M638.3,191.2c-14.4,69.3-57,141.1-99.7,186.7c-0.6-6.6-2.3-13.1-4.9-19.4l-0.8-1.6
				c-9.3-21.4-26.6-32.5-43.9-37.9c-5.5-1.7-11-2.9-16.6-3.3c-19.7-2.6-39.7,1.4-57.7,10.3l-239.4,118c-24.3,11.5-52.9,8.2-74.9-7.2
				c-29.9-20.8-88.6-56.9-89.7-59.2c-21.7-44,23.8-69.1,23.8-69.1l258.2-127.7c2.6-1.3,99.7-48.9,102.6-49.6
				c19.7-4.3,84.2-11.6,121.3-3.1c35.2,8.2,72.5,19.7,110.9,52.9C631,184,634.7,187.5,638.3,191.2z"/>
			<path id="XMLID_2710_" class="st3" d="M1524.5-172.3c-143.4,131-285,115.7-285,115.7l-50.2-101.8c-9.9-20.1-12.1-41.4-6.3-63.6
				c6.8-27.4,22.9-47.6,48.3-60.1l2.2-1.1c24.7-12.2,49.8-12.8,75.3-2.3c21.9,8.6,38,23.9,48.7,45.6l49.6,100.6l55.9-27.5
				C1483.1-176.7,1503.5-178.6,1524.5-172.3z"/>
			<path id="XMLID_2709_" class="st3" d="M-712.3,1157.4c83.4-9.9,161.9-15.8,187.6-6.4l-14.8,289.2
				c-86.3,55.3-148.4,98.4-174.9,122.7c-2.3-3.3-4.4-6.9-6.3-10.9c-7-14.2-9.5-27.7-9.1-43.8l2.1-41.5l14.7-293.1L-712.3,1157.4z"/>
			<path id="XMLID_2708_" class="st3" d="M-471,1159.1c54.2,0.5,124-14.5,175.5-36.8l1.5,3c2.1,4.3,4.2,9,5.5,13.7
				c2.7,8,4.6,16.4,5.5,25.5c0.4,13.8-2.3,27.1-7.9,40.2c-9.2,21.2-24.2,36.9-45.1,47.2c-16.4,8.1-33.4,11.3-50.9,9.6
				c-17.4-1.5-33-7.8-46.7-18.7c-11.5-8.3-20.8-19.4-27.8-33.6c-6.2-12.6-9.6-25.4-10.2-38.1C-471.7,1167.1-471.5,1163-471,1159.1z"
				/>
			<path id="XMLID_2704_" class="st3" d="M68.9,1063.4l14.9,10.3c-63,34.7-125.2,69.8-185.3,104.1l-9.6-6.5l-0.2,0.1l-24.6-17.1
				l-28.5-19.5l-48.5-33.2l-15.5-10.5c36.8-13,113.5-42.7,204.5-91L68.9,1063.4z"/>
			<path id="XMLID_2649_" class="st3" d="M378.3,841.5l60.9,42c-61.4,31.5-124.1,64.6-186.9,98.3l-22.2-15.3
				c-0.2,0.1-0.2,0.1-0.2,0.1l-12.7-8.9l-0.6-0.2l-80.9-55.7c50.9-35.9,102-77.5,149.4-124.6l67.2,46.3l14.1,9.7L378.3,841.5z"/>
			<path id="XMLID_2648_" class="st3" d="M766.7,417.4c43.4,15.4,113.5,49.2,149.3,121.3c15.8,32.1,25.4,63,30.1,91.8
				c1,6.1,1.9,12.3,2.6,18.1l-0.2,0.1c-83.6,30.9-186.9,76.4-300.7,131c3.6-10.6,11.2-21,23.5-27l35.1-17.3
				c29.8-14.7,44.6-39.9,47-64.8c1.5-13.5-0.7-26.9-6.1-38.7c-0.3-1.1-0.9-2.3-1.4-3.3c-15.4-31.2-61.6-59.4-109.7-35.6
				C609.8,606,527.3,646.9,491,664.8c-3,1.5-6,2.7-8.8,3.6c-17.9,6.9-37.8,4.4-54.3-5.1c-1.4-0.8-2.8-1.8-4.3-2.8
				c-2.9-2-6-4.2-9.1-6.5c96.5-80.2,219.7-163,351.9-236.5L766.7,417.4z"/>
			<path id="XMLID_2646_" class="st3" d="M1002.6,299.4c58.8-26,117.3-49.5,174.4-69l152.6,309.7c8.8,17.9,11.7,36.2,8.7,54.5
				c-55.4-7-119.3-8.8-191.2-1.9L1002.6,299.4z"/>
			<path id="XMLID_2645_" class="st3" d="M1024.2-77c2.4,4.9,4.5,10.1,5.7,15.1c-67.8-0.2-130.6,26.4-176.8,53.1
				c-13.4-42.7,6-89.7,47.4-110.2C946.3-141.5,1001.7-122.7,1024.2-77z"/>
			<path id="XMLID_2644_" class="st3" d="M1738.5,314.5c-11.5,6.4-25.6,11.7-42.9,15.5c-59.8,13.5-93.7-69.3-105.4-92.9l-33.9-68.8
				c-21.6-1.1-44.1-1-67.4-0.4c-41.8,1.7-85.8,6.5-131.9,14.5l111.6,226.4c12.3,25,41.9,71,84,85.3c25,8.5,106,17.6,145.4-56.2
				c0.8-1.4,1.8-3.3,3.1-5.7L1738.5,314.5z"/>
		</g>
	</g>
</g>
</svg>
