<?xml version="1.0" encoding="utf-8"?>
<!-- Generator: Adobe Illustrator 19.0.0, SVG Export Plug-In . SVG Version: 6.00 Build 0)  -->
<svg version="1.1" id="Capa_1" xmlns="http://www.w3.org/2000/svg" xmlns:xlink="http://www.w3.org/1999/xlink" x="0px" y="0px"
	 viewBox="182.4 398.3 16 16" style="enable-background:new 182.4 398.3 16 16;" xml:space="preserve">
<style type="text/css">
	.st0{fill:#C3D4F4;}
</style>
<g>
	<path class="st0" d="M187.4,410c-0.2,0-0.4-0.1-0.5-0.2c-0.3-0.3-0.3-0.8,0-1.1l6-6c0.3-0.3,0.8-0.3,1.1,0c0.3,0.3,0.3,0.8,0,1.1
		l-6,6C187.8,410,187.6,410,187.4,410z"/>
	<path class="st0" d="M193.4,410c-0.2,0-0.4-0.1-0.5-0.2l-6-6c-0.3-0.3-0.3-0.8,0-1.1c0.3-0.3,0.8-0.3,1.1,0l6,6
		c0.3,0.3,0.3,0.8,0,1.1C193.8,410,193.6,410,193.4,410z"/>
</g>
<path class="st0" d="M196.3,399.6c0.5,0,0.9,0.4,0.9,0.9v11.6c0,0.5-0.4,0.9-0.9,0.9h-11.6c-0.5,0-0.9-0.4-0.9-0.9v-11.6
	c0-0.5,0.4-0.9,0.9-0.9H196.3 M196.3,398.4h-11.6c-1.2,0-2.1,1-2.1,2.1v11.6c0,1.2,1,2.1,2.1,2.1h11.6c1.2,0,2.1-1,2.1-2.1v-11.6
	C198.4,399.3,197.5,398.4,196.3,398.4L196.3,398.4z"/>
</svg>
