<?xml version="1.0" encoding="utf-8"?>
<!-- Generator: Adobe Illustrator 19.0.0, SVG Export Plug-In . SVG Version: 6.00 Build 0)  -->
<svg version="1.1" id="Isolation_Mode" xmlns="http://www.w3.org/2000/svg" xmlns:xlink="http://www.w3.org/1999/xlink" x="0px"
	 y="0px" viewBox="246 -246 512 512" style="enable-background:new 246 -246 512 512;" xml:space="preserve">
<style type="text/css">
	.st0{fill:#737373;}
</style>
<g id="Floder">
	<path class="st0" d="M618.6,258.1h-57.7c-7.3,0-13.2-5.9-13.2-13.2v-33.4c0-2-1.2-3.7-3-4.4c0,0,0,0-0.1,0c-1.8-0.7-3.9-0.3-5.2,1
		l-27,27c-3.3,3.3-8.6,3.3-11.9,0l-47.7-47.7c-3.3-3.3-3.3-8.6,0-11.9l27-27c1.4-1.4,1.8-3.4,1-5.2c0,0,0,0,0-0.1
		c-0.7-1.8-2.5-3-4.5-3h-33.4c-7.3,0-13.2-5.9-13.2-13.2V69.2c0-7.3,5.9-13.2,13.2-13.2h33.4c2,0,3.7-1.2,4.4-3c0,0,0,0,0-0.1
		c0.7-1.8,0.3-3.9-1-5.2l-27-27c-3.3-3.3-3.3-8.6,0-11.9l47.7-47.7c3.3-3.3,8.6-3.3,11.9,0l27,27c1.4,1.4,3.4,1.8,5.2,1
		c0,0,0,0,0.1,0c1.8-0.7,3-2.5,3-4.5v-33.4c0-7.3,5.9-13.2,13.2-13.2h57.7c7.3,0,13.2,5.9,13.2,13.2v33.4c0,2,1.2,3.7,3,4.4
		c0,0,0,0,0.1,0c1.8,0.7,3.9,0.3,5.2-1l27-27c3.3-3.3,8.6-3.3,11.9,0l47.7,47.7c3.3,3.3,3.3,8.6,0,11.9l-27,27
		c-1.4,1.4-1.8,3.4-1,5.2c0,0,0,0,0,0.1c0.7,1.8,2.5,3,4.5,3h33.4c7.3,0,13.2,5.9,13.2,13.2V127c0,7.3-5.9,13.2-13.2,13.2h-33.4
		c-2,0-3.7,1.2-4.4,3c0,0,0,0,0,0.1c-0.7,1.8-0.3,3.9,1,5.2l27,27c3.3,3.3,3.3,8.6,0,11.9L679,235.1c-3.3,3.3-8.6,3.3-11.9,0l-27-27
		c-1.4-1.4-3.4-1.8-5.2-1c0,0,0,0-0.1,0c-1.8,0.7-3,2.5-3,4.5v33.4C631.8,252.2,625.9,258.1,618.6,258.1z M570.6,234.4h38.1
		c2.8,0,5-2.2,5-5v-32.1c0-3.5,2.3-6.6,5.6-7.6c4.9-1.6,9.7-3.5,14.2-5.9c3.1-1.5,6.8-0.9,9.3,1.5l22.7,22.7c2,2,5.1,2,7.1,0l27-27
		c2-2,2-5.1,0-7.1l-22.7-22.7c-2.4-2.4-3-6.2-1.5-9.3c2.3-4.6,4.3-9.3,5.9-14.2c1-3.3,4.1-5.6,7.6-5.6H721c2.8,0,5-2.2,5-5V79.1
		c0-2.8-2.2-5-5-5h-32.1c-3.5,0-6.6-2.3-7.6-5.6c-1.6-4.9-3.5-9.7-5.9-14.2c-1.5-3.1-0.9-6.8,1.5-9.3l22.7-22.7c2-2,2-5.1,0-7.1
		l-27-27c-2-2-5.1-2-7.1,0l-22.7,22.7c-2.4,2.4-6.2,3-9.3,1.5c-4.6-2.3-9.3-4.3-14.2-5.9c-3.3-1-5.6-4.1-5.6-7.6v-32.1
		c0-2.8-2.2-5-5-5h-38.1c-2.8,0-5,2.2-5,5v32.1c0,3.5-2.3,6.6-5.6,7.6c-4.9,1.6-9.7,3.5-14.2,5.9c-3.1,1.5-6.8,0.9-9.3-1.5
		l-22.7-22.7c-2-2-5.1-2-7.1,0l-27,27c-2,2-2,5.1,0,7.1L502.5,45c2.4,2.4,3,6.2,1.5,9.3c-2.3,4.6-4.3,9.3-5.9,14.2
		c-1,3.3-4.1,5.6-7.6,5.6h-32.1c-2.8,0-5,2.2-5,5v38.1c0,2.8,2.2,5,5,5h32.1c3.5,0,6.6,2.3,7.6,5.6c1.6,4.9,3.5,9.7,5.9,14.2
		c1.5,3.1,0.9,6.8-1.5,9.3l-22.7,22.7c-2,2-2,5.1,0,7.1l27,27c2,2,5.1,2,7.1,0l22.7-22.7c2.4-2.4,6.2-3,9.3-1.5
		c4.6,2.3,9.3,4.3,14.2,5.9c3.3,1,5.6,4.1,5.6,7.6l0,32.1C565.6,232.2,567.9,234.4,570.6,234.4z"/>
	<path class="st0" d="M589.7,150c-28.7,0-51.9-23.2-51.9-51.9s23.2-51.9,51.9-51.9s51.9,23.2,51.9,51.9
		C641.6,126.7,618.3,150,589.7,150z M589.7,65.8c-17.8,0-32.3,14.5-32.3,32.3s14.5,32.3,32.3,32.3S622,116,622,98.1
		C622,80.3,607.5,65.8,589.7,65.8z"/>
	<path class="st0" d="M364.4-73.6c-23.7,0-43,19.3-43,43s19.3,43,43,43c23.7,0,43-19.3,43-43S388.2-73.6,364.4-73.6z M364.4-6.1
		c-13.5,0-24.5-10.9-24.5-24.5S350.9-55,364.4-55c13.5,0,24.5,10.9,24.5,24.5S377.9-6.1,364.4-6.1z"/>
	<path class="st0" d="M676.5-125h-24h-74.6h-38.4h-20H414.1l-22.9-39c-8.3-16.8-12.5-17.3-25.8-17s-72,0-72,0h-25v282
		c0,4.4,3.6,8,8,8H389c6.6,0,12-5.4,12-12s-5.4-12-12-12h-8.8c0,0,0,0-0.1,0h-4.7c0,0,0,0,0,0c-18.2,0-82,0-82,0v-242h75.4l25.7,44
		c1.4,2.5,7.9,7.8,14.9,8h255v16.5c0,5.5,4.5,10,10,10s10-4.5,10-10V-117C684.5-121.4,680.9-125,676.5-125z"/>
</g>
</svg>
