<?xml version="1.0" encoding="utf-8"?>
<!-- Generator: Adobe Illustrator 19.0.0, SVG Export Plug-In . SVG Version: 6.00 Build 0)  -->
<svg version="1.1" id="Layer_1" xmlns="http://www.w3.org/2000/svg" xmlns:xlink="http://www.w3.org/1999/xlink" x="0px" y="0px"
	 viewBox="-50 141 511 511" style="enable-background:new -50 141 511 511;" xml:space="preserve">
<style type="text/css">
	.st0{fill:#737373;}
</style>
<path class="st0" d="M437,622.1h-40.9V342.6l15.5,6.4c1.9,0.8,3.8,1.1,5.7,1.1c5.9,0,11.5-3.5,13.9-9.3c3.1-7.6-0.5-16.4-8.2-19.5
	l-26.9-11v-41.6l15.5,6.4c1.9,0.8,3.8,1.1,5.7,1.1c5.9,0,11.5-3.5,13.9-9.3c3.1-7.6-0.5-16.4-8.2-19.5L167.2,142.1
	c-7.6-3.1-16.4,0.5-19.5,8.2c-3.1,7.6,0.5,16.4,8.2,19.5l15.9,6.5v41.6l-4.5-1.9c-7.6-3.1-16.4,0.5-19.5,8.2
	c-3.1,7.6,0.5,16.4,8.2,19.5l15.9,6.5v29.8L44.5,345.9c-16.9,8.7-27.4,26-27.4,45v231.2H-24c-8.3,0-15,6.7-15,15s6.7,15,15,15H437
	c8.3,0,15-6.7,15-15S445.3,622.1,437,622.1z M201.6,188.7l164.5,67.6v41.6l-164.5-67.6V188.7z M124.3,622.1v-47.6
	c0-8.3-6.7-15-15-15c-8.3,0-15,6.7-15,15v47.6H47.1v-92.6h62.3c8.3,0,15-6.7,15-15c0-8.3-6.7-15-15-15H47.1v-58.8h62.3
	c8.3,0,15-6.7,15-15s-6.7-15-15-15H47.1v-19.9c0-7.8,4.3-14.8,11.2-18.4l113.5-58.7v308.2H124.3z M328.8,622.1v-36.6
	c0-8.3-6.7-15-15-15s-15,6.7-15,15v36.6h-29.9v-47.6c0-8.3-6.7-15-15-15c-8.3,0-15,6.7-15,15v47.6h-37.4V262.6l164.5,67.6v291.8
	H328.8z"/>
<path class="st0" d="M253.9,445.1c-8.3,0-15,6.7-15,15v30.3c0,8.3,6.7,15,15,15c8.3,0,15-6.7,15-15v-30.3
	C268.9,451.8,262.2,445.1,253.9,445.1z"/>
<path class="st0" d="M314.1,461.1c-8.3,0-15,6.7-15,15v30.3c0,8.3,6.7,15,15,15c8.3,0,15-6.7,15-15v-30.3
	C329,467.8,322.3,461.1,314.1,461.1z"/>
<path class="st0" d="M253.8,392c8.3,0,15-6.7,15-15v-30.3c0-8.3-6.7-15-15-15s-15,6.7-15,15V377C238.8,385.3,245.5,392,253.8,392z"
	/>
<path class="st0" d="M314,428c8.3,0,15-6.7,15-15v-30.3c0-8.3-6.7-15-15-15c-8.3,0-15,6.7-15,15V413C299,421.3,305.7,428,314,428z"
	/>
</svg>
