<?xml version="1.0" encoding="utf-8"?>
<!-- Generator: Adobe Illustrator 19.0.0, SVG Export Plug-In . SVG Version: 6.00 Build 0)  -->
<svg version="1.1" id="Isolation_Mode" xmlns="http://www.w3.org/2000/svg" xmlns:xlink="http://www.w3.org/1999/xlink" x="0px"
	 y="0px" viewBox="-293 385 24 24" style="enable-background:new -293 385 24 24;" xml:space="preserve">
<style type="text/css">
	.st0{fill:#4E6EB5;}
</style>
<g>
	<path class="st0" d="M-281.4,407.1h-8.1c-1,0-1.9-0.8-1.9-1.9v-7.7c0-1,0.8-1.9,1.9-1.9h13.5c1.2,0,1.7,0.7,1.7,0.7
		s0.3,0.5,1.1,0.4c0.4-0.1,0.7-0.5,0.7-0.8c-0.2-1.3-1.7-2.1-3.4-2.1h-1.1v-3.3c0-3-2.5-5.5-5.6-5.5s-5.6,2.5-5.6,5.5v3.3h-1.1
		c-2.1,0-3.7,1.7-3.7,3.8v7.7c0,2.1,1.7,3.7,3.7,3.7h8c0.5,0,0.9-0.4,1-0.9C-280.4,407.6-280.9,407.1-281.4,407.1z M-286.5,390.5
		c0-2,1.7-3.6,3.7-3.6c2.1,0,3.7,1.6,3.7,3.6v3.3h-7.5L-286.5,390.5L-286.5,390.5z"/>
	<circle class="st0" cx="-287.9" cy="401.2" r="0.9"/>
	<circle class="st0" cx="-284.4" cy="401.2" r="0.9"/>
	<circle class="st0" cx="-281.2" cy="401.2" r="0.9"/>
</g>
<path class="st0" d="M-274.8,397.9c-3.1,0-5.6,2.5-5.6,5.6c0,3.1,2.5,5.6,5.6,5.6c3.1,0,5.6-2.5,5.6-5.6
	C-269.2,400.4-271.7,397.9-274.8,397.9z M-270.9,402l-5.1,4.6c-0.1,0.1-0.3,0.2-0.4,0.2c0,0,0,0,0,0c-0.2,0-0.3-0.1-0.4-0.2
	l-1.8-2.2c-0.2-0.3-0.2-0.7,0.1-0.9c0.3-0.2,0.7-0.2,0.9,0.1l1.4,1.7l4.6-4.1c0.3-0.2,0.7-0.2,0.9,0S-270.7,401.7-270.9,402z"/>
</svg>
