<?xml version="1.0" encoding="utf-8"?>
<!-- Generator: Adobe Illustrator 19.0.0, SVG Export Plug-In . SVG Version: 6.00 Build 0)  -->
<svg version="1.1" id="Capa_1" xmlns="http://www.w3.org/2000/svg" xmlns:xlink="http://www.w3.org/1999/xlink" x="0px" y="0px"
	 viewBox="195 385.5 24 24" style="enable-background:new 195 385.5 24 24;" xml:space="preserve">
<style type="text/css">
	.st0{fill:#BD8686;}
</style>
<path class="st0" d="M212.7,396.9c-0.1,0-0.3,0-0.4,0c1-1.2,1.7-2.8,1.7-4.5c0-3.8-3.1-6.9-6.9-6.9c0,0,0,0-0.1,0c0,0,0,0-0.1,0
	c-3.8,0-6.9,3.1-6.9,6.9c0,2.4,1.2,4.5,3.1,5.7c-1.7,0.6-3.2,1.5-4.5,2.8c-2.3,2.3-3.5,5.3-3.5,8.5h1.9c0-5.6,4.5-10.1,10-10.1
	c0.3,0,0.5,0,0.8,0c-0.8,1.1-1.3,2.4-1.3,3.8c0,3.5,2.8,6.3,6.3,6.3s6.3-2.8,6.3-6.3C219,399.7,216.2,396.9,212.7,396.9z
	 M206.9,397.5c-2.8,0-5-2.3-5-5.1c0-2.8,2.2-5,5-5.1c0.3,0,0.6,0,1,0.1c0,0,0,0,0.1,0c0.3,0.1,0.6,0.1,0.9,0.2c0,0-0.1,0-0.1,0
	c1.9,0.7,3.2,2.6,3.2,4.7C211.9,395.2,209.7,397.4,206.9,397.5z M216.3,404h-7.1c-0.4,0-0.8-0.4-0.8-0.8c0-0.4,0.4-0.8,0.8-0.8h7.1
	c0.4,0,0.8,0.4,0.8,0.8C217.1,403.7,216.7,404,216.3,404z"/>
</svg>
