<?xml version="1.0" encoding="utf-8"?>
<!-- Generator: Adobe Illustrator 19.0.0, SVG Export Plug-In . SVG Version: 6.00 Build 0)  -->
<svg version="1.1" id="Layer_1" xmlns="http://www.w3.org/2000/svg" xmlns:xlink="http://www.w3.org/1999/xlink" x="0px" y="0px"
	 viewBox="0 0 28 28" style="enable-background:new 0 0 28 28;" xml:space="preserve">
<style type="text/css">
	.st0{fill:#95ABD8;}
</style>
<polyline id="XMLID_1_" class="st0" points="13.7,16 12,23.5 14.2,25.5 16,23.6 14.5,16 "/>
<path id="XMLID_3_" class="st0" d="M14,0C9.3,0,5.5,3.8,5.5,8.4c0,2.4,1,4.6,2.6,6.1c0.6,0.5,1.2,1,1.9,1.4c1.2,0.6,2.5,0.9,3.9,0.9
	s2.7-0.3,3.9-0.9c0.7-0.4,1.4-0.8,1.9-1.4c1.6-1.5,2.6-3.7,2.6-6.1C22.5,3.8,18.7,0,14,0z M17.8,13.8C16.8,14.6,15.4,15,14,15
	s-2.8-0.5-3.8-1.2c-1.7-1.2-2.8-3.1-2.8-5.4c0-3.6,3-6.6,6.6-6.6s6.6,3,6.6,6.6C20.6,10.6,19.5,12.6,17.8,13.8z"/>
<path id="XMLID_6_" class="st0" d="M19.8,14.5c-0.6-0.3-1.3-0.5-2-0.7C16.8,14.6,15.4,15,14,15s-2.8-0.5-3.8-1.2
	c-0.7,0.2-1.3,0.4-2,0.7C3.4,16.7,0,21.5,0,27.1c0,0.3,0,0.6,0,0.9h2c0-0.3,0-0.6,0-0.9c0-5.2,3.4-9.7,8.1-11.3
	c1.2-0.4,2.5-0.6,3.9-0.6s2.7,0.2,3.9,0.6c4.7,1.6,8.1,6,8.1,11.3c0,0.3,0,0.6,0,0.9h2c0-0.3,0-0.6,0-0.9
	C28,21.5,24.6,16.7,19.8,14.5z"/>
</svg>
