<?xml version="1.0" encoding="utf-8"?>
<!-- Generator: Adobe Illustrator 19.0.0, SVG Export Plug-In . SVG Version: 6.00 Build 0)  -->
<svg version="1.1" id="Capa_1" xmlns="http://www.w3.org/2000/svg" xmlns:xlink="http://www.w3.org/1999/xlink" x="0px" y="0px"
	 viewBox="-49 141 512 512" style="enable-background:new -49 141 512 512;" xml:space="preserve">
<style type="text/css">
	.st0{fill:url(#SVGID_1_);}
	.st1{fill:url(#SVGID_2_);}
	.st2{fill:url(#SVGID_3_);}
	.st3{fill:url(#SVGID_4_);}
	.st4{fill:url(#SVGID_5_);}
	.st5{fill:url(#SVGID_6_);}
	.st6{fill:url(#SVGID_7_);}
	.st7{fill:url(#SVGID_8_);}
</style>
<linearGradient id="SVGID_1_" gradientUnits="userSpaceOnUse" x1="184" y1="250.5974" x2="184" y2="628.6857" gradientTransform="matrix(1 0 0 1 0 4)">
	<stop  offset="0" style="stop-color:#FFFFFF"/>
	<stop  offset="1" style="stop-color:#C0CBDE"/>
</linearGradient>
<path class="st0" d="M384,360.4c3.8,0,6.9-3.1,6.9-6.8l0,0v-24c0-3.8-3.1-6.9-6.8-6.9l0,0H-16c-3.8,0-6.9,3.1-6.9,6.8l0,0v192
	c0,3.8,3.1,6.9,6.8,6.9l0,0h272c3.8,0,6.9-3.1,6.9-6.9c0-3.8-3.1-6.9-6.9-6.9h-265V336.4h386.3v17.1
	C377.1,357.3,380.2,360.4,384,360.4L384,360.4z"/>
<linearGradient id="SVGID_2_" gradientUnits="userSpaceOnUse" x1="167.9718" y1="250.5974" x2="167.9718" y2="628.6857" gradientTransform="matrix(1 0 0 1 0 4)">
	<stop  offset="0" style="stop-color:#FFFFFF"/>
	<stop  offset="1" style="stop-color:#C0CBDE"/>
</linearGradient>
<path class="st1" d="M12.3,219.7c-1.5,1-2.6,2.5-3,4.3l-16,72c-0.8,3.7,1.5,7.4,5.2,8.2c3.7,0.8,7.4-1.5,8.2-5.2l0,0l14.5-65.3
	l313.3,70.5c0.5,0.1,1,0.2,1.5,0.2c3.8,0,6.9-3.1,6.8-6.9c0-3.2-2.2-6-5.3-6.7l-320-72C15.7,218.4,13.9,218.7,12.3,219.7z"/>
<linearGradient id="SVGID_3_" gradientUnits="userSpaceOnUse" x1="192.0069" y1="250.5974" x2="192.0069" y2="628.6857" gradientTransform="matrix(1 0 0 1 0 4)">
	<stop  offset="0" style="stop-color:#FFFFFF"/>
	<stop  offset="1" style="stop-color:#C0CBDE"/>
</linearGradient>
<path class="st2" d="M94.2,212.6l13.1-26.3l186.1,77.5c3.5,1.5,7.5-0.2,9-3.7s-0.2-7.5-3.7-9l-192-80c-3.3-1.4-7.2,0-8.8,3.3l-16,32
	c-1.8,3.3-0.6,7.5,2.8,9.3s7.5,0.6,9.3-2.8C94,212.8,94.1,212.7,94.2,212.6L94.2,212.6z"/>
<linearGradient id="SVGID_4_" gradientUnits="userSpaceOnUse" x1="271.75" y1="250.5974" x2="271.75" y2="628.6857" gradientTransform="matrix(1 0 0 1 0 4)">
	<stop  offset="0" style="stop-color:#FFFFFF"/>
	<stop  offset="1" style="stop-color:#C0CBDE"/>
</linearGradient>
<path class="st3" d="M310.4,361.5c0-3.8-3.1-6.9-6.9-6.9H240c-3.8,0-6.9,3.1-6.9,6.9s3.1,6.9,6.9,6.9l0,0h63.5
	C307.3,368.4,310.4,365.3,310.4,361.5z"/>
<linearGradient id="SVGID_5_" gradientUnits="userSpaceOnUse" x1="176" y1="250.5974" x2="176" y2="628.6857" gradientTransform="matrix(1 0 0 1 0 4)">
	<stop  offset="0" style="stop-color:#FFFFFF"/>
	<stop  offset="1" style="stop-color:#C0CBDE"/>
</linearGradient>
<path class="st4" d="M176,495.9c38.9,0,70.4-31.5,70.4-70.4s-31.5-70.4-70.4-70.4s-70.4,31.5-70.4,70.4l0,0
	C105.6,464.4,137.1,495.9,176,495.9z M176,367.9c31.8,0,57.6,25.8,57.6,57.6s-25.8,57.6-57.6,57.6s-57.6-25.8-57.6-57.6
	S144.2,367.9,176,367.9z"/>
<linearGradient id="SVGID_6_" gradientUnits="userSpaceOnUse" x1="368" y1="250.5974" x2="368" y2="628.6857" gradientTransform="matrix(1 0 0 1 0 4)">
	<stop  offset="0" style="stop-color:#FFFFFF"/>
	<stop  offset="1" style="stop-color:#C0CBDE"/>
</linearGradient>
<path class="st5" d="M368,377.5c-42.4,0-88,10-88,32v192c0,22,45.6,32,88,32s88-10,88-32v-192C456,387.5,410.4,377.5,368,377.5z
	 M440,569.4c-1.2,4.4-25.2,16.1-72,16.1s-70.8-11.7-72-16v-12.6c17,8.6,45.1,12.6,72,12.6s55-4,72-12.6V569.4z M440,537.4
	c-1.2,4.4-25.2,16.1-72,16.1s-70.8-11.7-72-16v-12.6c17,8.6,45.1,12.6,72,12.6s55-4,72-12.6V537.4z M440,505.4
	c-1.2,4.4-25.2,16.1-72,16.1s-70.8-11.7-72-16v-12.6c17,8.6,45.1,12.6,72,12.6s55-4,72-12.6V505.4z M440,473.4
	c-1.2,4.4-25.2,16.1-72,16.1s-70.8-11.7-72-16v-12.6c17,8.5,45.1,12.6,72,12.6s55-4,72-12.6V473.4z M440,441.4
	c-1.2,4.4-25.2,16.1-72,16.1s-70.8-11.7-72-16v-12.6c17,8.5,45.1,12.6,72,12.6s55-4,72-12.6V441.4z M368,393.5
	c46.4,0,70.4,11.5,72,16c-1.6,4.5-25.6,16-72,16c-46.7,0-70.7-11.6-72-15.9l0,0C297.3,405.1,321.3,393.5,368,393.5z M368,617.5
	c-46.8,0-70.8-11.7-72-16v-12.6c17,8.6,45.1,12.6,72,12.6s55-4,72-12.6v12.5C438.8,605.8,414.8,617.5,368,617.5z"/>
<linearGradient id="SVGID_7_" gradientUnits="userSpaceOnUse" x1="64" y1="250.5974" x2="64" y2="628.6857" gradientTransform="matrix(1 0 0 1 0 4)">
	<stop  offset="0" style="stop-color:#FFFFFF"/>
	<stop  offset="1" style="stop-color:#C0CBDE"/>
</linearGradient>
<path class="st6" d="M54.5,368.4H112c3.8,0,6.9-3.1,6.9-6.9s-3.1-6.9-6.9-6.9H51.7c-1.8,0-3.5,0.7-4.8,1.9l-35.7,35
	c-1.3,1.6-2.1,3.5-2.1,5.6V454c0,1.7,0.6,3.4,1.8,4.6l32.5,35.6c1.3,1.4,3.1,2.2,5.1,2.2H112c3.8,0,6.9-3.1,6.9-6.9
	s-3.1-6.9-6.9-6.9H51.5l-28.7-31.4v-52L54.5,368.4z"/>
<linearGradient id="SVGID_8_" gradientUnits="userSpaceOnUse" x1="176" y1="250.5974" x2="176.0001" y2="628.6857" gradientTransform="matrix(1 0 0 1 0 4)">
	<stop  offset="0" style="stop-color:#FFFFFF"/>
	<stop  offset="1" style="stop-color:#C0CBDE"/>
</linearGradient>
<path class="st7" d="M180,437.5h-20c-4.4,0-8,3.6-8,8s3.6,8,8,8h8c0,4.4,3.6,8,8,8s8-3.6,8-8v-0.4c8.9-1.3,15.6-8.6,16-17.6
	c-0.6-10.5-9.5-18.5-20-18h-8c-2.5,0-4-1.4-4-2s1.5-2,4-2h20c4.4,0,8-3.6,8-8s-3.6-8-8-8h-8c0-4.4-3.6-8-8-8s-8,3.6-8,8v0.4
	c-8.9,1.3-15.6,8.6-16,17.6c0.6,10.5,9.5,18.5,20,18h8c2.5,0,4,1.4,4,2S182.5,437.5,180,437.5z"/>
</svg>
