<?xml version="1.0" encoding="utf-8"?>
<!-- Generator: Adobe Illustrator 19.0.0, SVG Export Plug-In . SVG Version: 6.00 Build 0)  -->
<svg version="1.1" id="Capa_1" xmlns="http://www.w3.org/2000/svg" xmlns:xlink="http://www.w3.org/1999/xlink" x="0px" y="0px"
	 viewBox="90.2 281.2 207.3 206.2" style="enable-background:new 90.2 281.2 207.3 206.2;" xml:space="preserve">
<style type="text/css">
	.st0{opacity:0.3;}
	.st1{fill:#FFFFFF;}
</style>
<g>
	<g class="st0">
		<path class="st1" d="M239.9,401c-31.8,0-57.6-25.8-57.6-57.6s25.8-57.6,57.6-57.6s57.6,25.8,57.6,57.6
			C297.5,375.2,271.7,400.9,239.9,401L239.9,401z M239.9,293c-27.8,0-50.4,22.6-50.4,50.4s22.6,50.4,50.4,50.4s50.4-22.6,50.4-50.4
			C290.3,315.6,267.7,293.1,239.9,293L239.9,293z"/>
		<path class="st1" d="M99.6,476.5c-1.5,0-2.8-0.9-3.3-2.2s-0.2-2.9,0.8-3.9l97.2-97.2c1.4-1.4,3.7-1.4,5.1,0c1.4,1.4,1.4,3.7,0,5.1
			l-97.2,97.2C101.5,476.2,100.6,476.5,99.6,476.5L99.6,476.5z"/>
		<path class="st1" d="M146.4,487.3c-1,0-1.9-0.4-2.5-1.1L115,457.5c-1.4-1.4-1.4-3.7,0-5.1c1.4-1.4,3.7-1.4,5.1,0l28.8,28.8
			c1,1,1.3,2.6,0.8,3.9C149.1,486.5,147.8,487.3,146.4,487.3z"/>
		<path class="st1" d="M157.2,462.1c-1,0-1.9-0.4-2.5-1.1L133,439.5c-1.4-1.4-1.4-3.7,0-5.1c1.4-1.4,3.7-1.4,5.1,0l21.6,21.6
			c1,1,1.3,2.6,0.8,3.9C159.9,461.3,158.6,462.1,157.2,462.1z"/>
		<path class="st1" d="M182.4,451.4c-1,0-1.9-0.4-2.5-1.1L151,421.5c-1.4-1.4-1.4-3.7,0-5.1c1.4-1.4,3.7-1.4,5.1,0l28.8,28.8
			c1,1,1.3,2.6,0.8,3.9C185.1,450.5,183.8,451.4,182.4,451.4z"/>
	</g>
	<g>
		<path class="st1" d="M234.1,396.3c-31.8,0-57.6-25.8-57.6-57.6s25.8-57.6,57.6-57.6s57.6,25.8,57.6,57.6
			C291.6,370.5,265.9,396.3,234.1,396.3L234.1,396.3z M234.1,288.3c-27.8,0-50.4,22.6-50.4,50.4c0,27.8,22.6,50.4,50.4,50.4
			s50.4-22.6,50.4-50.4C284.4,310.9,261.9,288.4,234.1,288.3L234.1,288.3z"/>
		<path class="st1" d="M93.8,471.9c-1.5,0-2.8-0.9-3.3-2.2c-0.6-1.3-0.2-2.9,0.8-3.9l97.2-97.2c1.4-1.4,3.7-1.4,5.1,0
			c1.4,1.4,1.4,3.7,0,5.1l-97.2,97.2C95.6,471.5,94.7,471.9,93.8,471.9L93.8,471.9z"/>
		<path class="st1" d="M140.5,482.7c-1,0-1.9-0.4-2.5-1.1l-28.8-28.8c-1.4-1.4-1.4-3.7,0-5.1c1.4-1.4,3.7-1.4,5.1,0l28.8,28.8
			c1,1,1.3,2.6,0.8,3.9C143.3,481.8,142,482.6,140.5,482.7z"/>
		<path class="st1" d="M151.3,457.5c-1,0-1.9-0.4-2.5-1.1l-21.6-21.6c-1.4-1.4-1.4-3.7,0-5.1c1.4-1.4,3.7-1.4,5.1,0l21.6,21.6
			c1,1,1.3,2.6,0.8,3.9C154.1,456.6,152.8,457.5,151.3,457.5z"/>
		<path class="st1" d="M176.5,446.7c-1,0-1.9-0.4-2.5-1.1l-28.8-28.8c-1.4-1.4-1.4-3.7,0-5.1c1.4-1.4,3.7-1.4,5.1,0l28.8,28.8
			c1,1,1.3,2.6,0.8,3.9C179.3,445.8,178,446.7,176.5,446.7z"/>
	</g>
</g>
</svg>
