<?xml version="1.0" encoding="utf-8"?>
<!-- Generator: Adobe Illustrator 19.0.0, SVG Export Plug-In . SVG Version: 6.00 Build 0)  -->
<svg version="1.1" id="Layer_1" xmlns="http://www.w3.org/2000/svg" xmlns:xlink="http://www.w3.org/1999/xlink" x="0px" y="0px"
	 viewBox="259 358.3 37.6 36.5" style="enable-background:new 259 358.3 37.6 36.5;" xml:space="preserve">
<style type="text/css">
	.st0{fill:#A2AAE3;}
</style>
<g>
	<g>
		<g>
			<path class="st0" d="M259,359.4v28.3c0,0,0,0,0,0.1c0,3.9,3.2,7.1,7.1,7.1h23.5c3.8-0.2,6.9-3.3,7-7.1V386c0-0.7-0.5-1.2-1.2-1.3
				h-6.1l-0.2-25.4c0,0,0-0.1,0-0.1c-0.1-0.5-0.5-0.9-1.1-0.9h-27.9C259.6,358.4,259.1,358.8,259,359.4L259,359.4z M271.4,392.7
				c1.4-1.3,2.1-3.1,2.1-5v-0.9h21v0.9c-0.1,2.8-2.3,5-5.1,5H271.4z M261.2,387.8v-27.2H287l0.2,24.2h-14.9c-0.6,0-1,0.7-1,1.3v1.8
				c0,2.8-2.3,5.1-5.1,5.1C263.5,392.9,261.2,390.6,261.2,387.8L261.2,387.8z"/>
			<path class="st0" d="M276.2,367c0-0.6-0.5-1.1-1.1-1.1h-8.3c-0.6,0-1.1,0.5-1.1,1.1s0.5,1.1,1.1,1.1h8.3
				C275.8,368,276.2,367.5,276.2,367z"/>
			<path class="st0" d="M284.7,372.9c0-0.6-0.5-1.1-1.1-1.1h-16.9c-0.6,0-1.1,0.5-1.1,1.1c0,0.6,0.5,1.1,1.1,1.1h16.9
				C284.2,373.9,284.7,373.5,284.7,372.9z"/>
			<path class="st0" d="M284.7,379.3c0-0.6-0.5-1.1-1.1-1.1h-16.9c-0.6,0-1.1,0.5-1.1,1.1s0.5,1.1,1.1,1.1h16.9
				C284.2,380.4,284.7,379.9,284.7,379.3z"/>
		</g>
	</g>
</g>
</svg>
