<?xml version="1.0" encoding="utf-8"?>
<!-- Generator: Adobe Illustrator 19.0.0, SVG Export Plug-In . SVG Version: 6.00 Build 0)  -->
<svg version="1.1" id="Layer_1" xmlns="http://www.w3.org/2000/svg" xmlns:xlink="http://www.w3.org/1999/xlink" x="0px" y="0px"
	 viewBox="0 0 28 27.4" style="enable-background:new 0 0 28 27.4;" xml:space="preserve">
<style type="text/css">
	.st0{fill:#747474;}
</style>
<path class="st0" d="M27.3,12.7c-0.4-0.4-1-0.6-1.6-0.7c-0.7,0-1.3,0.2-1.7,0.7l-3.1,3.1c-0.1-0.1-0.1-0.2-0.2-0.3
	c-0.4-0.5-0.9-0.7-1.6-0.7h-4.4c-0.8,0-1.6-0.1-2.4-0.3c-2-0.5-3.9-0.1-5.5,1.2c-0.7,0.5-1.1,1.1-1.4,1.5l-0.8-0.8
	c-0.1-0.1-0.2-0.2-0.4-0.2c0,0,0,0,0,0c-0.1,0-0.3,0.1-0.4,0.2l-3.8,3.9C0.1,20.4,0,20.6,0,20.7c0,0.1,0.1,0.3,0.2,0.4l6.4,6.1
	c0.1,0.1,0.2,0.2,0.4,0.2c0.1,0,0.3-0.1,0.4-0.2l3.8-3.9c0.1-0.1,0.2-0.2,0.2-0.4c0-0.1-0.1-0.3-0.2-0.4l-0.3-0.3l0.8-0.1
	c0.5-0.1,0.9-0.1,1.4-0.1h6.6c1.1,0,2-0.2,2.7-0.7c0,0,0,0,0,0c0.3-0.2,0.5-0.4,0.7-0.6l4.5-5.3C28.2,14.6,28.2,13.5,27.3,12.7z
	 M7,26.1l-5.6-5.4l3-3.1L10,23L7,26.1z M26.6,14.8L22.1,20c-0.1,0.2-0.3,0.3-0.5,0.4c-0.5,0.3-1.3,0.5-2.1,0.5h-6.6
	c-0.5,0-1,0-1.5,0.1l-1.6,0.2l-3.5-3.4C6.6,17.6,7,17,7.6,16.5c1.3-1.1,2.8-1.4,4.5-0.9c0.9,0.2,1.8,0.4,2.7,0.4h4.4
	c0.8,0,1,0.7,1,1.1c0,0.3-0.1,0.6-0.3,0.8c-0.2,0.2-0.4,0.3-0.8,0.3h-3.8c-0.3,0-0.6,0.2-0.6,0.6s0.2,0.6,0.6,0.6h3.8
	c0.6,0,1.2-0.2,1.6-0.7c0.3-0.4,0.5-0.9,0.5-1.4l3.6-3.5c0.5-0.5,1.3-0.4,1.8,0C26.8,13.7,27.1,14.2,26.6,14.8z"/>
<path class="st0" d="M13.6,18.4C13.6,18.1,13.3,18,13,18c-0.3,0.1-0.5,0.4-0.4,0.7l0,0c0.1,0.3,0.3,0.4,0.5,0.4c0,0,0.1,0,0.1,0
	C13.5,19.1,13.7,18.8,13.6,18.4L13.6,18.4z"/>
<polyline id="XMLID_1_" class="st0" points="15,8.2 14.1,12.3 15.3,13.4 16.3,12.4 15.4,8.2 "/>
<g>
	<path id="XMLID_4_" class="st0" d="M15.2,0.1c-2.6,0-4.6,2.1-4.6,4.6C10.5,6,11.1,7.2,12,8c0.3,0.3,0.7,0.5,1,0.8
		c0.7,0.3,1.4,0.5,2.1,0.5s1.5-0.2,2.1-0.5c0.4-0.2,0.8-0.4,1-0.8c0.9-0.8,1.4-2,1.4-3.3C19.8,2.2,17.7,0.1,15.2,0.1z M17.2,7.6
		c-0.5,0.4-1.3,0.7-2.1,0.7c-0.8,0-1.5-0.3-2.1-0.7c-0.9-0.7-1.5-1.7-1.5-2.9c0-2,1.6-3.6,3.6-3.6s3.6,1.6,3.6,3.6
		C18.8,5.9,18.2,7,17.2,7.6z"/>
	<path class="st0" d="M15.1,9.4c-0.8,0-1.5-0.2-2.2-0.5l0,0c-0.4-0.2-0.7-0.5-1-0.8l0,0C11,7.2,10.4,6,10.4,4.7
		c0-2.6,2.1-4.7,4.7-4.7c1.3,0,2.5,0.5,3.4,1.4c0.8,0.9,1.3,2,1.2,3.2c0,1.3-0.5,2.5-1.4,3.4c-0.3,0.3-0.7,0.6-1.1,0.8l0,0
		C16.6,9.2,15.9,9.4,15.1,9.4z M13,8.7c0.6,0.3,1.3,0.5,2.1,0.5c0.7,0,1.4-0.2,2.1-0.5c0.4-0.2,0.7-0.4,1-0.7l0,0
		c0.9-0.8,1.4-2,1.4-3.2c0-1.2-0.4-2.2-1.2-3.1c-0.8-0.9-2-1.4-3.2-1.4c-2.5,0-4.5,2-4.5,4.5c0,1.2,0.5,2.4,1.4,3.2
		C12.3,8.2,12.7,8.4,13,8.7z M15.2,8.4c-0.7,0-1.5-0.3-2.1-0.7c-1-0.7-1.6-1.8-1.6-3c0-1,0.4-1.9,1.1-2.6C13.3,1.4,14.2,1,15.2,1
		s1.9,0.4,2.6,1.1c0.7,0.7,1.1,1.6,1.1,2.6c0,1.2-0.6,2.3-1.6,3C16.8,8.1,16,8.4,15.2,8.4z M15.2,1.2c-1.9,0-3.5,1.6-3.5,3.5
		c0,1.2,0.5,2.2,1.5,2.8c0.6,0.4,1.3,0.6,2,0.6c0.8,0,1.5-0.2,2-0.6l0,0c0.9-0.7,1.5-1.7,1.5-2.8C18.6,2.8,17.1,1.2,15.2,1.2z"/>
</g>
<g>
	<path id="XMLID_2_" class="st0" d="M18.3,8c-0.3-0.2-0.7-0.3-1.1-0.4c-0.5,0.4-1.3,0.7-2.1,0.7c-0.8,0-1.5-0.3-2.1-0.7
		C12.7,7.7,12.4,7.8,12,8c-2.6,1.2-4.5,3.8-4.5,6.8c0,0.2,0,0.3,0,0.5h1.1c0-0.2,0-0.3,0-0.5c0-2.8,1.8-5.3,4.4-6.1
		c0.7-0.2,1.4-0.3,2.1-0.3c0.8,0,1.5,0.1,2.1,0.3c2.6,0.9,4.4,3.3,4.4,6.1c0,0.2,0,0.3,0,0.5h1.1c0-0.2,0-0.3,0-0.5
		C22.8,11.8,20.9,9.2,18.3,8z"/>
	<path class="st0" d="M22.8,15.4h-1.1v-0.5c0-2.8-1.8-5.2-4.4-6.1c-0.6-0.2-1.4-0.3-2.1-0.3s-1.5,0.1-2.1,0.3
		c-2.6,0.9-4.4,3.4-4.4,6.1v0.5H7.5v-0.5c0-2.9,1.8-5.6,4.5-6.9c0.3-0.1,0.7-0.3,1.1-0.4l0,0l0,0c0.6,0.4,1.3,0.6,2.1,0.6
		c0.8,0,1.5-0.2,2-0.6l0,0l0,0C17.6,7.7,18,7.8,18.3,8c2.7,1.2,4.5,3.9,4.5,6.9V15.4z M21.7,15.3h1v-0.5c0-2.9-1.7-5.6-4.4-6.8l0,0
		c-0.3-0.2-0.7-0.3-1.1-0.4c-0.5,0.4-1.3,0.6-2.1,0.6c-0.7,0-1.5-0.2-2.1-0.6C12.7,7.8,12.4,7.9,12,8c-2.7,1.2-4.4,3.9-4.4,6.8v0.5
		h1v-0.5c0-1.4,0.4-2.7,1.2-3.8c0.8-1.1,1.9-1.9,3.2-2.3c0.7-0.2,1.4-0.3,2.1-0.3c0.8,0,1.5,0.1,2.1,0.3c2.6,0.9,4.4,3.4,4.4,6.2
		V15.3z"/>
</g>
</svg>
