<?xml version="1.0" encoding="utf-8"?>
<!-- Generator: Adobe Illustrator 19.0.0, SVG Export Plug-In . SVG Version: 6.00 Build 0)  -->
<svg version="1.1" id="Capa_1" xmlns="http://www.w3.org/2000/svg" xmlns:xlink="http://www.w3.org/1999/xlink" x="0px" y="0px"
	 viewBox="-84 217.5 442 359" style="enable-background:new -84 217.5 442 359;" xml:space="preserve">
<style type="text/css">
	.st0{fill:#7A88C2;}
</style>
<path class="st0" d="M357.8,564.4L294.3,265c0,0,0-0.1,0-0.1c0-0.1-0.1-0.3-0.1-0.4c-0.1-0.2-0.1-0.4-0.2-0.6c0-0.1-0.1-0.2-0.1-0.4
	c-0.1-0.2-0.2-0.4-0.3-0.6c-0.1-0.1-0.1-0.2-0.2-0.3c-0.1-0.2-0.2-0.4-0.4-0.6c-0.1-0.1-0.1-0.2-0.2-0.3c-0.1-0.2-0.3-0.4-0.4-0.6
	c0-0.1-0.1-0.1-0.1-0.2c0,0,0,0-0.1-0.1c-0.2-0.2-0.4-0.4-0.6-0.6c-0.1-0.1-0.1-0.1-0.2-0.2c-0.2-0.2-0.5-0.5-0.8-0.7
	c-0.1-0.1-0.2-0.1-0.3-0.2c-0.2-0.1-0.4-0.3-0.6-0.4c-0.1-0.1-0.3-0.2-0.4-0.2c-0.2-0.1-0.3-0.2-0.5-0.3c-0.1-0.1-0.3-0.1-0.4-0.2
	c-0.2-0.1-0.4-0.2-0.5-0.2c-0.1-0.1-0.3-0.1-0.4-0.2c-0.2-0.1-0.4-0.1-0.6-0.2c-0.1,0-0.3-0.1-0.4-0.1c-0.2,0-0.4-0.1-0.7-0.1
	c-0.1,0-0.2,0-0.4-0.1c-0.3,0-0.6,0-0.8,0c-0.1,0-0.1,0-0.2,0h-0.1c0,0,0,0,0,0H177.1c4.1-11.4,15-19.6,27.8-19.6
	c7.1,0,13.9,2.5,19.2,7.1c4.2,3.6,10.5,3.1,14.1-1.1c3.6-4.2,3.1-10.5-1.1-14.1c-9-7.7-20.4-12-32.3-12c-23.9,0-43.9,17-48.5,39.6
	h-115c4.1-11.4,15-19.6,27.8-19.6c7.1,0,13.9,2.5,19.2,7.1c4.2,3.6,10.5,3.1,14.1-1.1c3.6-4.2,3.1-10.5-1.1-14.1
	c-9-7.7-20.4-12-32.3-12c-23.9,0-43.9,17-48.5,39.6h-31.1c-4.7,0-8.8,3.3-9.8,7.9l-17,79.9c0,0,0,0.1,0,0.1l-46.6,219.5
	c-0.6,3,0.1,6,2,8.4c1.9,2.3,4.8,3.7,7.8,3.7h294.9c4.7,0,8.8-3.3,9.8-7.9l53.7-253.4l51.2,241.3h-84.7c-5.5,0-10,4.5-10,10
	c0,5.5,4.5,10,10,10H348c3,0,5.9-1.4,7.8-3.7C357.7,570.5,358.4,567.4,357.8,564.4z M-2.4,277h23c4.6,22.5,24.6,39.6,48.5,39.6
	c5.5,0,10-4.5,10-10s-4.5-10-10-10c-12.8,0-23.7-8.2-27.8-19.6h115c4.6,22.5,24.6,39.6,48.5,39.6c5.5,0,10-4.5,10-10s-4.5-10-10-10
	c-12.8,0-23.7-8.2-27.8-19.6h95L259.4,337H-15.1L-2.4,277z M212.8,556.5H-61.7L-19.3,357h274.5L212.8,556.5z"/>
<g>
	<path class="st0" d="M58.7,497.6c-0.5,0-0.9,0-1.4-0.1c-3.2-0.4-6-2.1-7.8-4.8l-24-35.6c-3.4-5-2.1-11.9,3-15.3
		c5-3.4,11.9-2.1,15.3,3l17,25.2l95.9-85.7c4.5-4,11.5-3.7,15.5,0.9c4,4.5,3.7,11.5-0.9,15.5L66.1,494.8
		C64,496.6,61.4,497.6,58.7,497.6z"/>
</g>
</svg>
