<?xml version="1.0" encoding="utf-8"?>
<!-- Generator: Adobe Illustrator 19.0.0, SVG Export Plug-In . SVG Version: 6.00 Build 0)  -->
<svg version="1.1" id="Capa_1" xmlns="http://www.w3.org/2000/svg" xmlns:xlink="http://www.w3.org/1999/xlink" x="0px" y="0px"
	 viewBox="186 385 28 28" style="enable-background:new 186 385 28 28;" xml:space="preserve">
<style type="text/css">
	.st0{fill:#C9C9D3;}
</style>
<g>
	<g>
		<path class="st0" d="M213.8,411.1l-6.7-6.7c1.7-2,2.7-4.6,2.7-7.5c0-6.6-5.3-11.9-11.9-11.9s-11.9,5.3-11.9,11.9
			c0,6.6,5.3,11.9,11.9,11.9c2.8,0,5.4-1,7.5-2.6l6.7,6.7c0.2,0.2,0.6,0.2,0.9,0l0.9-0.9C214,411.7,214,411.3,213.8,411.1z
			 M197.9,406.3c-5.2,0-9.4-4.2-9.4-9.4s4.2-9.4,9.4-9.4c5.2,0,9.4,4.2,9.4,9.4S203.1,406.3,197.9,406.3z"/>
	</g>
</g>
</svg>
