<?xml version="1.0" encoding="utf-8"?>
<!-- Generator: Adobe Illustrator 19.0.0, SVG Export Plug-In . SVG Version: 6.00 Build 0)  -->
<svg version="1.1" id="Isolation_Mode" xmlns="http://www.w3.org/2000/svg" xmlns:xlink="http://www.w3.org/1999/xlink" x="0px"
	 y="0px" viewBox="195 385 24 24" style="enable-background:new 195 385 24 24;" xml:space="preserve">
<style type="text/css">
	.st0{fill:#4E6EB5;}
</style>
<g>
	<path class="st0" d="M206.8,407.1h-8.1c-1,0-1.9-0.8-1.9-1.9v-7.7c0-1,0.8-1.9,1.9-1.9h13.5c0.7,0,1.5,0.3,1.7,0.7
		c0,0.1,0.4,0.5,1.1,0.4c0.4-0.1,0.7-0.5,0.7-0.8c-0.2-1.3-1.7-2.1-3.4-2.1h-1.1v-3.3c0-3-2.5-5.5-5.6-5.5c-3.1,0-5.6,2.5-5.6,5.5
		v3.3h-1.1c-2.1,0-3.7,1.7-3.7,3.8v7.7c0,2.1,1.7,3.7,3.7,3.7h8c0.5,0,0.9-0.4,1-0.9C207.8,407.6,207.3,407.1,206.8,407.1z
		 M201.7,390.5c0-2,1.7-3.6,3.7-3.6c2.1,0,3.7,1.6,3.7,3.6v3.3h-7.5V390.5L201.7,390.5z"/>
	<circle class="st0" cx="200.3" cy="401.2" r="0.9"/>
	<circle class="st0" cx="203.8" cy="401.2" r="0.9"/>
	<circle class="st0" cx="207" cy="401.2" r="0.9"/>
</g>
<path class="st0" d="M213.4,397.9c-3.1,0-5.6,2.5-5.6,5.6c0,3.1,2.5,5.6,5.6,5.6c3.1,0,5.6-2.5,5.6-5.6
	C219,400.4,216.5,397.9,213.4,397.9z M217,404.2h-2.8v2.8c0,0.2-0.1,0.3-0.2,0.5c-0.1,0.1-0.3,0.2-0.5,0.2c-0.3,0-0.6-0.3-0.6-0.6
	v-2.8h-2.8c-0.3,0-0.6-0.3-0.6-0.6c0-0.3,0.3-0.6,0.6-0.6h2.8v-2.8c0-0.3,0.3-0.6,0.6-0.6c0.3,0,0.6,0.3,0.6,0.6v2.8l3-0.1
	c0.3,0,0.6,0.3,0.6,0.6c0,0.2-0.1,0.3-0.2,0.5C217.3,404.1,217.2,404.2,217,404.2z"/>
</svg>
