<?xml version="1.0" encoding="utf-8"?>
<!-- Generator: Adobe Illustrator 19.0.0, SVG Export Plug-In . SVG Version: 6.00 Build 0)  -->
<svg version="1.1" id="Capa_1" xmlns="http://www.w3.org/2000/svg" xmlns:xlink="http://www.w3.org/1999/xlink" x="0px" y="0px"
	 viewBox="491.5 1.7 19 15.7" style="enable-background:new 491.5 1.7 19 15.7;" xml:space="preserve">
<style type="text/css">
	.st0{fill:#65BC53;}
</style>
<g id="XMLID_31_">
	<g id="XMLID_32_">
		<g id="XMLID_29_">
			<path id="XMLID_15_" class="st0" d="M509,12.1h-1.2v-1.8c0-0.7-0.6-1.2-1.2-1.2h-5.3V6.9h1.2c0.7,0,1.2-0.6,1.2-1.2V3.1
				c0-0.7-0.6-1.2-1.2-1.2h-3.3c-0.7,0-1.2,0.6-1.2,1.2v2.5c0,0.7,0.6,1.2,1.2,1.2h1.2v2.3h-5c-0.7,0-1.2,0.6-1.2,1.2v1.8H493
				c-0.7,0-1.2,0.6-1.2,1.2v2.5c0,0.7,0.6,1.2,1.2,1.2h3.3c0.7,0,1.2-0.6,1.2-1.2v-2.5c0-0.7-0.6-1.2-1.2-1.2H495v-1.8
				c0-0.2,0.2-0.4,0.4-0.4h4.1h0.9h6.1c0.2,0,0.4,0.2,0.4,0.4v1.8h-1.2c-0.7,0-1.2,0.6-1.2,1.2v2.5c0,0.7,0.6,1.2,1.2,1.2h3.3
				c0.7,0,1.2-0.6,1.2-1.2v-2.5C510.3,12.7,509.7,12.1,509,12.1z M496.3,13c0.2,0,0.4,0.2,0.4,0.4v2.5c0,0.2-0.2,0.4-0.4,0.4H493
				c-0.2,0-0.4-0.2-0.4-0.4v-2.5c0-0.2,0.2-0.4,0.4-0.4h1.2h0.8H496.3z M499.1,6c-0.2,0-0.4-0.2-0.4-0.4V3c0-0.2,0.2-0.4,0.4-0.4
				h3.5c0.2,0,0.4,0.2,0.4,0.4v2.6c0,0.2-0.2,0.4-0.4,0.4H499.1z M509,16.3h-3.3c-0.2,0-0.4-0.2-0.4-0.4v-2.5c0-0.2,0.2-0.4,0.4-0.4
				h1.2h0.8h1.2c0.2,0,0.4,0.2,0.4,0.4v2.5h0C509.4,16.1,509.3,16.3,509,16.3z"/>
			<path id="XMLID_20_" class="st0" d="M509,17.3h-3.3c-0.8,0-1.5-0.7-1.5-1.5v-2.5c0-0.8,0.7-1.5,1.5-1.5h1v-1.5
				c0-0.1-0.1-0.2-0.2-0.2h-11.1c-0.1,0-0.2,0.1-0.2,0.2v1.5h1c0.8,0,1.5,0.7,1.5,1.5v2.5c0,0.8-0.7,1.5-1.5,1.5H493
				c-0.8,0-1.5-0.7-1.5-1.5v-2.5c0-0.8,0.7-1.5,1.5-1.5h1v-1.5c0-0.8,0.7-1.5,1.5-1.5h4.8V7.1h-1c-0.8,0-1.5-0.7-1.5-1.5V3.1
				c0-0.8,0.7-1.5,1.5-1.5h3.3c0.8,0,1.5,0.7,1.5,1.5v2.5c0,0.8-0.7,1.5-1.5,1.5h-1v1.8h5c0.8,0,1.5,0.7,1.5,1.5v1.5h1
				c0.8,0,1.5,0.7,1.5,1.5v2.5C510.5,16.7,509.8,17.3,509,17.3z M505.7,12.4c-0.6,0-1,0.5-1,1v2.5c0,0.6,0.5,1,1,1h3.3
				c0.6,0,1-0.5,1-1v-2.5c0-0.6-0.5-1-1-1h-1.5v-2c0-0.6-0.5-1-1-1h-5.5V6.6h1.5c0.6,0,1-0.5,1-1V3.1c0-0.6-0.5-1-1-1h-3.3
				c-0.6,0-1,0.5-1,1v2.5c0,0.6,0.5,1,1,1h1.5v2.8h-5.2c-0.6,0-1,0.5-1,1v2H493c-0.6,0-1,0.5-1,1v2.5c0,0.6,0.5,1,1,1h3.3
				c0.6,0,1-0.5,1-1v-2.5c0-0.6-0.5-1-1-1h-1.5v-2c0-0.4,0.3-0.6,0.6-0.6h11.1c0.4,0,0.6,0.3,0.6,0.6v2H505.7z M509,16.5h-3.3
				c-0.4,0-0.6-0.3-0.6-0.6v-2.5c0-0.4,0.3-0.6,0.6-0.6h3.3c0.4,0,0.6,0.3,0.6,0.6v2.5C509.7,16.2,509.4,16.5,509,16.5z M505.7,13.2
				c-0.1,0-0.2,0.1-0.2,0.2v2.5c0,0.1,0.1,0.2,0.2,0.2h3.3c0.1,0,0.2-0.1,0.2-0.2v-2.5c0-0.1-0.1-0.2-0.2-0.2H505.7z M496.3,16.5
				H493c-0.4,0-0.6-0.3-0.6-0.6v-2.5c0-0.4,0.3-0.6,0.6-0.6h3.3c0.4,0,0.6,0.3,0.6,0.6v2.5C496.9,16.2,496.6,16.5,496.3,16.5z
				 M493,13.2c-0.1,0-0.2,0.1-0.2,0.2v2.5c0,0.1,0.1,0.2,0.2,0.2h3.3c0.1,0,0.2-0.1,0.2-0.2v-2.5c0-0.1-0.1-0.2-0.2-0.2H493z
				 M502.7,6.2h-3.5c-0.3,0-0.6-0.3-0.6-0.6V3c0-0.3,0.3-0.6,0.6-0.6h3.5c0.3,0,0.6,0.3,0.6,0.6v2.6C503.2,6,503,6.2,502.7,6.2z
				 M499.1,2.9C499,2.9,499,2.9,499,3v2.6c0,0.1,0.1,0.1,0.1,0.1h3.5c0.1,0,0.1-0.1,0.1-0.1V3c0-0.1-0.1-0.1-0.1-0.1H499.1z"/>
		</g>
	</g>
</g>
</svg>
