<?xml version="1.0" encoding="utf-8"?>
<!-- Generator: Adobe Illustrator 19.0.0, SVG Export Plug-In . SVG Version: 6.00 Build 0)  -->
<svg version="1.1" id="Capa_1" xmlns="http://www.w3.org/2000/svg" xmlns:xlink="http://www.w3.org/1999/xlink" x="0px" y="0px"
	 viewBox="132 372.7 38.7 44.9" style="enable-background:new 132 372.7 38.7 44.9;" xml:space="preserve">
<style type="text/css">
	.st0{fill:#A9B0E4;}
</style>
<g>
	<path class="st0" d="M160.4,372.7h-18.2c-1,0-1.7,0.7-1.7,1.7v19.3c0,1,0.7,1.7,1.7,1.7h4.4v-3.1h-3.1v-16.8h15.4v16.8h-2.8v3.1
		h4.2c1,0,1.7-0.7,1.7-1.7v-19.3C162.1,373.5,161.4,372.7,160.4,372.7z"/>
	<path class="st0" d="M157.9,410.7h-5.1v-6.6h0.1c0,0,0,0,0,0h-3.3c0,0,0,0,0,0h0.2v6.6h-5.1c-2,0-3.5,1.6-3.5,3.5v1.1
		c0,0.9,0.7,1.5,1.5,1.5s1.5-0.7,1.5-1.5v-1.1c0-0.3,0.3-0.5,0.5-0.5h5.1v1.6c0,0.9,0.7,1.5,1.5,1.5s1.5-0.7,1.5-1.5v-1.6h5.1
		c0.3,0,0.5,0.3,0.5,0.5v1.1c0,0.9,0.7,1.5,1.5,1.5c0.9,0,1.5-0.7,1.5-1.5v-1.1C161.4,412.3,159.9,410.7,157.9,410.7z"/>
	<path class="st0" d="M165,401.8v-1.3c0-1-0.7-1.7-1.7-1.7h-23.9c-1,0-1.7,0.7-1.7,1.7v1.7l0,1.8v-0.4c0,1,0.7,1.7,1.7,1.7l1.3,0
		v-3.7h21.5v3.7l1.1,0c0.9,0,1.6-0.8,1.7-1.6C164.9,403.7,164.9,401.9,165,401.8z"/>
</g>
<path class="st0" d="M134.3,399c-0.8,0-1.4-0.6-1.4-1.4V393c0-0.3,0.1-0.7,0.4-0.9l2.8-2.9c0.5-0.6,1.4-0.6,1.9-0.1
	c0.6,0.5,0.6,1.4,0.1,1.9l-2.5,2.5v4.1C135.7,398.4,135.1,399,134.3,399z"/>
<path class="st0" d="M168.3,398.9c0.8,0,1.4-0.6,1.4-1.4v-4.7c0-0.3-0.1-0.7-0.4-0.9l-2.8-2.9c-0.5-0.6-1.4-0.6-1.9-0.1
	c-0.6,0.5-0.6,1.4-0.1,1.9l2.5,2.5v4.1C166.9,398.3,167.5,398.9,168.3,398.9z"/>
</svg>
