<?xml version="1.0" encoding="utf-8"?>
<!-- Generator: Adobe Illustrator 19.0.0, SVG Export Plug-In . SVG Version: 6.00 Build 0)  -->
<svg version="1.1" id="Capa_1" xmlns="http://www.w3.org/2000/svg" xmlns:xlink="http://www.w3.org/1999/xlink" x="0px" y="0px"
	 viewBox="-60 196.1 490.1 401.7" style="enable-background:new -60 196.1 490.1 401.7;" xml:space="preserve">
<style type="text/css">
	.st0{fill:#A2AAE3;}
</style>
<g>
	<g>
		<path class="st0" d="M325.9,196.1H44.3c-28.2,0-51.1,22.9-51.1,51.1v133.1L-39.1,348c-4.8-4.8-12.5-4.8-17.3,0s-4.8,12.5,0,17.3
			l53.3,53.3c2.4,2.4,5.5,3.6,8.7,3.6c3.2,0,6.3-1.2,8.7-3.6l53.3-53.3c4.8-4.8,4.8-12.5,0-17.3s-12.5-4.8-17.3,0l-32.4,32.4V247.2
			c0-14.7,11.9-26.6,26.6-26.6H326c14.7,0,26.6,11.9,26.6,26.6v34c0,6.8,5.5,12.3,12.3,12.3s12.3-5.5,12.3-12.3v-34
			C376.9,219.1,354,196.1,325.9,196.1z"/>
		<path class="st0" d="M356,375.4l-53.3,53.3c-4.8,4.8-4.8,12.5,0,17.3c2.4,2.4,5.5,3.6,8.7,3.6s6.3-1.2,8.7-3.6l32.4-32.4v133.1
			c0,14.7-11.9,26.6-26.6,26.6H44.3c-14.7,0-26.6-1.9-26.6-16.6v-44c0-6.8-5.5-12.3-12.3-12.3s-12.3,5.5-12.3,12.3v44
			c0,28.2,22.9,41.1,51.1,41.1h281.5c28.2,0,51.1-22.9,51.1-51.1V413.6l32.4,32.4c4.8,4.8,12.5,4.8,17.3,0c4.8-4.8,4.8-12.5,0-17.3
			l-53.3-53.3C368.8,370.8,360.6,370.8,356,375.4z"/>
		<path class="st0" d="M92.7,501.9c26.4-21.6,55-36,60.4-38.7c4.4-2.2,7.3-6.7,7.3-11.7V409c0-3.7-1.8-7.2-4.9-9.2
			c-2.4-1.6-3.9-4.4-3.9-7.3v-44c0-15.8,12.8-28.6,28.5-28.6h9.4c15.7,0,28.5,12.7,28.5,28.5v44.1c0,2.9-1.5,5.6-3.9,7.3
			c-3.1,2.1-4.9,5.5-4.9,9.2v42.4c0,4.9,2.8,9.5,7.3,11.7c5.5,2.7,18.5,10.7,40.5,30.7c12,15,33.3,4.1,19-11
			c-17-18-44.7-37.1-44.7-37.1v-31.6c5.6-5.7,8.8-13.4,8.8-21.6v-44c0-28-22.7-50.7-50.7-50.7h-9.4c-28,0-50.7,22.7-50.7,50.7v44
			c0,8.2,3.2,15.9,8.8,21.6v31.6c-11.2,5.9-36.3,19.8-59.6,39C78.4,484.8,70.4,504.9,92.7,501.9z"/>
	</g>
</g>
</svg>
