<?xml version="1.0" encoding="utf-8"?>
<!-- Generator: Adobe Illustrator 19.0.0, SVG Export Plug-In . SVG Version: 6.00 Build 0)  -->
<svg version="1.1" id="Isolation_Mode" xmlns="http://www.w3.org/2000/svg" xmlns:xlink="http://www.w3.org/1999/xlink" x="0px"
	 y="0px" viewBox="0 0 140 72.8" style="enable-background:new 0 0 140 72.8;" xml:space="preserve">
<style type="text/css">
	.st0{fill:#231F20;}
	.st1{fill:url(#XMLID_72_);}
	.st2{fill:url(#XMLID_73_);}
	.st3{fill:url(#XMLID_74_);}
	.st4{fill:url(#XMLID_75_);}
	.st5{fill:url(#XMLID_76_);}
	.st6{fill:url(#XMLID_77_);}
	.st7{fill:url(#XMLID_78_);}
	.st8{fill:url(#XMLID_79_);}
	.st9{fill:url(#XMLID_80_);}
	.st10{fill:url(#XMLID_81_);}
	.st11{fill:url(#XMLID_82_);}
	.st12{fill:url(#XMLID_83_);}
	.st13{fill:url(#XMLID_84_);}
	.st14{fill:url(#XMLID_85_);}
	.st15{fill:url(#XMLID_86_);}
	.st16{fill:url(#XMLID_87_);}
	.st17{fill:url(#XMLID_88_);}
	.st18{fill:url(#XMLID_89_);}
	.st19{fill:url(#XMLID_90_);}
	.st20{fill:url(#XMLID_91_);}
	.st21{fill:url(#XMLID_92_);}
	.st22{fill:url(#XMLID_93_);}
	.st23{fill:url(#XMLID_94_);}
	.st24{fill:url(#XMLID_95_);}
	.st25{fill:url(#XMLID_96_);}
	.st26{fill:url(#XMLID_97_);}
	.st27{fill:url(#XMLID_98_);}
	.st28{fill:url(#XMLID_99_);}
	.st29{fill:url(#XMLID_100_);}
	.st30{fill:url(#XMLID_101_);}
	.st31{fill:url(#XMLID_102_);}
	.st32{fill:url(#XMLID_103_);}
	.st33{fill:url(#XMLID_104_);}
	.st34{fill:url(#XMLID_105_);}
	.st35{fill:url(#XMLID_106_);}
	.st36{fill:url(#XMLID_107_);}
	.st37{fill:url(#XMLID_108_);}
	.st38{fill:url(#XMLID_109_);}
	.st39{fill:url(#XMLID_110_);}
	.st40{fill:none;stroke:#525352;stroke-width:0.25;stroke-miterlimit:10;}
	.st41{fill:#757576;}
</style>
<g id="XMLID_562_">
	<g id="XMLID_561_">
		<g id="XMLID_984_">
			<g id="XMLID_1097_">
				<g id="XMLID_1324_">
					<path id="XMLID_1347_" class="st0" d="M2.4,72.3H0.2V48.4h2.3L2.4,72.3L2.4,72.3z"/>
					<path id="XMLID_1345_" class="st0" d="M19.8,72.3v-9.8c0-3.9-1.4-5.8-4.2-5.8c-0.8,0-1.4,0.2-2.1,0.5c-0.6,0.3-1.2,0.7-1.6,1.2
						s-0.9,1.2-1.1,1.9s-0.4,1.5-0.4,2.3v9.6H8.3V55.2h2.1v3h0.1c1.2-2.3,3.2-3.3,5.8-3.3c1.9,0,3.3,0.6,4.3,1.8
						c1,1.2,1.5,3,1.5,5.3v10.4H19.8z"/>
					<path id="XMLID_1343_" class="st0" d="M35.1,49.1c-0.5-0.3-1.1-0.5-1.9-0.5c-2,0-3,1.3-3,3.9v2.7h4.3v1.9h-4.2v15.2h-2.1V57.2
						h-3v-1.9h3v-2.9c0-0.9,0.1-1.6,0.3-2.3c0.2-0.7,0.5-1.3,0.9-1.8c0.4-0.5,0.9-0.9,1.6-1.2c0.6-0.2,1.4-0.4,2.2-0.4
						c0.8,0,1.4,0.1,1.9,0.3L35.1,49.1L35.1,49.1z"/>
					<path id="XMLID_1340_" class="st0" d="M44.2,72.7c-1.2,0-2.4-0.2-3.4-0.6c-1-0.4-1.9-1-2.6-1.8c-0.7-0.8-1.2-1.7-1.6-2.8
						C36.1,66.4,36,65.3,36,64c0-1.4,0.2-2.7,0.6-3.8c0.4-1.1,0.9-2.1,1.7-2.9c0.8-0.8,1.6-1.4,2.6-1.8c1-0.4,2.2-0.6,3.5-0.6
						c1.2,0,2.3,0.2,3.3,0.6c1,0.4,1.9,1,2.5,1.8c0.7,0.8,1.2,1.7,1.6,2.8c0.4,1.1,0.5,2.3,0.5,3.7c0,1.3-0.2,2.6-0.5,3.7
						c-0.4,1.1-0.9,2-1.6,2.8c-0.7,0.8-1.6,1.4-2.6,1.9C46.6,72.6,45.5,72.7,44.2,72.7z M44.3,56.7c-0.9,0-1.8,0.2-2.6,0.5
						c-0.8,0.3-1.4,0.8-1.9,1.4c-0.5,0.6-0.9,1.4-1.2,2.3c-0.3,0.9-0.5,1.9-0.5,3s0.2,2,0.5,2.9c0.3,0.9,0.7,1.6,1.2,2.2
						c0.5,0.6,1.2,1.1,1.9,1.4c0.8,0.3,1.6,0.5,2.6,0.5s1.8-0.2,2.6-0.5c0.7-0.3,1.3-0.8,1.9-1.4s0.9-1.3,1.2-2.3
						c0.2-0.9,0.4-1.9,0.4-3c0-2.3-0.5-4-1.6-5.3C47.7,57.3,46.3,56.7,44.3,56.7z"/>
					<path id="XMLID_1338_" class="st0" d="M65.4,72.3h-2.2l-8.7-23.9H57l6.8,19.1c0.2,0.4,0.2,0.7,0.3,1.1c0.1,0.4,0.2,0.7,0.2,1.1
						h0.1c0.1-0.3,0.2-0.6,0.2-1s0.2-0.8,0.4-1.2l7.1-19.1h2.4L65.4,72.3z"/>
					<path id="XMLID_1335_" class="st0" d="M85,72.3v-3H85c-0.5,1.1-1.3,1.9-2.3,2.6s-2,0.9-3.3,0.9c-0.9,0-1.6-0.2-2.3-0.4
						c-0.7-0.2-1.2-0.5-1.7-1c-0.5-0.5-0.9-0.9-1.1-1.6s-0.4-1.2-0.4-2c0-1.6,0.5-2.8,1.4-3.7c0.9-0.9,2.4-1.5,4.4-1.8l5.2-0.8
						c0-3.3-1.2-4.9-3.8-4.9c-2,0-3.8,0.7-5.5,2.2v-2.3c0.4-0.2,0.8-0.5,1.2-0.7c0.5-0.2,0.9-0.4,1.4-0.5c0.5-0.2,1-0.2,1.6-0.4
						c0.5-0.1,1-0.2,1.6-0.2c1.9,0,3.3,0.5,4.3,1.6c1,1.1,1.5,2.6,1.5,4.7v11.3H85z M80.7,64.1c-0.8,0.1-1.4,0.2-1.9,0.4
						c-0.5,0.2-1,0.4-1.3,0.7c-0.4,0.3-0.6,0.6-0.8,1.1c-0.2,0.4-0.2,0.9-0.2,1.6c0,0.5,0.1,0.9,0.2,1.2s0.4,0.7,0.7,1
						c0.3,0.3,0.7,0.5,1.1,0.6c0.5,0.2,0.9,0.2,1.5,0.2c0.8,0,1.5-0.2,2.1-0.5c0.6-0.3,1.2-0.7,1.6-1.2c0.5-0.5,0.9-1.1,1.1-1.9
						c0.2-0.7,0.4-1.5,0.4-2.3v-1.7L80.7,64.1z"/>
					<path id="XMLID_1333_" class="st0" d="M99.7,72.2c-0.7,0.4-1.6,0.5-2.4,0.5c-2.7,0-4.1-1.6-4.1-4.7V57.2h-3v-1.9h3V51l2.1-0.7
						v5h4.4v1.9h-4.4v10.5c0,1.2,0.2,2,0.5,2.5c0.4,0.5,1,0.8,1.9,0.8c0.7,0,1.3-0.2,1.9-0.6V72.2z"/>
					<path id="XMLID_1330_" class="st0" d="M104.2,51c-0.4,0-0.8-0.2-1.1-0.5c-0.3-0.3-0.5-0.6-0.5-1.1c0-0.5,0.2-0.8,0.5-1.1
						c0.3-0.3,0.6-0.4,1.1-0.4c0.2,0,0.4,0,0.6,0.1c0.2,0.1,0.4,0.2,0.5,0.3c0.2,0.2,0.2,0.3,0.3,0.5c0.1,0.2,0.2,0.4,0.2,0.6
						c0,0.2,0,0.4-0.2,0.6c-0.1,0.2-0.2,0.4-0.3,0.5c-0.2,0.2-0.3,0.2-0.5,0.3C104.7,50.9,104.5,51,104.2,51z M103.2,72.3V55.2h2.1
						v17.1H103.2z"/>
					<path id="XMLID_1328_" class="st0" d="M116.9,72.3h-2l-6.5-17.1h2.3l4.7,13c0.3,0.8,0.5,1.5,0.5,2.1h0.1c0.2-0.8,0.3-1.5,0.5-2
						l4.9-13.1h2.3L116.9,72.3z"/>
					<path id="XMLID_1325_" class="st0" d="M127.6,64.2c0,1,0.2,2,0.4,2.8c0.2,0.9,0.6,1.6,1.2,2.1c0.5,0.5,1.1,1,1.9,1.3
						c0.7,0.3,1.6,0.5,2.4,0.5c1.9,0,3.7-0.7,5.4-2V71c-1.6,1.2-3.7,1.8-5.9,1.8c-1.2,0-2.2-0.2-3.1-0.6c-0.9-0.4-1.7-1-2.4-1.7
						c-0.6-0.8-1.2-1.7-1.6-2.8c-0.4-1.1-0.5-2.4-0.5-3.8c0-1.2,0.2-2.5,0.6-3.6c0.4-1.1,0.9-2,1.6-2.8c0.7-0.8,1.5-1.4,2.5-1.9
						c0.9-0.5,1.9-0.7,3.1-0.7c1.1,0,2.1,0.2,3,0.5s1.6,0.9,2.1,1.6c0.5,0.7,1,1.6,1.3,2.6c0.3,1,0.5,2.2,0.5,3.4v1.1L127.6,64.2
						L127.6,64.2z M137.7,62.3c0-1.8-0.5-3.2-1.2-4.1c-0.8-1-1.9-1.5-3.4-1.5c-0.7,0-1.4,0.2-2,0.4c-0.6,0.2-1.2,0.6-1.6,1.1
						c-0.5,0.5-0.9,1.1-1.2,1.8c-0.3,0.7-0.5,1.5-0.6,2.3H137.7z"/>
				</g>
			</g>
			<g id="XMLID_1032_">
				
					<linearGradient id="XMLID_72_" gradientUnits="userSpaceOnUse" x1="1.1272" y1="1.91" x2="1.1272" y2="29.6208" gradientTransform="matrix(1 0 0 -1 0 77.0693)">
					<stop  offset="0" style="stop-color:#9E4B23"/>
					<stop  offset="9.359607e-002" style="stop-color:#FFC642"/>
					<stop  offset="0.3425" style="stop-color:#9E4B23"/>
					<stop  offset="0.7734" style="stop-color:#FBB041"/>
					<stop  offset="0.9484" style="stop-color:#9E4B23"/>
					<stop  offset="0.9704" style="stop-color:#FFC642"/>
				</linearGradient>
				<path id="XMLID_1095_" class="st1" d="M2.3,72.3H0V48.4h2.3V72.3z"/>
				
					<linearGradient id="XMLID_73_" gradientUnits="userSpaceOnUse" x1="15.0028" y1="1.91" x2="15.0028" y2="29.6208" gradientTransform="matrix(1 0 0 -1 0 77.0693)">
					<stop  offset="0" style="stop-color:#9E4B23"/>
					<stop  offset="9.359607e-002" style="stop-color:#FFC642"/>
					<stop  offset="0.3425" style="stop-color:#9E4B23"/>
					<stop  offset="0.7734" style="stop-color:#FBB041"/>
					<stop  offset="0.9484" style="stop-color:#9E4B23"/>
					<stop  offset="0.9704" style="stop-color:#FFC642"/>
				</linearGradient>
				<path id="XMLID_1093_" class="st2" d="M19.7,72.3v-9.8c0-3.9-1.4-5.8-4.2-5.8c-0.8,0-1.4,0.2-2.1,0.5c-0.6,0.3-1.2,0.7-1.6,1.2
					s-0.9,1.2-1.1,1.9c-0.2,0.7-0.4,1.5-0.4,2.3v9.6H8.2V55.2h2.1v3h0.1c1.2-2.3,3.2-3.3,5.8-3.3c1.9,0,3.3,0.6,4.3,1.8
					s1.5,3,1.5,5.3v10.4H19.7z"/>
				
					<linearGradient id="XMLID_74_" gradientUnits="userSpaceOnUse" x1="29.9278" y1="1.91" x2="29.9278" y2="29.6208" gradientTransform="matrix(1 0 0 -1 0 77.0693)">
					<stop  offset="0" style="stop-color:#9E4B23"/>
					<stop  offset="9.359607e-002" style="stop-color:#FFC642"/>
					<stop  offset="0.3425" style="stop-color:#9E4B23"/>
					<stop  offset="0.7734" style="stop-color:#FBB041"/>
					<stop  offset="0.9484" style="stop-color:#9E4B23"/>
					<stop  offset="0.9704" style="stop-color:#FFC642"/>
				</linearGradient>
				<path id="XMLID_1091_" class="st3" d="M34.9,49.1c-0.5-0.3-1.1-0.5-1.9-0.5c-2,0-3,1.3-3,3.9v2.7h4.3v1.9H30v15.2h-2.1V57.2h-3
					v-1.9h3v-2.9c0-0.9,0.1-1.6,0.3-2.3c0.2-0.7,0.5-1.3,0.9-1.8c0.4-0.5,0.9-0.9,1.6-1.2c0.6-0.2,1.4-0.4,2.2-0.4
					c0.8,0,1.4,0.1,1.9,0.3v2.1H34.9z"/>
				
					<linearGradient id="XMLID_75_" gradientUnits="userSpaceOnUse" x1="44.0366" y1="1.91" x2="44.0366" y2="29.6208" gradientTransform="matrix(1 0 0 -1 0 77.0693)">
					<stop  offset="0" style="stop-color:#9E4B23"/>
					<stop  offset="9.359607e-002" style="stop-color:#FFC642"/>
					<stop  offset="0.3425" style="stop-color:#9E4B23"/>
					<stop  offset="0.7734" style="stop-color:#FBB041"/>
					<stop  offset="0.9484" style="stop-color:#9E4B23"/>
					<stop  offset="0.9704" style="stop-color:#FFC642"/>
				</linearGradient>
				<path id="XMLID_1088_" class="st4" d="M44,72.7c-1.2,0-2.4-0.2-3.4-0.6c-1-0.4-1.9-1-2.6-1.8c-0.7-0.8-1.2-1.7-1.6-2.8
					s-0.5-2.3-0.5-3.6c0-1.4,0.2-2.7,0.6-3.8c0.4-1.1,0.9-2.1,1.7-2.9c0.8-0.8,1.6-1.4,2.6-1.8c1-0.4,2.2-0.6,3.5-0.6
					c1.2,0,2.3,0.2,3.3,0.6c1,0.4,1.9,1,2.5,1.8c0.7,0.8,1.2,1.7,1.6,2.8c0.4,1.1,0.5,2.3,0.5,3.7c0,1.3-0.2,2.6-0.5,3.7
					c-0.4,1.1-0.9,2-1.6,2.8s-1.6,1.4-2.6,1.9C46.4,72.6,45.2,72.7,44,72.7z M44.2,56.7c-0.9,0-1.8,0.2-2.6,0.5s-1.4,0.8-1.9,1.4
					c-0.5,0.6-0.9,1.4-1.2,2.3c-0.3,0.9-0.5,1.9-0.5,3s0.2,2,0.5,2.9c0.3,0.9,0.7,1.6,1.2,2.2s1.2,1.1,1.9,1.4s1.6,0.5,2.6,0.5
					s1.8-0.2,2.6-0.5c0.7-0.3,1.3-0.8,1.9-1.4s0.9-1.3,1.2-2.3c0.2-0.9,0.4-1.9,0.4-3c0-2.3-0.5-4-1.6-5.3
					C47.5,57.3,46,56.7,44.2,56.7z"/>
				
					<linearGradient id="XMLID_76_" gradientUnits="userSpaceOnUse" x1="64.2476" y1="1.91" x2="64.2476" y2="29.6208" gradientTransform="matrix(1 0 0 -1 0 77.0693)">
					<stop  offset="0" style="stop-color:#9E4B23"/>
					<stop  offset="9.359607e-002" style="stop-color:#FFC642"/>
					<stop  offset="0.3425" style="stop-color:#9E4B23"/>
					<stop  offset="0.7734" style="stop-color:#FBB041"/>
					<stop  offset="0.9484" style="stop-color:#9E4B23"/>
					<stop  offset="0.9704" style="stop-color:#FFC642"/>
				</linearGradient>
				<path id="XMLID_1071_" class="st5" d="M65.1,72.3H63l-8.7-23.9h2.5l6.8,19.1c0.2,0.4,0.2,0.7,0.3,1.1s0.2,0.7,0.2,1.1h0.1
					c0.1-0.3,0.2-0.6,0.2-1s0.2-0.8,0.4-1.2l7.1-19.1h2.4L65.1,72.3z"/>
				
					<linearGradient id="XMLID_77_" gradientUnits="userSpaceOnUse" x1="80.4164" y1="1.91" x2="80.4164" y2="29.6208" gradientTransform="matrix(1 0 0 -1 0 77.0693)">
					<stop  offset="0" style="stop-color:#9E4B23"/>
					<stop  offset="9.359607e-002" style="stop-color:#FFC642"/>
					<stop  offset="0.3425" style="stop-color:#9E4B23"/>
					<stop  offset="0.7734" style="stop-color:#FBB041"/>
					<stop  offset="0.9484" style="stop-color:#9E4B23"/>
					<stop  offset="0.9704" style="stop-color:#FFC642"/>
				</linearGradient>
				<path id="XMLID_1068_" class="st6" d="M84.9,72.3v-3h-0.1c-0.5,1.1-1.3,1.9-2.3,2.6c-0.9,0.6-2,0.9-3.3,0.9
					c-0.9,0-1.6-0.2-2.3-0.4c-0.7-0.2-1.2-0.5-1.7-1c-0.5-0.5-0.9-0.9-1.1-1.6s-0.4-1.2-0.4-2c0-1.6,0.5-2.8,1.4-3.7
					c0.9-0.9,2.4-1.5,4.4-1.8l5.2-0.8c0-3.3-1.2-4.9-3.8-4.9c-2,0-3.8,0.7-5.5,2.2v-2.3c0.4-0.2,0.8-0.5,1.2-0.7
					c0.5-0.2,0.9-0.4,1.4-0.5c0.5-0.2,1-0.2,1.6-0.4c0.5-0.1,1-0.2,1.6-0.2c1.9,0,3.3,0.5,4.3,1.6c1,1.1,1.5,2.6,1.5,4.7v11.3H84.9z
					 M80.5,64.1c-0.8,0.1-1.4,0.2-1.9,0.4c-0.5,0.2-1,0.4-1.3,0.7c-0.4,0.3-0.6,0.6-0.8,1.1c-0.2,0.4-0.2,0.9-0.2,1.6
					c0,0.5,0.1,0.9,0.2,1.2c0.2,0.4,0.4,0.7,0.7,1c0.3,0.3,0.7,0.5,1.1,0.6c0.5,0.2,0.9,0.2,1.5,0.2c0.8,0,1.5-0.2,2.1-0.5
					c0.6-0.3,1.2-0.7,1.6-1.2c0.5-0.5,0.9-1.1,1.1-1.9c0.2-0.7,0.4-1.5,0.4-2.3v-1.7L80.5,64.1z"/>
				
					<linearGradient id="XMLID_78_" gradientUnits="userSpaceOnUse" x1="94.7196" y1="1.91" x2="94.7196" y2="29.6208" gradientTransform="matrix(1 0 0 -1 0 77.0693)">
					<stop  offset="0" style="stop-color:#9E4B23"/>
					<stop  offset="9.359607e-002" style="stop-color:#FFC642"/>
					<stop  offset="0.3425" style="stop-color:#9E4B23"/>
					<stop  offset="0.7734" style="stop-color:#FBB041"/>
					<stop  offset="0.9484" style="stop-color:#9E4B23"/>
					<stop  offset="0.9704" style="stop-color:#FFC642"/>
				</linearGradient>
				<path id="XMLID_1066_" class="st7" d="M99.5,72.2c-0.7,0.4-1.6,0.5-2.4,0.5c-2.7,0-4.1-1.6-4.1-4.7V57.2h-3v-1.9h3V51l2.1-0.7v5
					h4.4v1.9h-4.4v10.5c0,1.2,0.2,2,0.5,2.5c0.4,0.5,1,0.8,1.9,0.8c0.7,0,1.3-0.2,1.9-0.6V72.2z"/>
				
					<linearGradient id="XMLID_79_" gradientUnits="userSpaceOnUse" x1="104.0866" y1="1.91" x2="104.0866" y2="29.6208" gradientTransform="matrix(1 0 0 -1 0 77.0693)">
					<stop  offset="0" style="stop-color:#9E4B23"/>
					<stop  offset="9.359607e-002" style="stop-color:#FFC642"/>
					<stop  offset="0.3425" style="stop-color:#9E4B23"/>
					<stop  offset="0.7734" style="stop-color:#FBB041"/>
					<stop  offset="0.9484" style="stop-color:#9E4B23"/>
					<stop  offset="0.9704" style="stop-color:#FFC642"/>
				</linearGradient>
				<path id="XMLID_1063_" class="st8" d="M104.1,51c-0.4,0-0.8-0.2-1.1-0.5c-0.3-0.3-0.5-0.6-0.5-1.1c0-0.5,0.2-0.8,0.5-1.1
					c0.3-0.3,0.6-0.4,1.1-0.4c0.2,0,0.4,0,0.6,0.1c0.2,0.1,0.4,0.2,0.5,0.3c0.2,0.2,0.2,0.3,0.3,0.5c0.1,0.2,0.2,0.4,0.2,0.6
					c0,0.2,0,0.4-0.1,0.6c-0.1,0.2-0.2,0.4-0.3,0.5c-0.2,0.1-0.3,0.2-0.5,0.3C104.5,50.9,104.3,51,104.1,51z M103,72.3V55.2h2.1
					v17.1H103z"/>
				
					<linearGradient id="XMLID_80_" gradientUnits="userSpaceOnUse" x1="115.9023" y1="1.91" x2="115.9023" y2="29.6208" gradientTransform="matrix(1 0 0 -1 0 77.0693)">
					<stop  offset="0" style="stop-color:#9E4B23"/>
					<stop  offset="9.359607e-002" style="stop-color:#FFC642"/>
					<stop  offset="0.3425" style="stop-color:#9E4B23"/>
					<stop  offset="0.7734" style="stop-color:#FBB041"/>
					<stop  offset="0.9484" style="stop-color:#9E4B23"/>
					<stop  offset="0.9704" style="stop-color:#FFC642"/>
				</linearGradient>
				<path id="XMLID_1061_" class="st9" d="M116.8,72.3h-2l-6.5-17.1h2.3l4.7,13c0.3,0.8,0.5,1.5,0.5,2.1h0.1c0.2-0.8,0.3-1.5,0.5-2
					l4.9-13.1h2.3L116.8,72.3z"/>
				
					<linearGradient id="XMLID_81_" gradientUnits="userSpaceOnUse" x1="132.4986" y1="1.91" x2="132.4986" y2="29.6208" gradientTransform="matrix(1 0 0 -1 0 77.0693)">
					<stop  offset="0" style="stop-color:#9E4B23"/>
					<stop  offset="9.359607e-002" style="stop-color:#FFC642"/>
					<stop  offset="0.3425" style="stop-color:#9E4B23"/>
					<stop  offset="0.7734" style="stop-color:#FBB041"/>
					<stop  offset="0.9484" style="stop-color:#9E4B23"/>
					<stop  offset="0.9704" style="stop-color:#FFC642"/>
				</linearGradient>
				<path id="XMLID_1058_" class="st10" d="M127.4,64.2c0,1,0.2,2,0.4,2.8c0.2,0.9,0.6,1.6,1.2,2.1c0.5,0.5,1.1,1,1.9,1.3
					c0.7,0.3,1.6,0.5,2.4,0.5c1.9,0,3.7-0.7,5.4-2V71c-1.6,1.2-3.7,1.8-5.9,1.8c-1.2,0-2.2-0.2-3.1-0.6s-1.7-1-2.4-1.7
					c-0.6-0.8-1.2-1.7-1.6-2.8c-0.4-1.1-0.5-2.4-0.5-3.8c0-1.2,0.2-2.5,0.6-3.6c0.4-1.1,0.9-2,1.6-2.8c0.7-0.8,1.5-1.4,2.5-1.9
					c0.9-0.5,1.9-0.7,3.1-0.7c1.1,0,2.1,0.2,3,0.5c0.9,0.4,1.6,0.9,2.1,1.6c0.5,0.7,1,1.6,1.3,2.6c0.3,1,0.5,2.2,0.5,3.4v1.1
					L127.4,64.2L127.4,64.2z M137.5,62.3c0-1.8-0.5-3.2-1.2-4.1c-0.8-1-1.9-1.5-3.4-1.5c-0.7,0-1.4,0.2-2,0.4
					c-0.6,0.2-1.2,0.6-1.6,1.1c-0.5,0.5-0.9,1.1-1.2,1.8c-0.3,0.7-0.5,1.5-0.6,2.3H137.5z"/>
			</g>
			<g id="XMLID_985_">
				
					<linearGradient id="XMLID_82_" gradientUnits="userSpaceOnUse" x1="90.7584" y1="25.186" x2="103.3432" y2="62.8206" gradientTransform="matrix(1 0 0 -1 0 77.0693)">
					<stop  offset="0.5744" style="stop-color:#010101;stop-opacity:0.1"/>
					<stop  offset="1" style="stop-color:#010101;stop-opacity:0.3"/>
				</linearGradient>
				<path id="XMLID_1028_" class="st11" d="M129.2,16.7c-2.2-2.4-5.6-4.6-7.9-5.9l0,0l3.1-5.4l0,0l-1.6-2.2l0,0l-0.3-0.3l0,0
					c-0.3-0.1-1.3-0.2-4.9,0C111.3,3.2,106.7,6,106.7,6c-9.3-1-13.9,1.6-13.9,1.6c-7.9-3-15-3.9-15-3.9C78.3,9.6,80,15.9,80,15.9
					c-10,10.7-6.8,22.2-6.6,23.3l0,0l1.6,2.3l0,0c-0.2-3.3,2.2-8.7,2.2-8.7c1.9-3.8,4-6,5.1-7c2.2,7.4,6.3,18.5,6.5,18.9l1.6,2.6
					c-3.7-17.5,6.8-29.4,6.8-29.4l0,0c1.9-0.4,4-0.9,8.9-0.3c5.5,0.6,10,2.4,10.5,2.6l-1.4-2l-0.8-1.2c-0.3-0.2-7.7-3.9-11.1-5.1
					c2.3-1.9,4.8-3.3,4.8-3.3l0,0c0,0,3.8,0.3,9.6,2.3l0,0l-2.1,3.6c-0.2,0-0.1,0.1-0.1,0.1l1.9,2.6l0,0c0,0,3.7-0.3,6.7,0.2
					c3,0.5,5,1.2,6.5,1.9l0,0l-0.4-0.7l0,0L129.2,16.7L129.2,16.7z M94.4,9.9l4.4,2.1l0,0c-0.6,0.5-1.4,1.2-2,2
					c-0.2,0.3-0.9,0.9-1.1,1.2c-0.5,0.1-7.9,1.8-13.2,6.4l-0.8,0.4l-0.9-2.6C80.8,19.5,87.4,11.9,94.4,9.9L94.4,9.9z"/>
				<g id="XMLID_986_">
					
						<linearGradient id="XMLID_83_" gradientUnits="userSpaceOnUse" x1="79.0718" y1="64.7707" x2="82.2999" y2="49.8256" gradientTransform="matrix(1 0 0 -1 0 77.0693)">
						<stop  offset="3.211009e-002" style="stop-color:#994E23"/>
						<stop  offset="1" style="stop-color:#FBB041"/>
					</linearGradient>
					<polygon id="XMLID_1027_" class="st12" points="79.1,14.8 80.8,17.2 82,22.6 80.5,22.4 					"/>
					
						<linearGradient id="XMLID_84_" gradientUnits="userSpaceOnUse" x1="79.8615" y1="54.5049" x2="72.9585" y2="34.1795" gradientTransform="matrix(1 0 0 -1 0 77.0693)">
						<stop  offset="3.211009e-002" style="stop-color:#994E23"/>
						<stop  offset="1" style="stop-color:#FBB041"/>
					</linearGradient>
					<path id="XMLID_1026_" class="st13" d="M72.5,38.1c0,0,0.1-10.2,7.9-16.7l0.9,0.4l1.2,2.2c0,0-3.3,2.1-6.1,7.8
						c0,0-2.3,5.4-2.2,8.7L72.5,38.1z"/>
					<g id="XMLID_1014_">
						
							<linearGradient id="XMLID_85_" gradientUnits="userSpaceOnUse" x1="79.0718" y1="64.7707" x2="82.2999" y2="49.8256" gradientTransform="matrix(1 0 0 -1 0 77.0693)">
							<stop  offset="3.211009e-002" style="stop-color:#994E23"/>
							<stop  offset="1" style="stop-color:#FBB041"/>
						</linearGradient>
						<polygon id="XMLID_1025_" class="st14" points="79.1,14.8 80.8,17.2 82,22.6 80.5,22.4 						"/>
						
							<linearGradient id="XMLID_86_" gradientUnits="userSpaceOnUse" x1="94.1981" y1="58.3004" x2="113.6217" y2="80.5225" gradientTransform="matrix(1 0 0 -1 0 77.0693)">
							<stop  offset="3.211009e-002" style="stop-color:#994E23"/>
							<stop  offset="1" style="stop-color:#FBB041"/>
						</linearGradient>
						<path id="XMLID_1024_" class="st15" d="M101.3,11.9c0,0,2.4-2.1,4.4-3.3l1.7-1.2l-1.6-2.6c0,0-0.3,0.1-0.7,0.3
							c-1.2,0.7-3.8,2.3-5.6,4C97.1,11.3,99,9.8,99,9.8l1.8,2.3L101.3,11.9z"/>
						
							<linearGradient id="XMLID_87_" gradientUnits="userSpaceOnUse" x1="92.2959" y1="69.7642" x2="74.1456" y2="58.1742" gradientTransform="matrix(1 0 0 -1 0 77.0693)">
							<stop  offset="3.211009e-002" style="stop-color:#994E23"/>
							<stop  offset="1" style="stop-color:#FBB041"/>
						</linearGradient>
						<path id="XMLID_1023_" class="st16" d="M79.1,14.8l1.7,2.4c0,0,5.7-6.5,12.7-8.5l-1.6-2.2C91.9,6.6,84.4,7.8,79.1,14.8z"/>
						
							<linearGradient id="XMLID_88_" gradientUnits="userSpaceOnUse" x1="79.8723" y1="54.5893" x2="72.9384" y2="34.1731" gradientTransform="matrix(1 0 0 -1 0 77.0693)">
							<stop  offset="3.211009e-002" style="stop-color:#994E23"/>
							<stop  offset="1" style="stop-color:#FBB041"/>
						</linearGradient>
						<path id="XMLID_1022_" class="st17" d="M72.5,38.1c0,0,0-5.3,3-10.7c1.2-2.1,2.7-4.3,4.9-6.1l0.9,0.4l1.2,2.3
							c0,0-3.3,2.1-6.1,7.8c0,0-2.3,5.4-2.2,8.7L72.5,38.1z"/>
						
							<linearGradient id="XMLID_89_" gradientUnits="userSpaceOnUse" x1="87.9173" y1="46.8519" x2="100.4521" y2="46.8519" gradientTransform="matrix(1 0 0 -1 0 77.0693)">
							<stop  offset="3.211009e-002" style="stop-color:#994E23"/>
							<stop  offset="1" style="stop-color:#FBB041"/>
						</linearGradient>
						<path id="XMLID_1021_" class="st18" d="M94.5,14.3l1.9,2.6c0,0-10.4,11.7-6.8,29.3l-1.6-2.5c0,0-2.7-9.4,1.3-20.2
							C89.4,23.4,92,16.7,94.5,14.3z"/>
						
							<linearGradient id="XMLID_90_" gradientUnits="userSpaceOnUse" x1="90.6068" y1="63.9588" x2="85.2571" y2="65.1933" gradientTransform="matrix(1 0 0 -1 0 77.0693)">
							<stop  offset="3.211009e-002" style="stop-color:#9F5825"/>
							<stop  offset="1" style="stop-color:#FBB041"/>
						</linearGradient>
						<path id="XMLID_1020_" class="st19" d="M94.5,14.3l1.9,2.6c0,0,4.1-0.9,8.9-0.3c5.4,0.6,10.6,2.6,10.6,2.6l-1.9-2.6
							c0,0-4.7-2-12-2.7C97.1,13.3,94.5,14.3,94.5,14.3z"/>
						
							<linearGradient id="XMLID_91_" gradientUnits="userSpaceOnUse" x1="95.5973" y1="72.0434" x2="96.0408" y2="58.404" gradientTransform="matrix(1 0 0 -1 0 77.0693)">
							<stop  offset="3.211009e-002" style="stop-color:#994E23"/>
							<stop  offset="1" style="stop-color:#FBB041"/>
						</linearGradient>
						<polygon id="XMLID_1019_" class="st20" points="91.9,6.6 99.3,9.2 99.5,10.7 99.6,11.6 93.5,8.8 						"/>
						
							<linearGradient id="XMLID_92_" gradientUnits="userSpaceOnUse" x1="103.9656" y1="72.3099" x2="153.4742" y2="55.9525" gradientTransform="matrix(1 0 0 -1 0 77.0693)">
							<stop  offset="3.211009e-002" style="stop-color:#994E23"/>
							<stop  offset="1" style="stop-color:#FBB041"/>
						</linearGradient>
						<path id="XMLID_1018_" class="st21" d="M105.8,4.9c0,0,7.9,0.9,12,3.3l0.8,2.1c0,0-3.2-1.5-6.6-2.2c-3.4-0.6-4.6-0.8-4.6-0.8
							L105.8,4.9z"/>
						
							<linearGradient id="XMLID_93_" gradientUnits="userSpaceOnUse" x1="128.4261" y1="60.4108" x2="104.558" y2="65.6783" gradientTransform="matrix(1 0 0 -1 0 77.0693)">
							<stop  offset="3.211009e-002" style="stop-color:#994E23"/>
							<stop  offset="1" style="stop-color:#FBB041"/>
						</linearGradient>
						<path id="XMLID_1017_" class="st22" d="M114.9,13.3l1.9,2.6c0,0,3.7-0.3,6.7,0.2c3,0.5,5.1,1.2,6.7,1.9l-1.8-2.5
							c0,0-3.3-1.9-9-2.2C114.3,13,114.9,13.3,114.9,13.3z"/>
						
							<linearGradient id="XMLID_94_" gradientUnits="userSpaceOnUse" x1="118.0454" y1="65.9108" x2="125.1847" y2="79.5403" gradientTransform="matrix(1 0 0 -1 0 77.0693)">
							<stop  offset="3.211009e-002" style="stop-color:#994E23"/>
							<stop  offset="1" style="stop-color:#FBB041"/>
						</linearGradient>
						<polygon id="XMLID_1016_" class="st23" points="121.7,1.8 123.5,4.2 120.3,10 117.8,8.2 						"/>
						
							<linearGradient id="XMLID_95_" gradientUnits="userSpaceOnUse" x1="105.4858" y1="71.9602" x2="105.4858" y2="71.9602" gradientTransform="matrix(1 0 0 -1 0 77.0693)">
							<stop  offset="3.211009e-002" style="stop-color:#A86633"/>
							<stop  offset="1" style="stop-color:#FBB041"/>
						</linearGradient>
						<path id="XMLID_1015_" class="st24" d="M105.5,5.1"/>
					</g>
					
						<linearGradient id="XMLID_96_" gradientUnits="userSpaceOnUse" x1="94.1981" y1="58.3004" x2="113.6217" y2="80.5225" gradientTransform="matrix(1 0 0 -1 0 77.0693)">
						<stop  offset="3.211009e-002" style="stop-color:#994E23"/>
						<stop  offset="1" style="stop-color:#FBB041"/>
					</linearGradient>
					<path id="XMLID_1013_" class="st25" d="M101.3,11.9c0,0,2.4-2.1,4.4-3.3l1.7-1.2l-1.6-2.6c0,0-0.3,0.1-0.7,0.3
						c-1.2,0.7-3.8,2.3-5.6,4C97.1,11.3,99,9.8,99,9.8l1.8,2.3L101.3,11.9z"/>
					
						<linearGradient id="XMLID_97_" gradientUnits="userSpaceOnUse" x1="92.2959" y1="69.7642" x2="74.1456" y2="58.1742" gradientTransform="matrix(1 0 0 -1 0 77.0693)">
						<stop  offset="3.211009e-002" style="stop-color:#994E23"/>
						<stop  offset="1" style="stop-color:#FBB041"/>
					</linearGradient>
					<path id="XMLID_1012_" class="st26" d="M79.1,14.8l1.7,2.4c0,0,5.7-6.5,12.7-8.5l-1.6-2.2C91.9,6.6,84.4,7.8,79.1,14.8z"/>
					
						<linearGradient id="XMLID_98_" gradientUnits="userSpaceOnUse" x1="87.9173" y1="46.8519" x2="100.4521" y2="46.8519" gradientTransform="matrix(1 0 0 -1 0 77.0693)">
						<stop  offset="3.211009e-002" style="stop-color:#994E23"/>
						<stop  offset="1" style="stop-color:#FBB041"/>
					</linearGradient>
					<path id="XMLID_1011_" class="st27" d="M94.5,14.3l1.9,2.6c0,0-10.4,11.7-6.8,29.3l-1.6-2.5c0,0-2.7-9.4,1.3-20.2
						C89.4,23.4,92,16.7,94.5,14.3z"/>
					
						<linearGradient id="XMLID_99_" gradientUnits="userSpaceOnUse" x1="90.5959" y1="63.9116" x2="85.2462" y2="65.1462" gradientTransform="matrix(1 0 0 -1 0 77.0693)">
						<stop  offset="3.211009e-002" style="stop-color:#9F5825"/>
						<stop  offset="1" style="stop-color:#FBB041"/>
					</linearGradient>
					<path id="XMLID_1000_" class="st28" d="M94.5,14.3l1.9,2.6c0,0,4.1-0.9,8.9-0.3c5.4,0.6,10.6,2.6,10.6,2.6l-1.6-2.4
						c0,0-5-2.2-12.4-2.9C97.1,13.3,94.5,14.3,94.5,14.3z"/>
					
						<linearGradient id="XMLID_100_" gradientUnits="userSpaceOnUse" x1="95.5973" y1="72.0434" x2="96.0408" y2="58.404" gradientTransform="matrix(1 0 0 -1 0 77.0693)">
						<stop  offset="3.211009e-002" style="stop-color:#994E23"/>
						<stop  offset="1" style="stop-color:#FBB041"/>
					</linearGradient>
					<polygon id="XMLID_999_" class="st29" points="91.9,6.6 99.3,9.2 99.5,10.7 99.6,11.6 93.5,8.8 					"/>
					
						<linearGradient id="XMLID_101_" gradientUnits="userSpaceOnUse" x1="103.9656" y1="72.3099" x2="153.4742" y2="55.9525" gradientTransform="matrix(1 0 0 -1 0 77.0693)">
						<stop  offset="3.211009e-002" style="stop-color:#994E23"/>
						<stop  offset="1" style="stop-color:#FBB041"/>
					</linearGradient>
					<path id="XMLID_998_" class="st30" d="M105.8,4.9c0,0,7.9,0.9,12,3.3l0.8,2.1c0,0-3.2-1.5-6.6-2.2c-3.4-0.6-4.6-0.8-4.6-0.8
						L105.8,4.9z"/>
					
						<linearGradient id="XMLID_102_" gradientUnits="userSpaceOnUse" x1="128.4261" y1="60.4108" x2="104.558" y2="65.6783" gradientTransform="matrix(1 0 0 -1 0 77.0693)">
						<stop  offset="3.211009e-002" style="stop-color:#994E23"/>
						<stop  offset="1" style="stop-color:#FBB041"/>
					</linearGradient>
					<path id="XMLID_997_" class="st31" d="M114.9,13.3l1.9,2.6c0,0,3.7-0.3,6.7,0.2c3,0.5,5.1,1.2,6.7,1.9l-1.8-2.5
						c0,0-3.3-1.9-9-2.2C114.3,13,114.9,13.3,114.9,13.3z"/>
					
						<linearGradient id="XMLID_103_" gradientUnits="userSpaceOnUse" x1="118.0454" y1="65.9108" x2="125.1847" y2="79.5403" gradientTransform="matrix(1 0 0 -1 0 77.0693)">
						<stop  offset="3.211009e-002" style="stop-color:#994E23"/>
						<stop  offset="1" style="stop-color:#FBB041"/>
					</linearGradient>
					<polygon id="XMLID_996_" class="st32" points="121.7,1.8 123.5,4.2 120.3,10 117.8,8.2 					"/>
					
						<linearGradient id="XMLID_104_" gradientUnits="userSpaceOnUse" x1="105.4858" y1="71.9602" x2="105.4858" y2="71.9602" gradientTransform="matrix(1 0 0 -1 0 77.0693)">
						<stop  offset="3.211009e-002" style="stop-color:#A86633"/>
						<stop  offset="1" style="stop-color:#FBB041"/>
					</linearGradient>
					<path id="XMLID_995_" class="st33" d="M105.5,5.1"/>
					<g id="XMLID_987_">
						
							<linearGradient id="XMLID_105_" gradientUnits="userSpaceOnUse" x1="112.3556" y1="40.7768" x2="93.6853" y2="4.4189" gradientTransform="matrix(0.9998 -1.852511e-002 -1.852511e-002 -0.9998 -19.2014 34.0023)">
							<stop  offset="0" style="stop-color:#FBDA75"/>
							<stop  offset="0.2306" style="stop-color:#FBDA75"/>
							<stop  offset="0.5636" style="stop-color:#F5D36C"/>
							<stop  offset="0.6182" style="stop-color:#FBDA75"/>
							<stop  offset="0.7636" style="stop-color:#DA9B2D"/>
							<stop  offset="0.8788" style="stop-color:#DDB059"/>
							<stop  offset="1" style="stop-color:#9E6133"/>
						</linearGradient>
						<path id="XMLID_994_" class="st34" d="M79.1,14.8c0.2,1,1.2,4.8,1.5,6.5c0,0-7.7,6-8.1,16.7C72.2,37,69.2,25.5,79.1,14.8z"/>
						
							<linearGradient id="XMLID_106_" gradientUnits="userSpaceOnUse" x1="110.8827" y1="99.1908" x2="66.9562" y2="54.8294" gradientTransform="matrix(1 0 0 -1 0 77.0693)">
							<stop  offset="0" style="stop-color:#FBDA75"/>
							<stop  offset="0.2306" style="stop-color:#FBDA75"/>
							<stop  offset="0.5636" style="stop-color:#F5D36C"/>
							<stop  offset="0.6182" style="stop-color:#FBDA75"/>
							<stop  offset="0.7636" style="stop-color:#DA9B2D"/>
							<stop  offset="0.8788" style="stop-color:#DDB059"/>
							<stop  offset="1" style="stop-color:#9E6133"/>
						</linearGradient>
						<path id="XMLID_993_" class="st35" d="M79.1,14.8c0,0-1.6-6.3-2.2-12.1c0,0,7.1,0.9,15,3.9C84.3,8.8,79.1,14.8,79.1,14.8z"/>
						
							<linearGradient id="XMLID_107_" gradientUnits="userSpaceOnUse" x1="122.1975" y1="35.912" x2="103.518" y2="-0.4638" gradientTransform="matrix(0.9998 -1.852511e-002 -1.852511e-002 -0.9998 -19.2014 34.0023)">
							<stop  offset="0" style="stop-color:#FBDA75"/>
							<stop  offset="0.2306" style="stop-color:#FBDA75"/>
							<stop  offset="0.5636" style="stop-color:#F5D36C"/>
							<stop  offset="0.6182" style="stop-color:#FBDA75"/>
							<stop  offset="0.7636" style="stop-color:#DA9B2D"/>
							<stop  offset="0.8788" style="stop-color:#DDB059"/>
							<stop  offset="1" style="stop-color:#9E6133"/>
						</linearGradient>
						<path id="XMLID_992_" class="st36" d="M80.6,21.4c5.6-5.4,14.1-7.2,14.1-7.2s-9.9,11.5-6.7,29.5C87.8,43,82.1,28,80.6,21.4z"
							/>
						
							<linearGradient id="XMLID_108_" gradientUnits="userSpaceOnUse" x1="138.2367" y1="48.3722" x2="109.589" y2="15.9926" gradientTransform="matrix(0.9998 -1.852511e-002 -1.852511e-002 -0.9998 -19.2014 34.0023)">
							<stop  offset="0" style="stop-color:#FBDA75"/>
							<stop  offset="0.2306" style="stop-color:#FBDA75"/>
							<stop  offset="0.5636" style="stop-color:#F5D36C"/>
							<stop  offset="0.6182" style="stop-color:#FBDA75"/>
							<stop  offset="0.7636" style="stop-color:#DA9B2D"/>
							<stop  offset="0.8788" style="stop-color:#DDB059"/>
							<stop  offset="1" style="stop-color:#9E6133"/>
						</linearGradient>
						<path id="XMLID_991_" class="st37" d="M99.3,9.6c-1.2-0.5-7.5-3.1-7.5-3.1s4.6-2.6,13.9-1.6C105.8,4.9,102,6.9,99.3,9.6z"/>
						
							<linearGradient id="XMLID_109_" gradientUnits="userSpaceOnUse" x1="145.7806" y1="39.1463" x2="112.4202" y2="4.03" gradientTransform="matrix(0.9998 -1.852511e-002 -1.852511e-002 -0.9998 -19.2014 34.0023)">
							<stop  offset="0" style="stop-color:#FBDA75"/>
							<stop  offset="0.2306" style="stop-color:#FBDA75"/>
							<stop  offset="0.5636" style="stop-color:#F5D36C"/>
							<stop  offset="0.6182" style="stop-color:#FBDA75"/>
							<stop  offset="0.7636" style="stop-color:#DA9B2D"/>
							<stop  offset="0.8788" style="stop-color:#DDB059"/>
							<stop  offset="1" style="stop-color:#9E6133"/>
						</linearGradient>
						<path id="XMLID_989_" class="st38" d="M114.3,16.7c-0.3-0.2-11.3-4.4-19.7-2.4c0.2-0.3,0.9-1.1,1.2-1.4
							c1.5-1.7,3.5-3.2,3.5-3.2S110.1,12.9,114.3,16.7z"/>
						
							<linearGradient id="XMLID_110_" gradientUnits="userSpaceOnUse" x1="127.2021" y1="79.3248" x2="111.3819" y2="59.8791" gradientTransform="matrix(1 0 0 -1 0 77.0693)">
							<stop  offset="0" style="stop-color:#FBDA75"/>
							<stop  offset="0.2306" style="stop-color:#FBDA75"/>
							<stop  offset="0.5636" style="stop-color:#F5D36C"/>
							<stop  offset="0.6182" style="stop-color:#FBDA75"/>
							<stop  offset="0.7636" style="stop-color:#DA9B2D"/>
							<stop  offset="0.8788" style="stop-color:#DDB059"/>
							<stop  offset="1" style="stop-color:#9E6133"/>
						</linearGradient>
						<path id="XMLID_988_" class="st39" d="M105.8,4.9c0,0,4.6-2.9,10.9-3.2c4.5-0.2,5.1,0.1,5.1,0.1l-3.9,6.5
							c0,0,6.9,3.3,10.5,7.2c0,0-5.1-2.7-13.4-2.2l2.9-5.1C117.8,8.3,112.9,5.9,105.8,4.9z"/>
					</g>
				</g>
			</g>
		</g>
	</g>
	<path id="XMLID_3_" class="st40" d="M64,16.4"/>
	<g id="XMLID_47_">
		<path id="XMLID_48_" class="st41" d="M1.8,6.3v3.1h-1V1.6h2.5c0.7,0,1.3,0.2,1.7,0.7c0.4,0.4,0.6,1,0.6,1.7c0,0.8-0.2,1.3-0.6,1.7
			c-0.4,0.4-1,0.6-1.7,0.6H1.8z M1.8,5.5h1.5c0.4,0,0.8-0.1,1-0.4C4.6,4.9,4.7,4.5,4.7,4c0-0.5-0.1-0.8-0.4-1.1
			c-0.2-0.3-0.6-0.4-1-0.4H1.8V5.5z"/>
		<path id="XMLID_51_" class="st41" d="M12,6.2c0,1.1-0.2,1.9-0.7,2.5s-1.1,0.9-1.9,0.9C8.6,9.5,8,9.2,7.5,8.7
			C7,8.1,6.8,7.3,6.8,6.3V4.8c0-1,0.2-1.9,0.7-2.5c0.5-0.6,1.1-0.9,1.9-0.9c0.8,0,1.5,0.3,1.9,0.9C11.8,2.9,12,3.7,12,4.8V6.2z
			 M11,4.8C11,4,10.9,3.4,10.6,3C10.4,2.6,10,2.4,9.4,2.4C8.9,2.4,8.4,2.6,8.2,3C7.9,3.4,7.7,4,7.7,4.8v1.4C7.7,7,7.9,7.6,8.2,8
			c0.3,0.4,0.7,0.6,1.2,0.6s1-0.2,1.2-0.6s0.4-1,0.4-1.8V4.8z"/>
		<path id="XMLID_54_" class="st41" d="M15,6.9l0.1,0.9L15.3,7l1.3-5.5h0.8L18.6,7l0.2,0.8l0.1-0.9l1-5.3h1l-1.6,7.8h-0.9L17,3.7
			L17,3.2l-0.1,0.5l-1.4,5.7h-0.9l-1.6-7.8h1L15,6.9z"/>
		<path id="XMLID_56_" class="st41" d="M25.7,5.8h-2.8v2.8h3.2v0.8h-4.2V1.6h4.2v0.8h-3.2V5h2.8V5.8z"/>
		<path id="XMLID_58_" class="st41" d="M29.8,6.2h-1.4v3.2h-1V1.6h2.2c0.8,0,1.3,0.2,1.7,0.6c0.4,0.4,0.6,1,0.6,1.8
			c0,0.5-0.1,0.9-0.3,1.3c-0.2,0.4-0.5,0.6-0.9,0.8l1.5,3.3v0.1h-1.1L29.8,6.2z M28.4,5.4h1.2c0.4,0,0.7-0.1,1-0.4
			c0.2-0.3,0.4-0.6,0.4-1.1c0-1-0.5-1.5-1.4-1.5h-1.2V5.4z"/>
		<path id="XMLID_61_" class="st41" d="M37,5.8h-2.8v2.8h3.2v0.8h-4.2V1.6h4.2v0.8h-3.2V5H37V5.8z"/>
		<path id="XMLID_63_" class="st41" d="M38.7,9.4V1.6h1.9c0.9,0,1.6,0.3,2.1,0.9c0.5,0.6,0.8,1.4,0.8,2.4v1.3c0,1-0.3,1.8-0.8,2.4
			c-0.5,0.6-1.3,0.8-2.2,0.8H38.7z M39.7,2.4v6.1h0.8c0.7,0,1.2-0.2,1.5-0.6c0.3-0.4,0.5-1,0.5-1.8V4.8C42.5,4,42.3,3.4,42,3
			c-0.3-0.4-0.8-0.6-1.4-0.6H39.7z"/>
		<path id="XMLID_66_" class="st41" d="M47.5,9.4V1.6h2.2c0.7,0,1.2,0.2,1.6,0.5c0.4,0.3,0.5,0.9,0.5,1.6c0,0.4-0.1,0.7-0.3,1
			s-0.4,0.5-0.7,0.6c0.4,0.1,0.6,0.3,0.9,0.7C51.9,6.3,52,6.7,52,7.2c0,0.7-0.2,1.3-0.6,1.7c-0.4,0.4-0.9,0.6-1.6,0.6H47.5z
			 M48.5,4.9h1.3c0.3,0,0.6-0.1,0.8-0.3c0.2-0.2,0.3-0.5,0.3-0.9c0-0.4-0.1-0.7-0.3-0.9c-0.2-0.2-0.5-0.3-0.9-0.3h-1.2V4.9z
			 M48.5,5.8v2.8h1.3c0.4,0,0.7-0.1,0.9-0.4C50.9,8,51,7.6,51,7.2c0-0.9-0.4-1.4-1.2-1.4H48.5z"/>
		<path id="XMLID_70_" class="st41" d="M55.2,5.5l1.6-3.9h1.1l-2.2,4.9v2.9h-1V6.5l-2.2-4.9h1.1L55.2,5.5z"/>
	</g>
</g>
</svg>
