<?xml version="1.0" encoding="utf-8"?>
<!-- Generator: Adobe Illustrator 19.0.0, SVG Export Plug-In . SVG Version: 6.00 Build 0)  -->
<svg version="1.1" id="Capa_1" xmlns="http://www.w3.org/2000/svg" xmlns:xlink="http://www.w3.org/1999/xlink" x="0px" y="0px"
	 viewBox="-49 141 512 512" style="enable-background:new -49 141 512 512;" xml:space="preserve">
<style type="text/css">
	.st0{fill:url(#SVGID_1_);}
</style>
<linearGradient id="SVGID_1_" gradientUnits="userSpaceOnUse" x1="205.8983" y1="574.9008" x2="205.8983" y2="111.2275" gradientTransform="matrix(1 0 0 -1 0 796)">
	<stop  offset="0" style="stop-color:#FFFFFF"/>
	<stop  offset="1" style="stop-color:#C0CBDE"/>
</linearGradient>
<path class="st0" d="M452.2,496.1c0.1-0.1,0.3-0.3,0.4-0.4c0,0,0-0.1,0.1-0.1c0.1-0.1,0.2-0.3,0.4-0.5c0,0,0,0,0-0.1
	c0.1-0.2,0.2-0.4,0.3-0.5c0,0,0-0.1,0.1-0.1c0.1-0.2,0.2-0.3,0.3-0.5c0-0.1,0.1-0.1,0.1-0.2c0.1-0.1,0.1-0.3,0.2-0.4
	c0-0.1,0.1-0.2,0.1-0.3c0-0.1,0.1-0.2,0.1-0.4c0-0.2,0.1-0.4,0.1-0.5V492c0.2-1.2,0.1-2.4-0.4-3.6L444,461c-0.7-1.9-2.1-3.3-3.7-4.1
	l0,0c-0.1-0.1-0.2-0.1-0.3-0.1c-0.1,0-0.2-0.1-0.3-0.1h-0.1c-1.5-0.5-3.2-0.5-4.8,0l-23.8,8.7l-50.6-139.1l0,0l-19.9-54.7
	c-1-2.9-3.8-4.8-6.8-4.8c-0.8,0-1.7,0.1-2.5,0.4c-3.8,1.4-5.7,5.6-4.4,9.3l17.4,47.9l-93.5,34l0,0l0,0l-57,20.7l-38.2-104.9
	l50.2-18.3l10.8,29.6c1,2.9,3.8,4.8,6.8,4.8c0.9,0,1.7-0.1,2.5-0.4l36.5-13.3c1.8-0.7,3.3-2,4.1-3.8c0.6-1.3,0.8-2.7,0.6-4.1l0,0
	c0-0.2-0.1-0.4-0.1-0.6c0-0.1,0-0.1,0-0.2c-0.1-0.2-0.1-0.5-0.2-0.7l-10.8-29.6l50.2-18.3l10.8,29.6c1,2.9,3.8,4.8,6.8,4.8
	c0.8,0,1.7-0.1,2.5-0.4c3.8-1.4,5.7-5.6,4.3-9.3l-13.3-36.5c-0.9-2.5-3.1-4.3-5.7-4.7c-0.4-0.1-0.7-0.1-1.1-0.1
	c-0.8,0-1.7,0.1-2.5,0.4L244,226.4l0,0c0,0,0,0-0.1,0l-36.4,13.2c0,0,0,0-0.1,0h-0.1L143.6,263c-1.8,0.7-3.3,2-4.1,3.8
	s-0.9,3.7-0.2,5.6L182.5,391L224,505c-5.3-1.6-10.8-2.5-16.4-2.6l-105.2-289c-6.9-18.9-27.8-28.6-46.7-21.8l0,0l-93.4,33.7l0,0l0,0
	c-0.2,0.1-0.3,0.1-0.5,0.2c-0.1,0-0.1,0-0.2,0.1c-0.2,0.1-0.3,0.2-0.5,0.2c-0.1,0-0.1,0.1-0.2,0.1c-0.1,0.1-0.3,0.2-0.4,0.3
	c-0.1,0-0.1,0.1-0.2,0.1c-0.1,0.1-0.2,0.2-0.4,0.3c-0.1,0.1-0.1,0.1-0.2,0.2c-0.1,0.1-0.2,0.2-0.3,0.3s-0.1,0.1-0.2,0.2
	c-0.1,0.1-0.2,0.2-0.3,0.3s-0.1,0.1-0.2,0.2c-0.1,0.1-0.2,0.2-0.2,0.4c0,0.1-0.1,0.2-0.2,0.2c-0.1,0.1-0.1,0.2-0.2,0.4
	c0,0.1-0.1,0.2-0.1,0.3c-0.1,0.1-0.1,0.2-0.2,0.4c0,0.1-0.1,0.2-0.1,0.3s-0.1,0.2-0.1,0.4c0,0.1-0.1,0.2-0.1,0.3s-0.1,0.2-0.1,0.4
	c0,0.1,0,0.2-0.1,0.3c0,0.1,0,0.3,0,0.4c0,0.1,0,0.2,0,0.3s0,0.3,0,0.4c0,0.1,0,0.2,0,0.3s0,0.3,0,0.4c0,0.1,0,0.2,0,0.3
	s0.1,0.3,0.1,0.4c0,0.1,0,0.2,0.1,0.3c0,0.1,0.1,0.3,0.1,0.4c0,0.1,0.1,0.2,0.1,0.3l0,0l0,0l10,27.4c0.1,0.2,0.2,0.4,0.3,0.6
	c0.1,0.2,0.1,0.3,0.2,0.5s0.3,0.4,0.4,0.6c0.1,0.1,0.2,0.3,0.2,0.4c0.2,0.2,0.3,0.4,0.5,0.6c0.1,0.1,0.2,0.2,0.2,0.3
	c0.2,0.2,0.4,0.3,0.6,0.5c0.1,0.1,0.1,0.1,0.2,0.2c0.2,0.2,0.5,0.3,0.7,0.4c0.1,0,0.1,0.1,0.2,0.1c0.3,0.1,0.5,0.2,0.8,0.3
	c0.1,0,0.2,0.1,0.2,0.1c0.3,0.1,0.6,0.1,0.8,0.2c0.1,0,0.2,0,0.2,0.1c0.4,0.1,0.7,0.1,1.1,0.1c0.2,0,0.4,0,0.6,0h0.1
	c0.2,0,0.3,0,0.5-0.1c0.1,0,0.2,0,0.2,0c0.1,0,0.3-0.1,0.4-0.1s0.3-0.1,0.4-0.1s0.1,0,0.2-0.1l0,0l0,0l0,0l86.6-31.2L166,517.6
	c-18.3,16-25.9,42.3-17.1,66.5c8.7,23.9,31.6,39.9,57,39.9c7.1,0,14-1.2,20.7-3.7c15.2-5.5,27.4-16.7,34.2-31.4
	c3.6-7.8,5.5-16.1,5.7-24.5L449.2,498l0,0l0,0c0,0,0.1,0,0.1-0.1c0.2-0.1,0.4-0.1,0.5-0.2c0.1,0,0.1-0.1,0.2-0.1
	c0.1-0.1,0.3-0.1,0.4-0.2c0.1,0,0.1-0.1,0.2-0.2s0.3-0.2,0.4-0.3l0.1-0.1C451.9,496.4,452,496.3,452.2,496.1L452.2,496.1z
	 M263.4,542.2c-0.8-2.3-1.8-4.5-2.9-6.7L433,472.8l5,13.7l-172.5,62.7C264.9,546.8,264.2,544.5,263.4,542.2z M270.8,392.3l-8.3-22.8
	l22.8-8.3l8.3,22.8L270.8,392.3z M250.4,265.4l-22.8,8.3l-8.3-22.8l22.8-8.3L250.4,265.4z M198.6,392.7l50.2-18.3l10.8,29.6
	c1,2.9,3.8,4.8,6.8,4.8c0.8,0,1.7-0.2,2.5-0.4l36.5-13.3c3.8-1.4,5.7-5.6,4.3-9.3L299,356.2l50.2-18.3l48.2,132.3L252,523.1
	c-2.7-3.1-5.8-5.9-9-8.4L198.6,392.7z M75,223.4c0-0.1-0.1-0.2-0.1-0.3s-0.1-0.2-0.1-0.3s-0.1-0.2-0.2-0.3s-0.1-0.2-0.2-0.4
	c0-0.1-0.1-0.2-0.2-0.2c-0.1-0.1-0.2-0.3-0.3-0.4c0-0.1-0.1-0.1-0.1-0.2c-0.1-0.1-0.2-0.3-0.3-0.4l-0.1-0.1
	c-0.1-0.1-0.2-0.2-0.4-0.4l-0.1-0.1c-0.1-0.1-0.3-0.2-0.4-0.3c0,0,0,0-0.1,0c-0.2-0.1-0.3-0.2-0.5-0.3l0,0c-1-0.6-2.1-0.9-3.3-1l0,0
	c-0.2,0-0.5,0-0.7,0h-0.1c-0.2,0-0.4,0-0.6,0.1c-0.1,0-0.2,0-0.3,0.1c-0.1,0-0.3,0.1-0.4,0.1c-0.2,0-0.3,0.1-0.5,0.1
	c-0.1,0-0.1,0-0.2,0.1l0,0l0,0l0,0l-86.6,31.2l-5-13.7l86.6-31.2l0,0l0,0c11.3-4.1,23.9,1.7,28,13.1l103.9,285.5
	c-2.4,0.6-4.7,1.2-7,2.1c-2.3,0.8-4.5,1.8-6.7,2.9L75,223.4z M248.1,582.4c-5.2,11.2-14.4,19.6-26,23.8c-5.1,1.9-10.4,2.8-15.8,2.8
	c-19.3,0-36.7-12.2-43.3-30.4c-8.7-23.9,3.7-50.4,27.6-59.1c5.1-1.9,10.4-2.8,15.8-2.8c19.3,0,36.7,12.2,43.3,30.4
	C253.9,558.8,253.3,571.3,248.1,582.4z"/>
</svg>
