<?xml version="1.0" encoding="utf-8"?>
<!-- Generator: Adobe Illustrator 19.0.0, SVG Export Plug-In . SVG Version: 6.00 Build 0)  -->
<svg version="1.1" id="Capa_1" xmlns="http://www.w3.org/2000/svg" xmlns:xlink="http://www.w3.org/1999/xlink" x="0px" y="0px"
	 viewBox="102 310 30 30" style="enable-background:new 102 310 30 30;" xml:space="preserve">
<style type="text/css">
	.st0{fill:#FFFFFF;}
	.st1{fill:#FFFFFF;stroke:#FFFFFF;stroke-width:14;stroke-miterlimit:10;}
</style>
<g>
	<g>
		<g>
			<path class="st0" d="M129.5,316.2c0-1.2-0.9-2.1-2.1-2.1h-14c-0.3-1.6-1.7-2.9-3.4-2.9s-3,1.3-3.3,2.9h-0.1
				c-1.2,0-2.1,0.9-2.1,2.1v19.9c0,1.2,0.9,2.1,2.1,2.1h20.8c1.2,0,2.1-0.9,2.1-2.1v-5.3l0,0L129.5,316.2z M110,312.7
				c0.9,0,1.7,0.6,2,1.4h-3.8C108.4,313.3,109.1,312.7,110,312.7z M128.1,336.1c0,0.4-0.3,0.7-0.7,0.7h-20.8c-0.4,0-0.7-0.3-0.7-0.7
				v-19.9c0-0.4,0.3-0.7,0.7-0.7h5.5v4.8c0,0.4-0.3,0.7-0.7,0.7c-0.4,0-0.7-0.3-0.7-0.7v-3.1c0-0.4-0.3-0.7-0.7-0.7l0,0
				c-0.4,0-0.7,0.3-0.7,0.7v3c0,1.2,0.9,2.1,2,2.2c1.3,0.1,2.1-0.9,2.1-2.1v-4.8h14c0.4,0,0.7,0.3,0.7,0.7l0,13.4l0,0V336.1z"/>
		</g>
	</g>
	<path class="st1" d="M113.9,327.3"/>
	<path class="st1" d="M119.9,326.2"/>
	<path class="st0" d="M112.5,327.3c-0.2,0-0.3-0.1-0.5-0.2c-0.3-0.3-0.2-0.7,0-0.9l3.2-3.1c0.1-0.1,0.3-0.2,0.5-0.2c0,0,0,0,0,0
		c0.2,0,0.3,0.1,0.5,0.2l2.6,2.6l4.7-4.7c0.3-0.3,0.7-0.3,0.9,0c0.3,0.3,0.3,0.7,0,0.9l-5.2,5.1c-0.1,0.1-0.3,0.2-0.5,0.2
		c-0.2,0-0.3-0.1-0.5-0.2l-2.6-2.6l-2.7,2.6C112.8,327.2,112.7,327.3,112.5,327.3z"/>
	<path class="st0" d="M125.1,330.6h-8.4c-0.4,0-0.7-0.3-0.7-0.7s0.3-0.7,0.7-0.7h8.4c0.4,0,0.7,0.3,0.7,0.7S125.4,330.6,125.1,330.6
		z"/>
	<path class="st0" d="M125.1,334h-15.8c-0.4,0-0.7-0.3-0.7-0.7c0-0.4,0.3-0.7,0.7-0.7h15.8c0.4,0,0.7,0.3,0.7,0.7
		C125.7,333.7,125.4,334,125.1,334z"/>
</g>
</svg>
