<?xml version="1.0" encoding="utf-8"?>
<!-- Generator: Adobe Illustrator 19.0.0, SVG Export Plug-In . SVG Version: 6.00 Build 0)  -->
<svg version="1.1" id="Isolation_Mode" xmlns="http://www.w3.org/2000/svg" xmlns:xlink="http://www.w3.org/1999/xlink" x="0px"
	 y="0px" viewBox="-194 287.2 222 219.8" style="enable-background:new -194 287.2 222 219.8;" xml:space="preserve">
<style type="text/css">
	.st0{opacity:0.3;}
	.st1{fill:#FFFFFF;}
</style>
<g>
	<g class="st0">
		<path class="st1" d="M-79.4,488.9h-73.4c-9.4,0-17.1-7.7-17.1-17.1v-70.1c0-9.4,7.7-17.1,17.1-17.1h123.1c6.5,0,13.3,2.3,15.1,6
			c0.4,0.8,3.7,4.2,10,3.2c4.1-0.6,6.4-4.8,6-7.4c-1.9-11.7-15.5-18.9-31.1-18.9H-40v-30.1c0-27.7-23-50.2-51.3-50.2
			s-51.3,22.5-51.3,50.2v30.1h-10.2c-18.9,0-34.2,15.3-34.2,34.2v70.1c0,18.9,15.3,34.2,34.2,34.2h73.2c4.5,0,8.3-3.3,8.7-7.8
			C-70.5,493.1-74.5,488.9-79.4,488.9z M-125.5,337.4c0-18.3,15.3-33.1,34.2-33.1s34.2,14.8,34.2,33.1v30.1h-68.4V337.4
			L-125.5,337.4z"/>
		<circle class="st1" cx="-139.2" cy="435.1" r="8.5"/>
		<circle class="st1" cx="-107.1" cy="435.1" r="8.5"/>
		<circle class="st1" cx="-74.9" cy="435.1" r="8.5"/>
		<g>
			<path class="st1" d="M-15.7,504.6c-24.1,0-43.7-19.6-43.7-43.7c0-1.1,0-2.2,0.1-3.5c0.3-3.8,3.6-6.6,7.4-6.3s6.6,3.6,6.3,7.4
				c-0.1,0.9-0.1,1.7-0.1,2.4c0,16.5,13.5,30,30,30s30-13.5,30-30c0-19.9-16.8-26.9-27.2-29.3c-2.4,2.3-5.6,2.3-7.8,1.3
				c-2.3-1.1-4.6-3.9-3.7-8.3c0.1-0.7,0.4-1.5,0.7-2.6c1-3.1,3.9-4.9,7-4.7c0.6-0.1,1.3-0.1,2.1,0c26.3,4.2,42.6,20.9,42.6,43.6
				C28,485,8.4,504.6-15.7,504.6z"/>
			<path class="st1" d="M-14.3,449.9c-2.6,0-5.2-1.5-6.3-4.1l-10.5-24.1l24.9-16.5c3.1-2.1,7.4-1.2,9.5,1.9s1.2,7.4-1.9,9.5
				l-15.3,10.2l5.9,13.6c1.5,3.5-0.1,7.5-3.5,9C-12.5,449.7-13.4,449.9-14.3,449.9z"/>
		</g>
	</g>
	<g>
		<path class="st1" d="M-86.4,488.9h-73.4c-9.4,0-17.1-7.7-17.1-17.1v-70.1c0-9.4,7.7-17.1,17.1-17.1h123.1c6.5,0,13.3,2.3,15.1,6
			c0.4,0.8,3.7,4.2,10,3.2c4.1-0.6,6.4-4.8,6-7.4c-1.9-11.7-15.5-18.9-31.1-18.9H-47v-30.1c0-27.7-23-50.2-51.3-50.2
			s-51.3,22.5-51.3,50.2v30.1h-10.2c-18.9,0-34.2,15.3-34.2,34.2v70.1c0,18.9,15.3,34.2,34.2,34.2h73.2c4.5,0,8.3-3.3,8.7-7.8
			C-77.5,493.1-81.5,488.9-86.4,488.9z M-132.5,337.4c0-18.3,15.3-33.1,34.2-33.1s34.2,14.8,34.2,33.1v30.1h-68.4V337.4
			L-132.5,337.4z"/>
		<circle class="st1" cx="-146.2" cy="435.1" r="8.5"/>
		<circle class="st1" cx="-114.1" cy="435.1" r="8.5"/>
		<circle class="st1" cx="-81.9" cy="435.1" r="8.5"/>
		<g>
			<path class="st1" d="M-22.7,504.6c-24.1,0-43.7-19.6-43.7-43.7c0-1.1,0-2.2,0.1-3.5c0.3-3.8,3.6-6.6,7.4-6.3s6.6,3.6,6.3,7.4
				c-0.1,0.9-0.1,1.7-0.1,2.4c0,16.5,13.5,30,30,30s30-13.5,30-30c0-19.9-16.8-26.9-27.2-29.3c-2.4,2.3-5.6,2.3-7.8,1.3
				c-2.3-1.1-4.6-3.9-3.7-8.3c0.1-0.7,0.4-1.5,0.7-2.6c1-3.1,3.9-4.9,7-4.7c0.6-0.1,1.3-0.1,2.1,0C4.7,421.5,21,438.2,21,460.9
				C21,485,1.4,504.6-22.7,504.6z"/>
			<path class="st1" d="M-21.3,449.9c-2.6,0-5.2-1.5-6.3-4.1l-10.5-24.1l24.9-16.5c3.1-2.1,7.4-1.2,9.5,1.9s1.2,7.4-1.9,9.5
				l-15.3,10.2l5.9,13.6c1.5,3.5-0.1,7.5-3.5,9C-19.5,449.7-20.4,449.9-21.3,449.9z"/>
		</g>
	</g>
</g>
</svg>
