<?xml version="1.0" encoding="utf-8"?>
<!-- Generator: Adobe Illustrator 19.0.0, SVG Export Plug-In . SVG Version: 6.00 Build 0)  -->
<svg version="1.1" id="Isolation_Mode" xmlns="http://www.w3.org/2000/svg" xmlns:xlink="http://www.w3.org/1999/xlink" x="0px"
	 y="0px" viewBox="195 385 24 24" style="enable-background:new 195 385 24 24;" xml:space="preserve">
<style type="text/css">
	.st0{fill:#CC9966;}
</style>
<g>
	<path class="st0" d="M206.8,407.1h-8.1c-1,0-1.9-0.8-1.9-1.9v-7.7c0-1,0.8-1.9,1.9-1.9h13.5c0.7,0,1.5,0.3,1.7,0.7
		c0,0.1,0.4,0.5,1.1,0.4c0.4-0.1,0.7-0.5,0.7-0.8c-0.2-1.3-1.7-2.1-3.4-2.1h-1.1v-3.3c0-3-2.5-5.5-5.6-5.5c-3.1,0-5.6,2.5-5.6,5.5
		v3.3h-1.1c-2.1,0-3.8,1.7-3.8,3.8v7.7c0,2.1,1.7,3.8,3.8,3.8h8c0.5,0,0.9-0.4,1-0.9C207.8,407.6,207.3,407.1,206.8,407.1z
		 M201.7,390.5c0-2,1.7-3.6,3.8-3.6s3.8,1.6,3.8,3.6v3.3h-7.5V390.5L201.7,390.5z"/>
	<circle class="st0" cx="200.3" cy="401.2" r="0.9"/>
	<circle class="st0" cx="203.8" cy="401.2" r="0.9"/>
	<circle class="st0" cx="207.3" cy="401.2" r="0.9"/>
	<g>
		<path class="st0" d="M214.2,408.8c-2.6,0-4.8-2.1-4.8-4.8c0-0.1,0-0.2,0-0.4c0-0.4,0.4-0.7,0.8-0.7c0.4,0,0.7,0.4,0.7,0.8
			c0,0.1,0,0.2,0,0.3c0,1.8,1.5,3.3,3.3,3.3s3.3-1.5,3.3-3.3c0-2.2-1.8-3-3-3.2c-0.3,0.2-0.6,0.3-0.9,0.1c-0.3-0.1-0.5-0.4-0.4-0.9
			c0-0.1,0-0.2,0.1-0.3c0.1-0.3,0.4-0.5,0.8-0.5c0.1,0,0.1,0,0.2,0c2.9,0.5,4.7,2.3,4.7,4.8C219,406.7,216.9,408.8,214.2,408.8z"/>
		<path class="st0" d="M214.4,402.8c-0.3,0-0.6-0.2-0.7-0.5l-1.2-2.6l2.7-1.8c0.3-0.2,0.8-0.1,1,0.2c0.2,0.3,0.1,0.8-0.2,1l-1.7,1.1
			l0.6,1.5c0.2,0.4,0,0.8-0.4,1C214.6,402.8,214.5,402.8,214.4,402.8z"/>
	</g>
</g>
</svg>
