<?xml version="1.0" encoding="utf-8"?>
<!-- Generator: Adobe Illustrator 19.0.0, SVG Export Plug-In . SVG Version: 6.00 Build 0)  -->
<svg version="1.1" id="Layer_1" xmlns="http://www.w3.org/2000/svg" xmlns:xlink="http://www.w3.org/1999/xlink" x="0px" y="0px"
	 viewBox="-49 141 512 512" style="enable-background:new -49 141 512 512;" xml:space="preserve">
<style type="text/css">
	.st0{fill:#7CB756;}
</style>
<path class="st0" d="M334.2,179l90.8,83.7V615H-11V179H334.2 M335.8,141H-15.2c-18.7,0-33.8,15.2-33.8,33.8v444.3
	c0,18.7,15.2,33.8,33.8,33.8h444.3c18.7,0,33.8-15.2,33.8-33.8V260.8c0-9.5-4-18.5-10.9-24.9l-93.4-86
	C352.5,144.2,344.3,141,335.8,141L335.8,141z"/>
<path class="st0" d="M297.4,179v86H86.6v-86H297.4 M310.4,141H73.6c-13.8,0-25,11.2-25,25v112c0,13.8,11.2,25,25,25h236.8
	c13.8,0,25-11.2,25-25V166C335.4,152.2,324.2,141,310.4,141L310.4,141z"/>
<path class="st0" d="M207,392.9c34.5,0,62.6,28.1,62.6,62.6c0,34.5-28.1,62.6-62.6,62.6c-34.5,0-62.6-28.1-62.6-62.6
	C144.4,421,172.5,392.9,207,392.9 M207,354.9L207,354.9c-55.6,0-100.6,45-100.6,100.6v0c0,55.6,45,100.6,100.6,100.6h0
	c55.6,0,100.6-45,100.6-100.6v0C307.6,399.9,262.6,354.9,207,354.9L207,354.9z"/>
</svg>
