<?xml version="1.0" encoding="utf-8"?>
<!-- Generator: Adobe Illustrator 19.0.0, SVG Export Plug-In . SVG Version: 6.00 Build 0)  -->
<svg version="1.1" id="Capa_1" xmlns="http://www.w3.org/2000/svg" xmlns:xlink="http://www.w3.org/1999/xlink" x="0px" y="0px"
	 viewBox="-49 141 512 512" style="enable-background:new -49 141 512 512;" xml:space="preserve">
<style type="text/css">
	.st0{fill:#A2AAE3;}
</style>
<g>
	<g>
		<path class="st0" d="M459.9,619.7L311.1,471c28.2-34.8,45.2-79.1,45.2-127.3c0-111.8-90.9-202.7-202.7-202.7S-49,231.9-49,343.7
			s90.9,202.7,202.7,202.7c48.2,0,92.5-17,127.3-45.2l148.7,148.7c4.2,4.2,10.9,4.2,15.1,0l15.1-15.1
			C464,630.6,464,623.9,459.9,619.7z M153.7,503.7c-88.2,0-160-71.8-160-160s71.8-160,160-160s160,71.8,160,160
			S241.9,503.7,153.7,503.7z"/>
	</g>
</g>
</svg>
