<?xml version="1.0" encoding="utf-8"?>
<!-- Generator: Adobe Illustrator 19.0.0, SVG Export Plug-In . SVG Version: 6.00 Build 0)  -->
<svg version="1.1" id="Capa_1" xmlns="http://www.w3.org/2000/svg" xmlns:xlink="http://www.w3.org/1999/xlink" x="0px" y="0px"
	 viewBox="-261 385 24 24" style="enable-background:new -261 385 24 24;" xml:space="preserve">
<style type="text/css">
	.st0{fill:#FFFFFF;}
</style>
<g>
	<g>
		<path class="st0" d="M-243.3,405.2h-16.9c-0.2,0-0.4,0.2-0.4,0.4s0.2,0.4,0.4,0.4h16.9c0.2,1.5,1.5,2.6,3,2.6c1.7,0,3-1.4,3-3.1
			s-1.4-3.1-3-3.1C-241.9,402.6-243.1,403.7-243.3,405.2z"/>
		<path class="st0" d="M-240.4,408.9c-1.5,0-2.9-1.1-3.2-2.6h-16.7c-0.4,0-0.7-0.3-0.7-0.7s0.3-0.7,0.7-0.7h16.7
			c0.3-1.5,1.7-2.6,3.2-2.6c1.8,0,3.3,1.5,3.3,3.3S-238.5,408.9-240.4,408.9z M-260.2,405.4c-0.1,0-0.2,0.1-0.2,0.2s0.1,0.2,0.2,0.2
			h17.1l0,0.2c0.2,1.4,1.4,2.4,2.7,2.4c1.5,0,2.8-1.3,2.8-2.8s-1.2-2.8-2.8-2.8c-1.4,0-2.5,1-2.7,2.4l0,0.2H-260.2z"/>
	</g>
	<g>
		<path class="st0" d="M-252.2,396.5h-8.1c-0.2,0-0.4,0.2-0.4,0.4s0.2,0.4,0.4,0.4h8.1c0.2,1.6,1.5,2.8,3.1,2.8
			c1.6,0,2.9-1.2,3.1-2.8h8.2c0.2,0,0.4-0.2,0.4-0.4s-0.2-0.4-0.4-0.4h-8.3c-0.2-1.5-1.5-2.6-3.1-2.6
			C-250.6,393.9-251.9,395-252.2,396.5z"/>
		<path class="st0" d="M-249.1,400.4c-1.6,0-3-1.2-3.3-2.8h-7.8c-0.4,0-0.7-0.3-0.7-0.7c0-0.4,0.3-0.7,0.7-0.7h7.9
			c0.4-1.5,1.7-2.6,3.3-2.6c1.6,0,2.9,1.1,3.3,2.6h8c0.4,0,0.7,0.3,0.7,0.7c0,0.4-0.3,0.7-0.7,0.7h-8
			C-246.1,399.2-247.4,400.4-249.1,400.4z M-260.2,396.7c-0.1,0-0.2,0.1-0.2,0.2c0,0.1,0.1,0.2,0.2,0.2h8.3l0,0.2
			c0.2,1.5,1.4,2.6,2.8,2.6c1.5,0,2.7-1.1,2.8-2.6l0-0.2h8.5c0.1,0,0.2-0.1,0.2-0.2c0-0.1-0.1-0.2-0.2-0.2h-8.5l0-0.2
			c-0.2-1.4-1.4-2.4-2.8-2.4c-1.4,0-2.6,1-2.8,2.4l0,0.2H-260.2z"/>
	</g>
	<g>
		<path class="st0" d="M-257.6,385.3c-1.7,0-3,1.4-3,3.1c0,1.7,1.4,3.1,3,3.1c1.5,0,2.8-1.1,3-2.6h16.9c0.2,0,0.4-0.2,0.4-0.4
			s-0.2-0.4-0.4-0.4h-16.9C-254.9,386.5-256.1,385.3-257.6,385.3z"/>
		<path class="st0" d="M-257.6,391.7c-1.8,0-3.3-1.5-3.3-3.3s1.5-3.3,3.3-3.3c1.5,0,2.9,1.1,3.2,2.6h16.7c0.4,0,0.7,0.3,0.7,0.7
			c0,0.4-0.3,0.7-0.7,0.7h-16.7C-254.8,390.6-256.1,391.7-257.6,391.7z M-257.6,385.6c-1.5,0-2.8,1.3-2.8,2.8s1.2,2.8,2.8,2.8
			c1.4,0,2.5-1,2.7-2.4l0-0.2h17.1c0.1,0,0.2-0.1,0.2-0.2s-0.1-0.2-0.2-0.2h-17.1l0-0.2C-255.1,386.6-256.3,385.6-257.6,385.6z"/>
	</g>
</g>
</svg>
