<?xml version="1.0" encoding="utf-8"?>
<!-- Generator: Adobe Illustrator 19.0.0, SVG Export Plug-In . SVG Version: 6.00 Build 0)  -->
<svg version="1.1" id="Isolation_Mode" xmlns="http://www.w3.org/2000/svg" xmlns:xlink="http://www.w3.org/1999/xlink" x="0px"
	 y="0px" viewBox="228.4 417.5 236 236" style="enable-background:new 228.4 417.5 236 236;" xml:space="preserve">
<style type="text/css">
	.st0{fill:#4761A8;stroke:#4761A8;stroke-miterlimit:10;}
	.st1{fill:#FFFFFF;}
</style>
<g id="Capa_1">
	<circle class="st0" cx="346.4" cy="535.5" r="117.5"/>
	<path class="st1" d="M292.1,541.9l43.8-47.1v116c0,5.8,4.8,10.6,10.6,10.6c5.8,0,10.6-4.8,10.6-10.6v-116l43.8,47.1
		c2.1,2.2,4.9,3.4,7.8,3.4c2.5,0,5.2-1,7.2-2.9c4.3-4,4.6-10.7,0.5-15l-62.2-66.8c-2-2.1-4.8-3.4-7.8-3.4c-3,0-5.7,1.3-7.8,3.4
		l-62.2,66.8c-4,4.2-3.7,11,0.5,15C281.4,546.5,288.1,546.2,292.1,541.9z"/>
</g>
</svg>
