<?xml version="1.0" encoding="utf-8"?>
<!-- Generator: Adobe Illustrator 19.0.0, SVG Export Plug-In . SVG Version: 6.00 Build 0)  -->
<svg version="1.1" id="Capa_1" xmlns="http://www.w3.org/2000/svg" xmlns:xlink="http://www.w3.org/1999/xlink" x="0px" y="0px"
	 viewBox="192.6 411.5 24 22.1" style="enable-background:new 192.6 411.5 24 22.1;" xml:space="preserve">
<style type="text/css">
	.st0{fill:#B0C9FF;}
</style>
<g>
	<path class="st0" d="M200,423.1c-0.2-0.1-0.4-0.1-0.6,0c-3.4,1.7-6,5.6-6.8,9.4c-0.2,0.8,0.5,1.4,1.3,0.8c0.2-0.2,0.2-0.5,0.3-0.8
		c0.8-3.2,3-6.5,5.9-8C200.7,424.3,200.7,423.4,200,423.1C200,423.1,200,423.1,200,423.1z"/>
	<path class="st0" d="M204.7,420.8c2.6,0,4.6-2.1,4.6-4.6c0-2.6-2.1-4.6-4.6-4.6s-4.6,2.1-4.6,4.6
		C200,418.7,202.1,420.8,204.7,420.8z M204.7,413.1c1.7,0,3.1,1.4,3.1,3.1s-1.4,3.1-3.1,3.1c-1.7,0-3.1-1.4-3.1-3.1
		C201.6,414.4,203,413.1,204.7,413.1z"/>
	<path class="st0" d="M215.8,429.1h-12c-0.5,0-0.8-0.4-0.8-0.8s0.4-0.8,0.8-0.8h12c0.5,0,0.8,0.4,0.8,0.8S216.2,429.1,215.8,429.1z"
		/>
	<path class="st0" d="M215.8,425.2h-12c-0.5,0-0.8-0.4-0.8-0.8c0-0.5,0.4-0.8,0.8-0.8h12c0.5,0,0.8,0.4,0.8,0.8
		C216.6,424.9,216.2,425.2,215.8,425.2z"/>
	<path class="st0" d="M215.8,432.8h-12c-0.5,0-0.8-0.4-0.8-0.8s0.4-0.8,0.8-0.8h12c0.5,0,0.8,0.4,0.8,0.8S216.2,432.8,215.8,432.8z"
		/>
</g>
</svg>
