<?xml version="1.0" encoding="utf-8"?>
<!-- Generator: Adobe Illustrator 19.0.0, SVG Export Plug-In . SVG Version: 6.00 Build 0)  -->
<svg version="1.1" id="Capa_1" xmlns="http://www.w3.org/2000/svg" xmlns:xlink="http://www.w3.org/1999/xlink" x="0px" y="0px"
	 viewBox="-49 141 512 512" style="enable-background:new -49 141 512 512;" xml:space="preserve">
<style type="text/css">
	.st0{fill:#FFFFFF;}
	.st1{fill:url(#SVGID_1_);}
	.st2{clip-path:url(#SVGID_3_);fill:url(#SVGID_4_);}
	.st3{clip-path:url(#SVGID_3_);fill:url(#SVGID_5_);}
	.st4{fill:url(#SVGID_6_);}
</style>
<path class="st0" d="M207.1,161c2.6,0,5.2-1.1,7.1-2.9c1.9-1.9,2.9-4.4,2.9-7.1s-1.1-5.2-2.9-7.1c-1.9-1.9-4.4-2.9-7.1-2.9
	s-5.2,1.1-7.1,2.9c-1.9,1.9-2.9,4.4-2.9,7.1s1.1,5.2,2.9,7.1C201.9,159.9,204.5,161,207.1,161z"/>
<g>
	<path class="st0" d="M242.6,187.9c0,21.6-17.5,39.2-39.2,39.2c-21.6,0-39.2-17.5-39.2-39.2c0-21.6,17.5-39.2,39.2-39.2
		C225,148.7,242.6,166.3,242.6,187.9L242.6,187.9z M242.6,187.9"/>
	<linearGradient id="SVGID_1_" gradientUnits="userSpaceOnUse" x1="382.0799" y1="312" x2="382.0799" y2="632.1265">
		<stop  offset="0" style="stop-color:#FFFFFF"/>
		<stop  offset="1" style="stop-color:#C0CBDE"/>
	</linearGradient>
	<path class="st1" d="M421.3,495c0,21.6-17.5,39.2-39.2,39.2c-21.6,0-39.2-17.5-39.2-39.2c0-21.6,17.5-39.2,39.2-39.2
		C403.7,455.8,421.3,473.4,421.3,495L421.3,495z M421.3,495"/>
	<g>
		<defs>
			<rect id="SVGID_2_" x="-24" y="139" width="454.6" height="509"/>
		</defs>
		<clipPath id="SVGID_3_">
			<use xlink:href="#SVGID_2_"  style="overflow:visible;"/>
		</clipPath>
		<linearGradient id="SVGID_4_" gradientUnits="userSpaceOnUse" x1="24.7124" y1="312" x2="24.7124" y2="632.1265">
			<stop  offset="0" style="stop-color:#FFFFFF"/>
			<stop  offset="1" style="stop-color:#C0CBDE"/>
		</linearGradient>
		<path class="st2" d="M63.9,495c0,21.6-17.5,39.2-39.2,39.2c-21.6,0-39.2-17.5-39.2-39.2c0-21.6,17.5-39.2,39.2-39.2
			C46.4,455.8,63.9,473.4,63.9,495L63.9,495z M63.9,495"/>
		<linearGradient id="SVGID_5_" gradientUnits="userSpaceOnUse" x1="203.3456" y1="312" x2="203.3456" y2="632.1265">
			<stop  offset="0" style="stop-color:#FFFFFF"/>
			<stop  offset="1" style="stop-color:#C0CBDE"/>
		</linearGradient>
		<path class="st3" d="M430.7,291c0-26.8-21.8-48.6-48.6-48.6c-14.6,0-27.7,6.4-36.6,16.7l-96.1-55.7c1.7-4.9,2.6-10.2,2.6-15.7
			c0-26.8-21.8-48.6-48.6-48.6c-26.8,0-48.6,21.8-48.6,48.6c0,5.5,0.9,10.7,2.6,15.5L61.3,259c-8.9-10.2-22-16.7-36.6-16.7
			c-26.8,0-48.6,21.8-48.6,48.6c0,23.2,16.4,42.7,38.1,47.5l0.1,109C-7.5,452.2-24,471.7-24,494.9c0,26.8,21.8,48.6,48.6,48.6
			c14.3,0,27.2-6.2,36.1-16.1l96.4,55.7c-1.6,4.8-2.4,9.7-2.4,15c0,26.8,21.8,48.6,48.6,48.6c26.8,0,48.6-21.8,48.6-48.6
			c0-5.3-0.8-10.3-2.4-15l96.4-55.7c8.9,9.8,21.8,16.1,36.1,16.1c26.8,0,48.6-21.8,48.6-48.6c0-23.5-16.9-43.3-39.2-47.7V338.6
			C413.8,334.4,430.7,314.7,430.7,291L430.7,291z M382.1,261.2c16.5,0,29.8,13.4,29.8,29.8c0,16.5-13.4,29.8-29.8,29.8
			c-16.5,0-29.9-13.4-29.9-29.8C352.2,274.6,365.7,261.2,382.1,261.2L382.1,261.2z M203.4,158.1c16.5,0,29.8,13.4,29.8,29.9
			c0,5.1-1.2,9.8-3.5,14.1c-0.2,0.2-0.3,0.4-0.5,0.7l-0.3,0.6c-5.2,8.6-14.7,14.4-25.5,14.4c-16.5,0-29.8-13.4-29.8-29.8
			C173.5,171.4,186.9,158.1,203.4,158.1L203.4,158.1z M-5.1,291c0-16.5,13.4-29.8,29.9-29.8c16.5,0,29.8,13.4,29.8,29.8
			c0,16.5-13.4,29.8-29.8,29.8C8.2,320.9-5.1,307.5-5.1,291L-5.1,291z M24.7,524.9c-16.5,0-29.9-13.4-29.9-29.8
			c0-16.5,13.4-29.8,29.9-29.8c16.5,0,29.8,13.4,29.8,29.8C54.5,511.5,41.1,524.9,24.7,524.9L24.7,524.9z M203.4,628
			c-16.5,0-29.8-13.4-29.8-29.9c0-16.5,13.4-29.8,29.8-29.8c16.5,0,29.8,13.4,29.8,29.8C233.2,614.6,219.9,628,203.4,628L203.4,628z
			 M240.4,566.7c-8.9-10.5-22.2-17.2-37-17.2c-14.8,0-28.1,6.6-37,17.2l-96-55.3c1.9-5.1,2.9-10.7,2.9-16.4
			c0-23.9-17.3-43.8-40.1-47.9l-0.1-108.3c22.8-3.9,40.2-23.9,40.2-47.9c0-5.5-0.9-10.8-2.6-15.7l96.1-55.7
			c8.9,10.3,22.1,16.7,36.7,16.7c14.6,0,27.7-6.4,36.6-16.7l96.1,55.7c-1.7,4.9-2.6,10.2-2.6,15.7c0,23.5,16.9,43.3,39.2,47.7v108.6
			c-22.3,4.4-39.2,24-39.2,47.7c0,5.8,1,11.3,2.9,16.4L240.4,566.7z M411.9,495c0,16.5-13.4,29.8-29.8,29.8
			c-16.5,0-29.9-13.4-29.9-29.8c0-16.5,13.4-29.8,29.9-29.8C398.6,465.2,411.9,478.5,411.9,495L411.9,495z M411.9,495"/>
	</g>
	<linearGradient id="SVGID_6_" gradientUnits="userSpaceOnUse" x1="203.4828" y1="312" x2="203.4828" y2="632.1265">
		<stop  offset="0" style="stop-color:#FFFFFF"/>
		<stop  offset="1" style="stop-color:#C0CBDE"/>
	</linearGradient>
	<path class="st4" d="M248.7,430.6v-33.9c5.7-5.5,8.9-13.1,8.9-21.1v-44.5c0-27.3-22.2-49.4-49.4-49.4h-9.5
		c-27.3,0-49.4,22.2-49.4,49.4v44.5c0,8.1,3.3,15.7,8.9,21.1v33.9c-10.8,5.6-36.7,19.8-60.9,39.7c-4,3.3-4.6,9.2-1.2,13.3
		c3.3,4,9.2,4.6,13.3,1.2c26.8-22.1,55.9-36.7,61.5-39.4c3.9-2,6.3-5.8,6.3-10.3v-42.9c0-3.1-1.6-6.1-4.1-7.8c-3-2-4.8-5.3-4.8-8.9
		v-44.5c0-16.9,13.8-30.7,30.7-30.7h9.5c16.9,0,30.7,13.8,30.7,30.7v44.5c0,3.5-1.8,6.8-4.8,8.9c-2.6,1.8-4.1,4.7-4.1,7.8v42.9
		c0,4.4,2.5,8.3,6.4,10.3c5.6,2.7,34.6,17.4,61.5,39.4c1.8,1.5,3.8,2.2,5.9,2.2c2.7,0,5.4-1.1,7.3-3.4c3.3-4,2.7-10-1.2-13.3
		C285.4,450.3,259.5,436,248.7,430.6L248.7,430.6z M248.7,430.6"/>
</g>
</svg>
