<?xml version="1.0" encoding="utf-8"?>
<!-- Generator: Adobe Illustrator 19.0.0, SVG Export Plug-In . SVG Version: 6.00 Build 0)  -->
<svg version="1.1" id="Capa_1" xmlns="http://www.w3.org/2000/svg" xmlns:xlink="http://www.w3.org/1999/xlink" x="0px" y="0px"
	 viewBox="-293 385 24 24" style="enable-background:new -293 385 24 24;" xml:space="preserve">
<style type="text/css">
	.st0{fill:#737373;}
</style>
<g>
	<path class="st0" d="M-281,385c-6.6,0-12,5.4-12,12s5.4,12,12,12s12-5.4,12-12S-274.4,385-281,385z M-281,386.5
		c5.8,0,10.5,4.7,10.5,10.5c0,2.4-0.8,4.6-2.2,6.4c-5.3-2.5-11.3-2.5-16.6,0c-1.4-1.8-2.2-4-2.2-6.4
		C-291.5,391.2-286.8,386.5-281,386.5z M-288.2,404.6c4.6-2,9.9-2,14.5,0c-1.9,1.8-4.4,2.9-7.2,2.9S-286.4,406.4-288.2,404.6z"/>
	<path class="st0" d="M-281,400c2.5,0,4.5-2,4.5-4.5s-2-4.5-4.5-4.5s-4.5,2-4.5,4.5S-283.5,400-281,400z M-281,392.5
		c1.7,0,3,1.3,3,3s-1.3,3-3,3s-3-1.3-3-3S-282.7,392.5-281,392.5z"/>
</g>
</svg>
