<?xml version="1.0" encoding="utf-8"?>
<!-- Generator: Adobe Illustrator 19.0.0, SVG Export Plug-In . SVG Version: 6.00 Build 0)  -->
<svg version="1.1" id="Layer_1" xmlns="http://www.w3.org/2000/svg" xmlns:xlink="http://www.w3.org/1999/xlink" x="0px" y="0px"
	 viewBox="17.1 178.8 379.7 438.1" style="enable-background:new 17.1 178.8 379.7 438.1;" xml:space="preserve">
<style type="text/css">
	.st0{fill:#E54D25;}
</style>
<g>
	<g>
		<g>
			<path class="st0" d="M355.6,493.1L235,393.1c-3.8-3.2-9.2-3.7-13.6-1.3c-4.4,2.4-6.9,7.2-6.3,12.2l18.7,155.5
				c0.5,4,2.9,7.5,6.5,9.4c1.8,0.9,3.7,1.4,5.6,1.4c2,0,4-0.5,5.8-1.5l101.9-55.4c3.6-1.9,5.9-5.5,6.3-9.5
				C360.3,499.7,358.7,495.7,355.6,493.1z M255.8,538.7L243,431.4l83.2,69L255.8,538.7z"/>
			<path class="st0" d="M245.9,571.6c-2.2,0-4.3-0.5-6.3-1.5c-4-2.1-6.8-6-7.3-10.5l-18.7-155.5c-0.7-5.6,2.1-11,7-13.7
				c5-2.7,11-2.1,15.3,1.5L356.6,492c3.5,2.9,5.3,7.3,4.9,11.9c-0.4,4.5-3.1,8.5-7.1,10.7L252.4,570
				C250.4,571.1,248.2,571.6,245.9,571.6z M227.2,391.8c-1.7,0-3.5,0.4-5.1,1.3c-3.9,2.1-6,6.3-5.5,10.7l18.7,155.5
				c0.4,3.5,2.6,6.6,5.7,8.2c3.1,1.6,7,1.6,10-0.1l101.9-55.4c3.1-1.7,5.2-4.8,5.5-8.4c0.3-3.5-1.1-7-3.8-9.3L234,394.2
				C232.1,392.6,229.7,391.8,227.2,391.8z M254.6,541L241,427.8l87.8,72.9L254.6,541z M244.9,434.9l12.2,101.4l66.4-36.1
				L244.9,434.9z"/>
		</g>
	</g>
</g>
<g>
	<g>
		<g>
			<path class="st0" d="M372.4,278.7c-24-44.2-63.8-76.4-112-90.6c-48.2-14.3-99.1-8.9-143.3,15.2c-44.2,24-76.4,63.8-90.6,112
				c-14.3,48.2-8.9,99.1,15.2,143.3c24,44.2,63.8,76.3,112.1,90.6c8.1,2.4,16.5,4.3,24.8,5.5c0.7,0.1,1.4,0.2,2.1,0.2
				c6.5,0,12.3-4.8,13.3-11.4c1.1-7.3-3.9-14.2-11.3-15.3c-7.1-1.1-14.3-2.7-21.3-4.8C75.9,498.1,27,408.2,52.2,322.9
				c12.2-41.3,39.8-75.4,77.7-96c37.9-20.6,81.5-25.2,122.8-13c41.3,12.2,75.4,39.8,96,77.7c20.6,37.9,25.2,81.5,13,122.8
				c-2.2,7.5-5,14.8-8.2,21.8c-3.1,6.8-0.1,14.7,6.6,17.8c6.8,3.1,14.7,0.1,17.8-6.6c3.8-8.2,7-16.7,9.5-25.4
				C401.8,373.7,396.4,322.9,372.4,278.7z"/>
			<path class="st0" d="M180.5,556.4c-0.8,0-1.5-0.1-2.3-0.2c-8.4-1.3-16.8-3.2-25-5.6c-48.6-14.4-88.7-46.8-113-91.3
				C16.1,414.7,10.6,363.4,25,314.8c14.4-48.6,46.8-88.7,91.3-112.9c44.5-24.2,95.8-29.6,144.5-15.3c48.6,14.4,88.7,46.8,112.9,91.3
				c24.2,44.5,29.6,95.8,15.3,144.4c-2.6,8.7-5.8,17.4-9.6,25.6c-1.7,3.6-4.6,6.4-8.4,7.8c-3.7,1.4-7.8,1.2-11.4-0.4
				c-7.5-3.4-10.8-12.3-7.4-19.8c3.2-7,5.9-14.3,8.1-21.6c12.1-40.9,7.5-84.1-12.9-121.7c-20.4-37.5-54.2-64.8-95.1-76.9
				c-41-12.1-84.2-7.5-121.7,12.9c-37.5,20.4-64.8,54.2-76.9,95.1c-25,84.5,23.5,173.6,108,198.6c6.9,2,14,3.6,21.1,4.7
				c8.1,1.3,13.8,8.9,12.5,17.1C194.2,550.9,187.8,556.4,180.5,556.4z M206.8,181.8c-30.8,0-61.2,7.7-89,22.8
				C73.9,228.4,42,267.8,27.9,315.7c-14.1,47.8-8.8,98.3,15,142.2c23.8,43.8,63.3,75.7,111.2,89.9c8.1,2.4,16.4,4.2,24.6,5.5
				c6.6,1,12.6-3.6,13.6-10c1-6.5-3.5-12.6-10-13.6c-7.2-1.1-14.4-2.7-21.5-4.8C74.7,499.3,25.4,408.6,50.8,322.5
				c12.3-41.7,40.2-76.1,78.4-96.9c38.2-20.8,82.3-25.4,124-13.1c41.7,12.3,76.1,40.2,96.9,78.4c20.8,38.2,25.4,82.2,13.1,123.9
				c-2.2,7.5-5,14.9-8.3,22c-2.7,6-0.1,13.1,5.9,15.8c2.9,1.3,6.1,1.4,9.1,0.3c3-1.1,5.4-3.3,6.7-6.2c3.7-8.1,6.9-16.6,9.4-25.2
				c14.1-47.8,8.8-98.3-15-142.1c-23.8-43.8-63.3-75.8-111.1-89.9C242.4,184.3,224.5,181.8,206.8,181.8z"/>
		</g>
	</g>
</g>
<g>
	<g>
		<g>
			<path class="st0" d="M206.1,259.7c-58,0.5-105.6,47.2-107.1,105.2c-1.2,48.7,29.9,90.4,73.5,105.1c5.6,1.9,11.8-1,13.5-6.7
				c1.1-3.7,0.3-8.3-5.9-13.5c-35.7-11.7-61.2-46-59.5-85.8c1.9-45.6,39.5-82.1,85.1-82.8c48.3-0.7,87.8,38.3,87.8,86.5
				c0,8.9-1.4,17.6-4,26c-2,6.5,8.5,16.5,17.3,5.9c4.6-5.5,8.2-26.6,8.2-31.9C315,307.8,266.1,259.2,206.1,259.7z"/>
			<path class="st0" d="M176,472.1c-1.3,0-2.7-0.2-4-0.6c-21.7-7.3-40.9-21.7-54.3-40.4c-13.8-19.4-20.8-42.3-20.2-66.2
				c0.7-28.4,12.4-55.1,32.8-75.2c20.4-20.1,47.3-31.2,75.8-31.5c0.3,0,0.6,0,0.9,0c29,0,56.4,11.3,77.1,31.8
				c20.9,20.7,32.4,48.3,32.4,77.7c0,5.5-3.5,26.9-8.5,32.9c-4.2,5.1-9.6,6.5-14.4,3.9c-4.3-2.3-6.7-7.3-5.5-11.2
				c2.6-8.3,3.9-16.9,3.9-25.5c0-22.9-9-44.4-25.4-60.5c-16.4-16.1-38-24.8-60.9-24.4c-45,0.7-81.8,36.4-83.6,81.4
				c-1.6,37.8,22.5,72.5,58.5,84.3l0.3,0.1l0.2,0.2c5.8,4.8,7.9,9.9,6.4,15.1c-0.9,3-3,5.5-5.8,6.9
				C179.9,471.6,177.9,472.1,176,472.1z M206.1,259.7l0,1.5c-56.8,0.5-104.2,47-105.6,103.7c-1.2,47,27.9,88.6,72.4,103.7
				c2.4,0.8,5,0.6,7.3-0.5c2.1-1.1,3.7-2.9,4.3-5.1c1.2-3.8-0.6-7.8-5.2-11.7c-37.1-12.3-61.9-48.1-60.3-87.2
				c1.9-46.5,39.9-83.6,86.6-84.3c23.7-0.4,46.1,8.6,63.1,25.3c16.9,16.7,26.3,38.9,26.3,62.7c0,8.9-1.4,17.8-4.1,26.4
				c-0.8,2.5,1.1,6.1,4.1,7.7c3.5,1.9,7.4,0.8,10.7-3.2c4.2-5.1,7.9-25.8,7.9-31c0-28.6-11.2-55.4-31.5-75.6
				c-20.3-20.2-47.3-31.2-75.8-30.9L206.1,259.7z"/>
		</g>
	</g>
</g>
<g>
	<g>
		<g>
			<path class="st0" d="M343.7,597.4L308,529.6c-3.1-6-10.5-8.2-16.5-5.1c-6,3.1-8.2,10.5-5.1,16.5l35.7,67.8
				c2.2,4.1,6.4,6.5,10.8,6.5c1.9,0,3.9-0.5,5.7-1.4C344.5,610.8,346.8,603.4,343.7,597.4z"/>
			<path class="st0" d="M332.9,616.8c-5.1,0-9.7-2.8-12.1-7.3l-35.7-67.8c-1.7-3.2-2-6.9-1-10.4s3.5-6.4,6.7-8.1
				c6.7-3.5,15-0.9,18.5,5.7l35.7,67.8c3.5,6.7,0.9,15-5.7,18.5C337.3,616.3,335.1,616.8,332.9,616.8z M297.2,524.6
				c-1.7,0-3.4,0.4-5,1.2c-2.5,1.3-4.4,3.6-5.2,6.3s-0.6,5.6,0.8,8.1l35.7,67.8c1.9,3.5,5.5,5.7,9.5,5.7c1.7,0,3.4-0.4,5-1.2
				c5.2-2.7,7.2-9.2,4.5-14.4l-35.7-67.8C304.7,526.7,301,524.6,297.2,524.6z"/>
		</g>
	</g>
</g>
</svg>
