<?xml version="1.0" encoding="utf-8"?>
<!-- Generator: Adobe Illustrator 19.0.0, SVG Export Plug-In . SVG Version: 6.00 Build 0)  -->
<svg version="1.1" id="Isolation_Mode" xmlns="http://www.w3.org/2000/svg" xmlns:xlink="http://www.w3.org/1999/xlink" x="0px"
	 y="0px" viewBox="0 0 512 512" style="enable-background:new 0 0 512 512;" xml:space="preserve">
<style type="text/css">
	.st0{fill:url(#SVGID_1_);}
</style>
<linearGradient id="SVGID_1_" gradientUnits="userSpaceOnUse" x1="255.9972" y1="136" x2="255.9972" y2="568.0417">
	<stop  offset="0.1374" style="stop-color:#FFFFFF"/>
	<stop  offset="0.8171" style="stop-color:#C9D4E9"/>
</linearGradient>
<path class="st0" d="M66.6,380.5h21v-63.1h-21V380.5z M445.6,317.3h-21v63.1h21V317.3z M246.1,380.5h21v-63.1h-21V380.5z M266.6,191
	v20.2h-21V191c0-5.8,4.7-10.5,10.5-10.5C261.8,180.5,266.6,185.2,266.6,191z M224.5,191v41.2h63.1V191c0-17.4-14.2-31.6-31.6-31.6
	C238.6,159.5,224.5,173.6,224.5,191z M487.3,454.2H371.8V180c0-5.8-4.7-10.5-10.5-10.5c-5.8,0-10.5,4.7-10.5,10.5v274.1H161.3V180
	c0-5.8-4.7-10.5-10.5-10.5c-5.8,0-10.5,4.7-10.5,10.5v274.1H24.4V197.4L256.2,63.7l231.2,133.6L487.3,454.2z M256.2,39.4L3.4,185.2
	v290h505l0.3-289.9L256.2,39.4z"/>
</svg>
