<?xml version="1.0" encoding="utf-8"?>
<!-- Generator: Adobe Illustrator 19.0.0, SVG Export Plug-In . SVG Version: 6.00 Build 0)  -->
<svg version="1.1" id="Capa_1" xmlns="http://www.w3.org/2000/svg" xmlns:xlink="http://www.w3.org/1999/xlink" x="0px" y="0px"
	 viewBox="-49 141 512 512" style="enable-background:new -49 141 512 512;" xml:space="preserve">
<style type="text/css">
	.st0{fill:#FFFFFF;}
	.st1{clip-path:url(#SVGID_3_);}
	.st2{clip-path:url(#SVGID_4_);}
	.st3{clip-path:url(#SVGID_6_);fill:url(#SVGID_7_);}
</style>
<path class="st0" d="M207.1,161c2.6,0,5.2-1.1,7.1-2.9c1.9-1.9,2.9-4.4,2.9-7.1s-1.1-5.2-2.9-7.1c-1.9-1.9-4.4-2.9-7.1-2.9
	s-5.2,1.1-7.1,2.9c-1.9,1.9-2.9,4.4-2.9,7.1s1.1,5.2,2.9,7.1C201.9,159.9,204.5,161,207.1,161z"/>
<g>
	<defs>
		<path id="SVGID_1_" d="M333.4,390.1v-29.3c0-19.3-13.8-35.9-32.8-39.4l-55.2-10v-12.6c3.2-3.1,5.9-6.7,8-10.8l11.8-23.6
			c2.8-5.5,4.2-11.7,4.2-17.9V208c0-13.6-7.3-25.9-19.2-32.4l-8.2-8.2c-11.1-11.1-25.9-17.3-41.7-17.3c-32.5,0-58.9,26.4-58.9,58.9
			v37.5c0,6.2,1.5,12.4,4.2,17.9l11.8,23.6c2.1,4.1,4.8,7.7,8,10.8v12.6l-55.2,10c-19,3.5-32.8,20-32.8,39.4v29.3H24.9l-51.5,85.8
			v42.2h16v112h-16v16h80v-16h-16v-16h40v-16h-40v-16h336v16h-280v16h280v16h-16v16h80v-16h-16v-112h16v-42.2l-51.5-85.8H333.4z
			 M200.3,166.1c11.5,0,22.2,4.5,30.3,12.6l10,10l1.2,0.6c7.1,3.6,11.6,10.7,11.6,18.7v6.1H228c-12.5,0-24.2-4.8-33-13.7l-5.7-5.7
			l-5.7,5.7c-7.2,7.2-16.4,11.7-26.3,13.1V209C157.4,185.3,176.6,166.1,200.3,166.1L200.3,166.1z M159.9,257.3
			c-1.7-3.3-2.5-7-2.5-10.7v-17c11.7-1.2,22.8-5.5,32-12.8c11,8.6,24.4,13.3,38.6,13.3h25.4v16.4c0,3.7-0.9,7.4-2.5,10.7l-11.8,23.6
			c-4.1,8.2-12.3,13.3-21.5,13.3h-24.4c-9.2,0-17.4-5.1-21.5-13.3L159.9,257.3z M193.2,310.1h24.4c4.1,0,8-0.6,11.8-1.8v8.3
			c-1.7,4-8.5,17.5-24,17.5c-15.5,0-22.3-13.5-24-17.5v-8.3C185.1,309.4,189.1,310.1,193.2,310.1L193.2,310.1z M93.4,360.8
			c0-11.6,8.3-21.5,19.7-23.6l55.6-10.1c4.7,8.7,15.7,23,36.7,23c21,0,31.9-14.3,36.7-23l55.6,10.1c11.4,2.1,19.7,12,19.7,23.6v29.3
			h-224V360.8z M33.9,406.1h342.9l38.4,64H-4.5L33.9,406.1z M5.4,630.1v-112h16v112H5.4z M37.4,566.1v-16h280v-16h-280v-16h336v16
			h-40v16h40v16H37.4z M405.4,630.1h-16v-112h16V630.1z M-10.6,502.1v-16h432v16H-10.6z M37.4,198.1h-16v-16h16V198.1z M69.4,198.1
			h-16v-16h16V198.1z M-10.6,182.1h16v16h-16V182.1z M69.4,263.2v-33.1h32v-80h-144v80h72.3L69.4,263.2z M-26.6,166.1h112v48h-32
			V229l-17.9-14.9h-62.1V166.1z M293.4,262.1h48v33.1l39.7-33.1h72.3v-112h-160V262.1z M309.4,166.1h128v80h-62.1L357.4,261v-14.9
			h-48V166.1z M421.4,198.1h-96v-16h96V198.1z M421.4,230.1h-96v-16h96V230.1z M61.4,358.1h-104v-88h16v72h16v-48h16v48h16v-24h16
			v24h24V358.1z M413.4,294.1h40v40h-16v-12.7l-32,32l-16-16L363,363.8l-11.3-11.3l37.7-37.7l16,16l20.7-20.7h-12.7V294.1z
			 M413.4,294.1"/>
	</defs>
	<defs>
		<rect id="SVGID_2_" x="-42.6" y="150.1" width="496" height="496"/>
	</defs>
	<clipPath id="SVGID_3_">
		<use xlink:href="#SVGID_1_"  style="overflow:visible;"/>
	</clipPath>
	<clipPath id="SVGID_4_" class="st1">
		<use xlink:href="#SVGID_2_"  style="overflow:visible;"/>
	</clipPath>
	<g class="st2">
		<defs>
			<rect id="SVGID_5_" x="-42.6" y="150" width="496.1" height="496.1"/>
		</defs>
		<clipPath id="SVGID_6_">
			<use xlink:href="#SVGID_5_"  style="overflow:visible;"/>
		</clipPath>
		<linearGradient id="SVGID_7_" gradientUnits="userSpaceOnUse" x1="207" y1="181.1012" x2="207" y2="647.7322">
			<stop  offset="0" style="stop-color:#FFFFFF"/>
			<stop  offset="1" style="stop-color:#C0CBDE"/>
		</linearGradient>
		<rect x="-49" y="141" class="st3" width="512" height="517.1"/>
	</g>
</g>
</svg>
