<?xml version="1.0" encoding="utf-8"?>
<!-- Generator: Adobe Illustrator 19.0.0, SVG Export Plug-In . SVG Version: 6.00 Build 0)  -->
<svg version="1.1" id="Capa_1" xmlns="http://www.w3.org/2000/svg" xmlns:xlink="http://www.w3.org/1999/xlink" x="0px" y="0px"
	 viewBox="-49 141 512 512" style="enable-background:new -49 141 512 512;" xml:space="preserve">
<style type="text/css">
	.st0{fill:url(#SVGID_1_);}
	.st1{clip-path:url(#SVGID_3_);fill:#FFFFFF;}
	.st2{clip-path:url(#SVGID_3_);fill:url(#SVGID_4_);}
	.st3{clip-path:url(#SVGID_3_);fill:url(#SVGID_5_);}
	.st4{fill:url(#SVGID_6_);}
</style>
<g>
	<linearGradient id="SVGID_1_" gradientUnits="userSpaceOnUse" x1="208.7901" y1="265.3601" x2="208.7901" y2="466.5102">
		<stop  offset="0" style="stop-color:#FFFFFF"/>
		<stop  offset="1" style="stop-color:#C0CBDE"/>
	</linearGradient>
	<path class="st0" d="M232.4,345.6c-7.3-5.6-14.7-7.1-21.2-8.4c-2.4-0.5-4.6-0.9-6.8-1.5c-5.1-1.4-9.5-5.4-11.2-10.2
		c-2.2-6.4,0.4-13.4,6.6-17.4c5.1-3.3,11.7-3.6,16.8-0.8c2.5,1.4,6.7,4.6,6.7,11.4c0,5.3,4.3,9.6,9.6,9.6c5.3,0,9.6-4.3,9.6-9.6
		c0-12-6.3-22.6-16.7-28.3c-2.7-1.5-5.6-2.6-8.6-3.3v-1.7c0-5.3-4.3-9.6-9.6-9.6c-5.3,0-9.6,4.3-9.6,9.6v2.5c-3,1-5.9,2.3-8.7,4.1
		c-13.5,8.8-19.4,25.1-14.3,39.8c3.7,10.8,13,19.4,24.2,22.5c2.9,0.8,5.7,1.4,8.2,1.9c5.5,1.1,9.6,1.9,13.3,4.8
		c2.9,2.2,7.7,6.9,7.7,13.6c0,6.4-3.9,12.4-10.3,15.8c-2.8,1.5-6.4,2.6-10.2,2.7c-0.1,0-0.3,0-0.4,0c-0.1,0-0.3,0-0.4,0
		c-3.2-0.1-6.5-0.9-9.5-2.9c-5.3-3.5-8.5-10.3-8.5-18.1c0-5.3-4.3-9.6-9.6-9.6c-5.3,0-9.6,4.3-9.6,9.6c0,14.3,6.4,27,17.1,34.1
		c3.4,2.2,7.1,3.9,11,4.9v1c0,5.3,4.3,9.6,9.6,9.6c5.3,0,9.6-4.3,9.6-9.6v-0.9c3.4-0.8,6.8-2.1,10-3.9c12.8-6.9,20.5-19.1,20.5-32.8
		C247.7,363.5,242.1,353,232.4,345.6L232.4,345.6z M232.4,345.6"/>
	<g>
		<defs>
			<rect id="SVGID_2_" x="-36.9" y="215.3" width="487" height="405.2"/>
		</defs>
		<clipPath id="SVGID_3_">
			<use xlink:href="#SVGID_2_"  style="overflow:visible;"/>
		</clipPath>
		<path class="st1" d="M64.9,427.3c-2-4.9-7.6-7.3-12.5-5.3c-4.9,2-7.3,7.6-5.3,12.5l0.1,0.4c1.5,3.7,5.1,6,8.9,6
			c1.2,0,2.4-0.2,3.6-0.7c4.9-2,7.3-7.6,5.3-12.5L64.9,427.3z M64.9,427.3"/>
		<linearGradient id="SVGID_4_" gradientUnits="userSpaceOnUse" x1="206.5998" y1="202.3013" x2="206.5998" y2="613.2222">
			<stop  offset="0" style="stop-color:#FFFFFF"/>
			<stop  offset="1" style="stop-color:#C0CBDE"/>
		</linearGradient>
		<path class="st2" d="M432.7,361.8c-6.4-7-14.2-12.5-22.7-16.2c12.3-13,19.9-30.6,19.9-49.9c0-40.1-32.6-72.7-72.7-72.7
			c-23.9,0-45.1,11.5-58.3,29.3c-24.3-23.6-56.9-37-91.1-37c-34.9,0-67.9,13.8-92.4,38.2C102.1,235,80.4,223,56.1,223
			c-40.1,0-72.7,32.6-72.7,72.7c0,19.3,7.6,36.9,19.9,49.9c-8.6,3.7-16.3,9.2-22.8,16.2c-11.2,12.2-17.3,28.1-17.3,44.6v60.2
			c0,15.7,12.8,28.4,28.4,28.4c3.2,0,6.3-0.5,9.2-1.5v116.8c0,5.3,4.3,9.6,9.6,9.6h91.3c5.3,0,9.6-4.3,9.6-9.6V493.5
			c2.9,1,6,1.6,9.3,1.6c15.7,0,28.4-12.8,28.4-28.4V463c18.1,9.1,38.1,13.9,58.7,13.9c19.7,0,39-4.4,56.6-12.8v2.6
			c0,15.7,12.8,28.4,28.4,28.4c3.2,0,6.3-0.5,9.2-1.5v14.8c0,5.3,4.3,9.6,9.6,9.6c5.3,0,9.6-4.3,9.6-9.6v-19.1h72v111.6h-26.4v-76.8
			c0-5.3-4.3-9.6-9.6-9.6c-5.3,0-9.6,4.3-9.6,9.6v76.8h-26.4v-14.5c0-5.3-4.3-9.6-9.6-9.6s-9.6,4.3-9.6,9.6v24.1
			c0,5.3,4.3,9.6,9.6,9.6h91.3c5.3,0,9.6-4.3,9.6-9.6V493.5c2.9,1,6,1.6,9.3,1.6c15.7,0,28.4-12.8,28.4-28.4v-60.2
			C450.1,389.9,443.9,374,432.7,361.8L432.7,361.8z M357.1,242.2c29.5,0,53.5,24,53.5,53.5c0,29.5-24,53.5-53.5,53.5
			c-29.5,0-53.5-24-53.5-53.5C303.6,266.2,327.6,242.2,357.1,242.2L357.1,242.2z M56.1,242.2c29.5,0,53.5,24,53.5,53.5
			c0,29.5-24,53.5-53.5,53.5c-29.5,0-53.5-24-53.5-53.5C2.5,266.2,26.6,242.2,56.1,242.2L56.1,242.2z M92,600.7H65.6v-76.8
			c0-5.3-4.3-9.6-9.6-9.6s-9.6,4.3-9.6,9.6v76.8H20V489.1h72V600.7z M129.8,466.6c0,5.1-4.1,9.2-9.2,9.2c-5.1,0-9.2-4.1-9.2-9.2
			c0-0.4,0-0.9-0.1-1.3v-38.2c0-5.3-4.3-9.6-9.6-9.6c-5.3,0-9.6,4.3-9.6,9.6v42.8H20v-42.8c0-5.3-4.3-9.6-9.6-9.6
			c-5.3,0-9.6,4.3-9.6,9.6v39.5c0,5.1-4.1,9.2-9.2,9.2c-5.1,0-9.2-4.1-9.2-9.2v-60.2c0-23.5,17-43,39.9-46.4
			c7.4,3.9,15.6,6.6,24.2,7.7v31.6c0,5.3,4.3,9.6,9.6,9.6c5.3,0,9.6-4.3,9.6-9.6v-31.6c8.6-1.1,16.8-3.8,24.2-7.7
			c22.9,3.4,39.9,22.9,39.9,46.4V466.6z M207.7,457.6c-20.9,0-41.1-5.7-58.7-16.7v-34.5c0-16.6-6.2-32.4-17.3-44.6
			c-6.4-7-14.2-12.5-22.7-16.2c12.3-13,19.9-30.6,19.9-49.9c0-8.5-1.5-16.6-4.1-24.2c21.2-23.6,51.1-37,83-37
			c31,0,60.4,12.8,81.5,35.4c-3.1,8-4.7,16.7-4.7,25.8c0,19.3,7.6,36.9,19.9,49.9c-8.6,3.7-16.3,9.2-22.8,16.2
			c-11.2,12.2-17.3,28.1-17.3,44.6v35.8C247.1,452.3,227.7,457.6,207.7,457.6L207.7,457.6z M430.8,466.6c0,5.1-4.1,9.2-9.2,9.2
			c-5.1,0-9.2-4.1-9.2-9.2c0-0.4,0-0.9-0.1-1.3v-38.2c0-5.3-4.3-9.6-9.6-9.6c-5.3,0-9.6,4.3-9.6,9.6v42.8h-72v-42.8
			c0-5.3-4.3-9.6-9.6-9.6s-9.6,4.3-9.6,9.6v39.5c0,5.1-4.1,9.2-9.2,9.2s-9.2-4.1-9.2-9.2v-60.2c0-23.5,17-43,39.9-46.4
			c7.4,3.9,15.6,6.6,24.2,7.7v63.3c0,5.3,4.3,9.6,9.6,9.6c5.3,0,9.6-4.3,9.6-9.6v-63.3c8.6-1.1,16.8-3.8,24.2-7.7
			c22.9,3.4,39.9,22.9,39.9,46.4V466.6z M430.8,466.6"/>
		<linearGradient id="SVGID_5_" gradientUnits="userSpaceOnUse" x1="-218.7552" y1="277.2464" x2="-218.7552" y2="636.8415">
			<stop  offset="0" style="stop-color:#FFFFFF"/>
			<stop  offset="1" style="stop-color:#C0CBDE"/>
		</linearGradient>
		<path class="st3" d="M-218.8,394.1c-40.3,0-83.7,9.5-83.7,30.4v182.6c0,20.9,43.4,30.4,83.7,30.4s83.7-9.5,83.7-30.4V424.6
			C-135.1,403.7-178.4,394.1-218.8,394.1z M-150.3,576.6c-1.1,4.2-24,15.3-68.5,15.3s-67.3-11.1-68.5-15.2v-12
			c16.2,8.2,42.9,12,68.5,12s52.3-3.8,68.5-12V576.6z M-150.3,546.2c-1.1,4.2-24,15.3-68.5,15.3s-67.3-11.1-68.5-15.2v-12
			c16.2,8.2,42.9,12,68.5,12s52.3-3.8,68.5-12V546.2z M-150.3,515.8c-1.1,4.2-24,15.3-68.5,15.3s-67.3-11.1-68.5-15.2v-12
			c16.2,8.2,42.9,12,68.5,12s52.3-3.8,68.5-12V515.8z M-150.3,485.3c-1.1,4.2-24,15.3-68.5,15.3s-67.3-11.1-68.5-15.2v-12
			c16.2,8.1,42.9,12,68.5,12s52.3-3.8,68.5-12V485.3z M-150.3,454.9c-1.1,4.2-24,15.3-68.5,15.3s-67.3-11.1-68.5-15.2v-12
			c16.2,8.1,42.9,12,68.5,12s52.3-3.8,68.5-12V454.9z M-218.8,409.4c44.1,0,67,10.9,68.5,15.2c-1.5,4.3-24.3,15.2-68.5,15.2
			c-44.4,0-67.3-11.1-68.5-15.1v0C-286,420.4-263.2,409.4-218.8,409.4z M-218.8,622.4c-44.5,0-67.3-11.1-68.5-15.2v-12
			c16.2,8.2,42.9,12,68.5,12s52.3-3.8,68.5-12v11.9C-151.4,611.3-174.2,622.4-218.8,622.4z"/>
	</g>
	<linearGradient id="SVGID_6_" gradientUnits="userSpaceOnUse" x1="311.4591" y1="265.3601" x2="311.4591" y2="466.5102">
		<stop  offset="0" style="stop-color:#FFFFFF"/>
		<stop  offset="1" style="stop-color:#C0CBDE"/>
	</linearGradient>
	<path class="st4" d="M302.6,550.9c1.5,3.7,5.1,6,8.9,6c1.2,0,2.4-0.2,3.6-0.7c4.9-2,7.3-7.6,5.3-12.5l-0.2-0.4
		c-2-4.9-7.6-7.3-12.5-5.3c-4.9,2-7.3,7.6-5.3,12.5L302.6,550.9z M302.6,550.9"/>
</g>
</svg>
