<?xml version="1.0" encoding="utf-8"?>
<!-- Generator: Adobe Illustrator 19.0.0, SVG Export Plug-In . SVG Version: 6.00 Build 0)  -->
<svg version="1.1" id="Capa_1" xmlns="http://www.w3.org/2000/svg" xmlns:xlink="http://www.w3.org/1999/xlink" x="0px" y="0px"
	 viewBox="5 -1.3 26.8 26.8" style="enable-background:new 5 -1.3 26.8 26.8;" xml:space="preserve">
<style type="text/css">
	.st0{fill:#C0B08B;}
</style>
<g>
	<path class="st0" d="M26.6,19.3c-1-0.8-1.7-1.7-2.2-2.9c-0.5-1.2-0.8-2.4-0.8-3.6c0-1.8,0.5-3.5,1.5-5.2c1-1.6,2.2-2.8,3.8-3.7
		c-2.5-3.2-6.3-5.2-10.6-5.2C11-1.3,5,4.7,5,12.1c0,7.4,6,13.4,13.4,13.4c4.2,0,8-1.9,10.4-5C28,20.2,27.3,19.8,26.6,19.3z M21,18.2
		c-1,1-2.8,1.9-5.5,2.6l-5-3.8l1.8-1.8l5.5,4.2c0.5-0.4,0.8-0.9,1-1.3c0.2-0.5,0.3-1.1,0.3-1.8c0-1.3-0.4-2.4-1.2-3.2
		c-0.8-0.8-1.8-1.2-3.1-1.2c-0.4,0-0.9,0-1.3,0.1v-0.9h0.2c1.4,0,2.6-0.4,3.3-1.2c0.8-0.8,1.2-1.8,1.2-3.2c0-0.5-0.1-0.9-0.3-1.1
		c-0.2-0.2-0.4-0.3-0.6-0.3c-0.2,0-0.5,0.1-0.8,0.4l-0.2,0.1L13,8.3l-1.6-1.7l4-2.9l5.8,2.5c0.1,0.3,0.1,0.6,0.1,0.8
		c0,1-0.3,1.9-0.9,2.6c-0.6,0.7-1.4,1.4-2.4,1.9c1.4,0.3,2.4,0.9,3.1,1.6c0.7,0.8,1,1.6,1,2.5C22.1,16.6,21.8,17.5,21,18.2z"/>
	<path class="st0" d="M25.4,10.7c0,1.3,0.3,2.5,0.8,3.6c0.6,1.1,1.3,2.1,2.4,2.8c0.6,0.4,1.2,0.7,1.7,1c0.9-1.8,1.4-3.9,1.4-6
		c0-1.3-0.2-2.6-0.5-3.8c-0.2-0.2-0.5-0.4-0.7-0.6c-1-0.7-2.1-1.3-3.4-1.7C26,7.3,25.4,8.8,25.4,10.7z"/>
</g>
</svg>
