<?xml version="1.0" encoding="utf-8"?>
<!-- Generator: Adobe Illustrator 19.0.0, SVG Export Plug-In . SVG Version: 6.00 Build 0)  -->
<svg version="1.1" id="Layer_1" xmlns="http://www.w3.org/2000/svg" xmlns:xlink="http://www.w3.org/1999/xlink" x="0px" y="0px"
	 viewBox="0 0 30 30" style="enable-background:new 0 0 30 30;" xml:space="preserve">
<style type="text/css">
	.st0{fill:#FFFFFF;}
</style>
<path id="XMLID_9_" class="st0" d="M22.1,14.2c-0.2,0-0.4,0-0.6,0c1.3-1.5,2.1-3.5,2.1-5.6C23.6,3.9,19.7,0,15,0c0,0,0,0-0.1,0
	c0,0-0.1,0-0.1,0C10,0,6.1,3.9,6.1,8.6c0,3,1.5,5.6,3.8,7.2c-2.1,0.7-4,1.9-5.6,3.5C1.5,22.2,0,25.9,0,29.9h2.3
	C2.3,23,8,17.4,14.9,17.3c0.3,0,0.6,0,1,0c-1,1.3-1.6,3-1.6,4.8c0,4.4,3.5,7.9,7.9,7.9c4.3,0,7.9-3.5,7.9-7.9
	C30,17.8,26.4,14.2,22.1,14.2z M14.9,15c-3.4,0-6.2-2.9-6.2-6.3s2.8-6.3,6.2-6.3c0.4,0,0.8,0,1.2,0.1c0,0,0.1,0,0.1,0
	c0.4,0.1,0.7,0.2,1.1,0.3c0,0-0.1,0-0.1,0c2.3,0.9,4,3.2,4,5.9C21.1,12.1,18.3,14.9,14.9,15z M17.7,26.7l0.7-2.5l1.9,1.9L17.7,26.7z
	 M27.2,19.7l-6,6l-2.3-2.3l6-6l0,0c0.5-0.4,1.1-0.3,1.6,0.1l0.6,0.6C27.5,18.5,27.5,19.2,27.2,19.7L27.2,19.7z"/>
</svg>
