<?xml version="1.0" encoding="utf-8"?>
<!-- Generator: Adobe Illustrator 19.0.0, SVG Export Plug-In . SVG Version: 6.00 Build 0)  -->
<svg version="1.1" id="Capa_1" xmlns="http://www.w3.org/2000/svg" xmlns:xlink="http://www.w3.org/1999/xlink" x="0px" y="0px"
	 viewBox="-49 141.5 529 514" style="enable-background:new -49 141.5 529 514;" xml:space="preserve">
<style type="text/css">
	.st0{fill:#BFAF8A;}
	.st1{opacity:0.3;fill:#BFAF8A;}
</style>
<g>
	<path class="st0" d="M328.5,386.5c-3.2,0-6.4,0.1-9.5,0.3c22-25.8,35.2-59.2,35.2-95.6c0-81.4-66.3-147.7-147.7-147.7
		c-0.4,0-0.9,0-1.3,0c-0.5,0-1,0-1.5,0C122.3,143.5,56,209.8,56,291.2c0,50.9,25.8,95.8,65.1,122.4c-35.4,12.5-67.9,32.9-95.3,60.2
		C-22.4,522.1-49,586.3-49,654.5h39.9c0-118.4,96-214.8,214.2-215.6c5.5,0,10.9,0.3,16.3,0.7C204.2,462.3,194,490.4,194,521
		c0,74.3,60.2,134.5,134.5,134.5S463,595.3,463,521S402.8,386.5,328.5,386.5z M205.1,399c-58.8-0.8-106.4-48.8-106.4-107.8
		c0-59,47.6-107,106.4-107.8c7,0.1,13.8,0.8,20.4,2.2c0.5-0.1,1-0.2,1.6-0.2c6.3,1.2,12.4,3,18.2,5.2c-0.8,0.1-1.6,0.1-2.4,0.2
		c40.1,15.7,68.6,54.8,68.6,100.4C311.5,350.2,263.9,398.2,205.1,399z M415.3,543.8c-6.4,0-11.5-5.1-11.5-11.5v-34.6l-66.1,63.7
		l-14.7,2.7l-26.8-11.6l-39.4,33.7c-2.5,2.2-5.7,3.3-8.8,3.3c-3.8,0-7.6-1.6-10.3-4.7c-4.9-5.7-4.2-14.2,1.5-19l45.8-39.2l14.1-2.1
		l26.3,11.4l58.3-56.2l-34.2-1.1c-7.5-0.2-13.3-6.5-13.1-13.9s6.5-13.3,13.9-13.1l62,2c6.5,0.2,11.7,4.9,12.8,11.1
		c1,1.7,1.6,3.7,1.6,5.8v62C426.8,538.7,421.7,543.8,415.3,543.8z"/>
	<path class="st1" d="M345.5,384.5c-3.2,0-6.4,0.1-9.5,0.3c22-25.8,35.2-59.2,35.2-95.6c0-81.4-66.3-147.7-147.7-147.7
		c-0.4,0-0.9,0-1.3,0c-0.5,0-1,0-1.5,0C139.3,141.5,73,207.8,73,289.2c0,50.9,25.8,95.8,65.1,122.4c-35.4,12.5-67.9,32.9-95.3,60.2
		C-5.4,520.1-32,584.3-32,652.5H7.9c0-118.4,96-214.8,214.2-215.6c5.5,0,10.9,0.3,16.3,0.7C221.2,460.3,211,488.4,211,519
		c0,74.3,60.2,134.5,134.5,134.5S480,593.3,480,519S419.8,384.5,345.5,384.5z M222.1,397c-58.8-0.8-106.4-48.8-106.4-107.8
		c0-59,47.6-107,106.4-107.8c7,0.1,13.8,0.8,20.4,2.2c0.5-0.1,1-0.2,1.6-0.2c6.3,1.2,12.4,3,18.2,5.2c-0.8,0.1-1.6,0.1-2.4,0.2
		c40.1,15.7,68.6,54.8,68.6,100.4C328.5,348.2,280.9,396.2,222.1,397z M432.3,541.8c-6.4,0-11.5-5.1-11.5-11.5v-34.6l-66.1,63.7
		l-14.7,2.7l-26.8-11.6l-39.4,33.7c-2.5,2.2-5.7,3.3-8.8,3.3c-3.8,0-7.6-1.6-10.3-4.7c-4.9-5.7-4.2-14.2,1.5-19l45.8-39.2l14.1-2.1
		l26.3,11.4l58.3-56.2l-34.2-1.1c-7.5-0.2-13.3-6.5-13.1-13.9s6.5-13.3,13.9-13.1l62,2c6.5,0.2,11.7,4.9,12.8,11.1
		c1,1.7,1.6,3.7,1.6,5.8v62C443.8,536.7,438.7,541.8,432.3,541.8z"/>
</g>
</svg>
