<?xml version="1.0" encoding="utf-8"?>
<!-- Generator: Adobe Illustrator 19.0.0, SVG Export Plug-In . SVG Version: 6.00 Build 0)  -->
<svg version="1.1" id="Layer_1" xmlns="http://www.w3.org/2000/svg" xmlns:xlink="http://www.w3.org/1999/xlink" x="0px" y="0px"
	 viewBox="0 0 537 167.6" style="enable-background:new 0 0 537 167.6;" xml:space="preserve">
<style type="text/css">
	.st0{fill:#273E94;}
	.st1{opacity:0.3;}
	.st2{fill:#ABE0F9;}
</style>
<g id="XMLID_2721_">
	<g id="XMLID_2642_">
		<g id="XMLID_2715_">
			<path id="XMLID_3000_" class="st0" d="M518.7,131.2l-12.2,13.9c0,0-0.9,1.1-2.3,2.6c-2.6,2.9-7,7.6-10.6,10.1
				c-12.1,8.7-24.4,0.9-27.7-2.5c-5.6-5.6-6.7-15.3-6.7-20.3V58.7c0-1.1-0.2-2.2,0-3.3V22.2c0-4,1.3-7.6,4-10.7
				c3.3-3.8,7.4-5.8,12.5-5.8h0.4c4.9,0,9,1.9,12.3,5.6c2.8,3.1,4.2,6.8,4.2,11.2v20h11.1c4,0,7.4,1.3,10.3,4c0,0,0.1,0.1,0.1,0.1
				c2.9,3,4.3,6.6,4.3,10.6c0,4.3-1.6,7.9-4.7,10.8c-1.2,1.2-2.6,2.1-4,2.7c-1.8,0.8-3.8,1.2-6,1.2h-11.1l-0.4,1.8v43.5
				c0,4.7,1,9,3.3,11.9C499.3,133.9,506.5,135.5,518.7,131.2z"/>
			<g id="XMLID_2995_">
				<g id="XMLID_18_">
					<path id="XMLID_19_" class="st0" d="M426.6,65.5v79.7c0,3.6-1,6.7-2.9,9.4c-0.4,0.7-0.9,1.3-1.5,1.9c-3.3,3.6-7.3,5.3-12.3,5.3
						c-4.6,0-8.6-1.6-11.8-4.9c-3.3-3.3-4.9-7.2-4.9-11.8V65.2c0-4,1.3-7.5,4-10.6c3.3-3.9,7.4-5.8,12.4-5.8h0.4
						c4.9,0,9,1.8,12.3,5.6C425.1,57.5,426.6,61.2,426.6,65.5z"/>
				</g>
			</g>
			<path id="XMLID_2994_" class="st0" d="M120.3,110.1v0.6c0,0.9,0,1.8-0.2,2.6c-0.2,1.5-0.5,3-1.1,4.5c-1,2.2-2.5,4.2-4.4,5.8
				c-3.1,2.7-6.8,4-11,4c-3.3,0-6.2-0.8-8.9-2.5c-2.7-1.6-4.7-3.8-6-6.7c-1.2-2.2-1.8-4.8-1.8-7.6c0-2.5,0.5-4.8,1.4-6.9
				c0.3-0.7,0.7-1.3,1.1-1.9c0-0.2,0.2-0.3,0.2-0.5c1.3-1.9,2.9-3.5,4.8-4.8c2.7-1.8,5.8-2.7,9.2-2.7c4.2,0,7.9,1.3,11.2,4
				c2.2,2.1,3.8,4.6,4.7,7.4C120,107,120.3,108.5,120.3,110.1z"/>
			<g id="XMLID_2720_">
				<g id="XMLID_28_">
					<path id="XMLID_29_" class="st0" d="M262.1,139.6l-1.3-2.7l-2.4-4.3l-1.5-2.6l-6.4-11.5l-1.3-2.3l-1.5-2.7l-7.1-12.7l-3.2-5.7
						l-23.6-42.3l-21.1-37.7c-1.2-2.2-2.8-4.2-4.9-5.8c-1.3-1-2.9-1.9-4.7-2.5c-1.6-0.6-3.4-0.9-5.4-0.9c-3.4,0-6.5,1-9.3,2.9
						c-2.5,1.6-4.5,3.8-5.8,6.5l-13.7,25.1c0,0,0,0,0,0.1c-0.2,0.3-0.2,0.6-0.1,0.8c0.2,0.5,0.6,0.9,1.2,0.9c1.8,0,4.2,0,6.5,0.1
						c0,0,0,0,0,0c2.4,0,4.8,0.2,6.6,0.4c1.2,0.2,2.2,0.4,2.8,0.7c0.2,0.2,0.3,0.1,0.4,0.2c0.3,0.2,0.6,0.3,0.9,0.5
						c1.3,0.7,2.5,1.6,3.6,2.7c1.5,1.5,2.7,3.1,3.8,4.8l28.6,51l3.6,6.4l8.6,15.3l0.1,0.1l1.3,2.4c0,0,0,0,0,0l2.4,4.2l4.1,7.4
						l4.8,8.4l3.5,6.2c1.5,2.7,3.5,4.8,6.2,6.5c2.7,1.6,5.6,2.5,8.7,2.5c4.5,0,8.4-1.6,11.6-4.7c3.4-3.4,5.1-7.4,5.1-12
						C263.1,143.1,262.8,141.3,262.1,139.6z"/>
				</g>
			</g>
			<g id="XMLID_2718_">
				<path id="XMLID_2719_" class="st0" d="M189.5,145.1c0,0.7,0,1.5-0.2,2.2c-0.2,1.2-0.5,2.3-1,3.5c-0.9,2.3-2.5,4.5-4.4,6.4
					c-3.3,3.1-7.1,4.7-11.6,4.7c-3.1,0-6-0.8-8.7-2.5c-2.7-1.6-4.8-3.8-6.2-6.5l-1.6-2.9l-1.3-2.4l-2.8-5l-4.6-8.2l-1-1.8h0
					l-2.6-4.7l-3-5.4l-5.1-9.1l-1.6-2.9l-6.8-12.1l0-0.1l-16.3-28.9l-7.1-12.7c-3.2,6.1-6.2,11.5-6.6,12.5l-1.5,2.6l-14,25
					l-25.2,45.2l-0.9,1.7l-5.3,9.4c-1.5,2.7-3.5,4.9-6.2,6.5c-2.7,1.6-5.6,2.5-8.7,2.5c-4.8,0-8.8-1.6-12.1-5.1
					c-2.6-2.7-4.1-5.7-4.5-9.2c-0.1-0.7-0.2-1.5-0.2-2.2c0-2.8,0.7-5.2,2-7.7l3.6-6.5l25.5-45.8l1.4-2.6l11-19.8l1.7-3.1l25-44.8
					c1.3-2.7,3.3-4.8,5.8-6.5c2.8-1.9,5.9-2.9,9.3-2.9c2,0,3.8,0.3,5.4,0.9c1.8,0.5,3.4,1.4,4.7,2.4c2.1,1.6,3.8,3.6,5,5.8
					l22.3,39.5l0.6,1.1l29.2,51.9l0.7,1.3l1.8,3.3l9.9,17.5l1.6,2.8l1.5,2.6l1.2,2.2C189.1,139.6,189.5,142.2,189.5,145.1z"/>
			</g>
			<path id="XMLID_2717_" class="st0" d="M360.4,112.3c0,6.4-0.9,12.1-2.4,17.1c-0.3,1.1-0.7,2.1-1,3.1h0
				c-7.6,25.6-39.8,29.4-41.7,29.4c-8.6,0-11.1-7.8-11.1-7.8s-8.3-18.5-8.3-19.3c0-0.9,0.4-2,1-3c0.4-0.7,0.9-1.4,1.6-2
				c1.4-1.4,3.5-2.5,5.9-2.5h7c5.9,0,10.3-2.9,12.6-6.7c1.3-2,2-4.4,2.1-6.7c0-0.2,0-0.4,0-0.6c0-6.2-5.2-14.4-14.8-14.4
				c-5.2,0-21.7,0-28.9,0c-0.6,0-1.2,0-1.7-0.1c-3.4-0.3-6.4-2.3-8.3-5.1c-0.2-0.2-0.3-0.5-0.5-0.8c-0.3-0.5-0.6-1.1-0.9-1.8
				c-0.5-0.9-1.1-1.8-1.6-2.9c-3.4-6.2-7.7-14.1-7.7-14.4c0-8.8,9.5-7.9,9.5-7.9h28.4c6,0,11.3-3.8,13.2-9.2
				c0.4-1.1,0.7-2.3,0.7-3.5v-0.3c0.2-4.2-1.7-7.3-4-9.5c-0.7-0.7-1.5-1.3-2.4-1.8c-2.9-2-6.5-2.9-10.1-2.9h-47.7
				c-4.8-0.1-9.1-2.9-11.4-7.1c-3.1-5.7-9.7-16.1-9.7-16.6c0-8.8,9.3-9.2,9.3-9.2l51.4-0.1c0.5,0,19.8,0,20.3,0.2
				c3.5,0.9,14.4,4.8,19.7,9.1c5,4.1,10.1,8.9,13.6,17.2c0.4,0.8,0.7,1.6,0.9,2.5c0.4,1.1,0.8,2.2,1.1,3.5
				c5.1,18.1-0.7,32.1-2.9,36.6c-0.3,0.7-0.3,1.4,0,2c0.1,0.2,0.3,0.4,0.5,0.6c0.4,0.4,0.8,0.7,1.3,1.3h0c0.7,0.7,1.6,1.5,2.5,2.5h0
				C351.8,86.9,360.4,97.9,360.4,112.3z"/>
			<path id="XMLID_2716_" class="st0" d="M426.4,22.2c0,1-0.1,2-0.3,2.9c-0.3,1.9-1,3.7-1.9,5.3c-2.8,5-8.2,8.4-14.3,8.4
				c-8.6,0-15.5-6.4-16.4-14.7c-0.1-0.6-0.1-1.3-0.1-1.8c0-0.9,0.1-1.7,0.2-2.6c1.2-7.9,8-13.9,16.3-13.9
				C419,5.7,426.4,13.1,426.4,22.2z"/>
		</g>
	</g>
	<g id="XMLID_2643_" class="st1">
		<path id="XMLID_2714_" class="st2" d="M141.7,55.5c-4.4,4.2-13.3,9.5-31.2,13.8l-7.1-12.7c-3.2,6.1-6.2,11.5-6.6,12.5
			c-0.8,0-1.6,0.1-2.4,0.1c-10.6,0-21.9-4.4-30.9-9.2l25-44.8c1.3-2.7,3.3-4.8,5.8-6.5c2.8-1.9,5.9-2.9,9.3-2.9c2,0,3.8,0.3,5.4,0.9
			c1.8,0.5,3.4,1.4,4.7,2.4c2.1,1.6,3.8,3.6,5,5.8l22.3,39.5L141.7,55.5z"/>
		<path id="XMLID_2713_" class="st2" d="M213.7,52.6c-23.4-22.9-46.6-15-57.2-10.5c0,0,0,0,0,0c-2.4-0.1-4.7-0.1-6.5-0.1
			c-0.6,0-1-0.4-1.2-0.9c-0.1-0.2-0.1-0.5,0.1-0.8c0.1-0.1,0.1-0.1,0-0.1l13.7-25.1c1.3-2.7,3.3-4.8,5.8-6.5c2.8-1.9,6-2.9,9.3-2.9
			c2,0,3.7,0.3,5.4,0.9c1.8,0.6,3.4,1.5,4.7,2.5c2.1,1.6,3.7,3.5,4.9,5.8L213.7,52.6z"/>
		<path id="XMLID_2712_" class="st2" d="M343.4,34.7c-7.8,10-20.3,18.1-30.7,22c0.4-1.1,0.7-2.3,0.7-3.5v-0.3c0.2-4.2-1.7-7.3-4-9.5
			c-0.7-0.7-1.5-1.3-2.4-1.8c-2.9-2-6.5-2.9-10.1-2.9h-47.7c-4.8-0.1-9.1-2.9-11.4-7.1c-3.1-5.7-9.7-16.1-9.7-16.6
			c0-8.8,9.3-9.2,9.3-9.2l51.4-0.1c0.5,0,19.8,0,20.3,0.2c3.5,0.9,14.4,4.8,19.7,9.1c5,4.1,10.1,8.9,13.6,17.2
			C342.8,33,343.1,33.8,343.4,34.7z"/>
		<path id="XMLID_2710_" class="st2" d="M514,46.4c-33.3,9.7-54.8-4-54.8-4V22.2c0-4,1.3-7.6,4-10.7c3.3-3.8,7.4-5.8,12.5-5.8h0.4
			c4.9,0,9,1.9,12.3,5.6c2.8,3.1,4.2,6.8,4.2,11.2v20h11.1C507.7,42.5,511.2,43.8,514,46.4z"/>
		<path id="XMLID_2709_" class="st2" d="M50.8,82.8c14.1,5,27.2,10.2,30.5,13.8l-25.2,45.2c-18.2,2-31.5,4-37.7,5.9
			c-0.1-0.7-0.2-1.5-0.2-2.2c0-2.8,0.7-5.2,2-7.7l3.6-6.5l25.5-45.8L50.8,82.8z"/>
		<path id="XMLID_2708_" class="st2" d="M89.3,102.1c8.6,4.4,21,7.5,31,8v0.6c0,0.9,0,1.8-0.2,2.6c-0.2,1.5-0.5,3-1.1,4.5
			c-1,2.2-2.5,4.2-4.4,5.8c-3.1,2.7-6.8,4-11,4c-3.3,0-6.2-0.8-8.9-2.5c-2.7-1.6-4.7-3.8-6-6.7c-1.2-2.2-1.8-4.8-1.8-7.6
			c0-2.5,0.5-4.8,1.4-6.9C88.6,103.4,88.9,102.7,89.3,102.1z"/>
		<path id="XMLID_2704_" class="st2" d="M183.3,129.4l1.6,2.8c-12.8,0.6-25.6,1.3-37.9,2l-1-1.8h0l-2.6-4.7l-3-5.4l-5.1-9.1
			l-1.6-2.9c6.9,0.8,21.6,2.1,39.9,1.6L183.3,129.4z"/>
		<path id="XMLID_2649_" class="st2" d="M250.4,118.3l6.4,11.5c-12.3,0.2-25,0.5-37.7,1l-2.4-4.2c0,0,0,0,0,0l-1.3-2.4l-0.1-0.1
			l-8.6-15.3c11-1.7,22.5-4.4,33.8-8.2l7.1,12.7l1.5,2.7L250.4,118.3z"/>
		<path id="XMLID_2648_" class="st2" d="M346.1,81.1c5.7,5.9,14.3,16.8,14.3,31.2c0,6.4-0.9,12.1-2.4,17.1c-0.3,1.1-0.7,2.1-1,3.1h0
			c-15.8-1.6-36-2.5-58.5-2.7c1.4-1.4,3.5-2.5,5.9-2.5h7c5.9,0,10.3-2.9,12.6-6.7c1.3-2,2-4.4,2.1-6.7c0-0.2,0-0.4,0-0.6
			c0-6.2-5.2-14.4-14.8-14.4c-5.2,0-21.7,0-28.9,0c-0.6,0-1.2,0-1.7-0.1c-3.4-0.3-6.4-2.3-8.3-5.1c-0.2-0.2-0.3-0.5-0.5-0.8
			c-0.3-0.5-0.6-1.1-0.9-1.8C292.8,85.9,319.1,82.4,346.1,81.1L346.1,81.1z"/>
		<path id="XMLID_2646_" class="st2" d="M393.2,80.8c11.5,0.5,22.7,1.3,33.4,2.7v61.6c0,3.6-1,6.7-2.9,9.4
			c-8.3-5.5-18.4-10.8-30.5-15.4V80.8z"/>
		<path id="XMLID_2645_" class="st2" d="M426.4,22.2c0,1-0.1,2-0.3,2.9c-10.8-5.4-23-6.1-32.5-5.5c1.2-7.9,8-13.9,16.3-13.9
			C419,5.7,426.4,13.1,426.4,22.2z"/>
		<path id="XMLID_2644_" class="st2" d="M509.9,141.3c-2.4,0.1-5-0.2-8.1-0.9c-10.6-2.6-9.5-18.5-9.5-23.2v-13.7
			c-3.4-1.9-7-3.7-10.8-5.4c-6.8-3-14.3-5.7-22.3-8.1v45.1c0,5,1.1,14.7,6.7,20.3c3.3,3.3,15.6,11.2,27.7,2.5
			c0.2-0.2,0.5-0.4,0.9-0.7L509.9,141.3z"/>
	</g>
</g>
</svg>
