<?xml version="1.0" encoding="utf-8"?>
<!-- Generator: Adobe Illustrator 19.0.0, SVG Export Plug-In . SVG Version: 6.00 Build 0)  -->
<svg version="1.1" id="Capa_1" xmlns="http://www.w3.org/2000/svg" xmlns:xlink="http://www.w3.org/1999/xlink" x="0px" y="0px"
	 viewBox="-49 141 512 512" style="enable-background:new -49 141 512 512;" xml:space="preserve">
<style type="text/css">
	.st0{fill:url(#SVGID_1_);}
	.st1{fill:url(#SVGID_2_);}
	.st2{fill:url(#SVGID_3_);}
	.st3{fill:url(#SVGID_4_);}
	.st4{fill:url(#SVGID_5_);}
	.st5{fill:url(#SVGID_6_);}
	.st6{fill:url(#SVGID_7_);}
	.st7{fill:url(#SVGID_8_);}
	.st8{fill:url(#SVGID_9_);}
	.st9{fill:url(#SVGID_10_);}
	.st10{fill:url(#SVGID_11_);}
	.st11{fill:url(#SVGID_12_);}
	.st12{fill:url(#SVGID_13_);}
</style>
<linearGradient id="SVGID_1_" gradientUnits="userSpaceOnUse" x1="301.4618" y1="149.6028" x2="301.4618" y2="642.2386">
	<stop  offset="0" style="stop-color:#FFFFFF"/>
	<stop  offset="1" style="stop-color:#C8D4E9"/>
</linearGradient>
<path class="st0" d="M382.7,256.2H220.2c-6.2,0-11.3-5.1-11.3-11.3c0-6.2,5.1-11.3,11.3-11.3h162.6c6.2,0,11.3,5.1,11.3,11.3
	C394,251.1,389,256.2,382.7,256.2z"/>
<linearGradient id="SVGID_2_" gradientUnits="userSpaceOnUse" x1="335.2583" y1="149.6028" x2="335.2583" y2="642.2386">
	<stop  offset="0" style="stop-color:#FFFFFF"/>
	<stop  offset="1" style="stop-color:#C8D4E9"/>
</linearGradient>
<path class="st1" d="M335.3,315.4c-3,0-5.9-1.2-8-3.3c-2.1-2.1-3.3-5-3.3-8s1.2-5.9,3.3-8c2.1-2.1,5-3.3,8-3.3s5.9,1.2,8,3.3
	c2.1,2.1,3.3,5,3.3,8s-1.2,5.9-3.3,8C341.1,314.2,338.2,315.4,335.3,315.4z"/>
<linearGradient id="SVGID_3_" gradientUnits="userSpaceOnUse" x1="253.9797" y1="149.6028" x2="253.9797" y2="642.2386">
	<stop  offset="0" style="stop-color:#FFFFFF"/>
	<stop  offset="1" style="stop-color:#C8D4E9"/>
</linearGradient>
<path class="st2" d="M287.8,310.4h-67.6c-6.2,0-11.3-5.1-11.3-11.3s5.1-11.3,11.3-11.3h67.6c6.2,0,11.3,5.1,11.3,11.3
	S294,310.4,287.8,310.4z"/>
<linearGradient id="SVGID_4_" gradientUnits="userSpaceOnUse" x1="301.4618" y1="149.6028" x2="301.4618" y2="642.2386">
	<stop  offset="0" style="stop-color:#FFFFFF"/>
	<stop  offset="1" style="stop-color:#C8D4E9"/>
</linearGradient>
<path class="st3" d="M382.7,378.1H220.2c-6.2,0-11.3-5.1-11.3-11.3c0-6.2,5.1-11.3,11.3-11.3h162.6c6.2,0,11.3,5.1,11.3,11.3
	C394,373.1,389,378.1,382.7,378.1z"/>
<linearGradient id="SVGID_5_" gradientUnits="userSpaceOnUse" x1="335.2583" y1="149.6028" x2="335.2583" y2="642.2386">
	<stop  offset="0" style="stop-color:#FFFFFF"/>
	<stop  offset="1" style="stop-color:#C8D4E9"/>
</linearGradient>
<path class="st4" d="M335.3,437.3c-3,0-5.9-1.2-8-3.3c-2.1-2.1-3.3-5-3.3-8s1.2-5.9,3.3-8c2.1-2.1,5-3.3,8-3.3s5.9,1.2,8,3.3
	c2.1,2.1,3.3,5,3.3,8s-1.2,5.9-3.3,8S338.2,437.3,335.3,437.3z"/>
<linearGradient id="SVGID_6_" gradientUnits="userSpaceOnUse" x1="253.9797" y1="149.6028" x2="253.9797" y2="642.2386">
	<stop  offset="0" style="stop-color:#FFFFFF"/>
	<stop  offset="1" style="stop-color:#C8D4E9"/>
</linearGradient>
<path class="st5" d="M287.8,432.3h-67.6c-6.2,0-11.3-5.1-11.3-11.3s5.1-11.3,11.3-11.3h67.6c6.2,0,11.3,5.1,11.3,11.3
	S294,432.3,287.8,432.3z"/>
<linearGradient id="SVGID_7_" gradientUnits="userSpaceOnUse" x1="301.4618" y1="149.6028" x2="301.4618" y2="642.2386">
	<stop  offset="0" style="stop-color:#FFFFFF"/>
	<stop  offset="1" style="stop-color:#C8D4E9"/>
</linearGradient>
<path class="st6" d="M382.7,500H220.2c-6.2,0-11.3-5.1-11.3-11.3c0-6.2,5.1-11.3,11.3-11.3h162.6c6.2,0,11.3,5.1,11.3,11.3
	C394,495,389,500,382.7,500z"/>
<linearGradient id="SVGID_8_" gradientUnits="userSpaceOnUse" x1="335.2583" y1="149.6028" x2="335.2583" y2="642.2386">
	<stop  offset="0" style="stop-color:#FFFFFF"/>
	<stop  offset="1" style="stop-color:#C8D4E9"/>
</linearGradient>
<path class="st7" d="M335.3,559.2c-3,0-5.9-1.2-8-3.3c-2.1-2.1-3.3-5-3.3-8s1.2-5.9,3.3-8c2.1-2.1,5-3.3,8-3.3s5.9,1.2,8,3.3
	c2.1,2.1,3.3,5,3.3,8s-1.2,5.9-3.3,8S338.2,559.2,335.3,559.2z"/>
<linearGradient id="SVGID_9_" gradientUnits="userSpaceOnUse" x1="253.9797" y1="149.6028" x2="253.9797" y2="642.2386">
	<stop  offset="0" style="stop-color:#FFFFFF"/>
	<stop  offset="1" style="stop-color:#C8D4E9"/>
</linearGradient>
<path class="st8" d="M287.8,559.2h-67.6c-6.2,0-11.3-5.1-11.3-11.3s5.1-11.3,11.3-11.3h67.6c6.2,0,11.3,5.1,11.3,11.3
	S294,559.2,287.8,559.2z"/>
<linearGradient id="SVGID_10_" gradientUnits="userSpaceOnUse" x1="220.1832" y1="149.6028" x2="220.1832" y2="642.2386">
	<stop  offset="0" style="stop-color:#FFFFFF"/>
	<stop  offset="1" style="stop-color:#C8D4E9"/>
</linearGradient>
<path class="st9" d="M404.5,165c9.3,0,18.1,3.7,24.8,10.3c6.6,6.6,10.3,15.4,10.3,24.8V598c0,19.3-15.7,35-35,35H35.9
	c-19.3,0-35-15.7-35-35V200.1c0-19.3,15.7-35,35-35h70.7c1.7,0.3,3.5,0.5,5.3,0.5c2.1,0,3.9-0.2,5.2-0.3c0.4,0,1-0.1,1.2-0.1h225.5
	c0.2,0,0.7,0.1,1,0.1c1.3,0.2,3.1,0.4,5.2,0.4c1.8,0,3.6-0.2,5.3-0.5H404.5 M404.5,145H353c-1,0.3-1.9,0.5-2.9,0.5
	c-2,0-4-0.5-6.1-0.5H118.2c-2.2,0-4.3,0.5-6.3,0.5c-1,0-2-0.1-3-0.5h-73c-30.3,0-55,24.7-55,55V598c0,30.3,24.7,55,55,55h368.5
	c30.3,0,55-24.7,55-55V200.1C459.5,169.7,434.8,145,404.5,145L404.5,145z"/>
<linearGradient id="SVGID_11_" gradientUnits="userSpaceOnUse" x1="100.8636" y1="149.6028" x2="100.8636" y2="642.2386">
	<stop  offset="0" style="stop-color:#FFFFFF"/>
	<stop  offset="1" style="stop-color:#C8D4E9"/>
</linearGradient>
<path class="st10" d="M132.4,230.9l-48.3,48.3l-14.9-14.9c-4.4-4.4-11.6-4.4-16,0c-4.4,4.4-4.4,11.6,0,16l22.9,22.9
	c2.2,2.2,5.1,3.3,8,3.3s5.8-1.1,8-3.3l56.3-56.3c4.4-4.4,4.4-11.6,0-16C144,226.5,136.8,226.5,132.4,230.9z"/>
<linearGradient id="SVGID_12_" gradientUnits="userSpaceOnUse" x1="93.753" y1="149.6028" x2="93.753" y2="642.2386">
	<stop  offset="0" style="stop-color:#FFFFFF"/>
	<stop  offset="1" style="stop-color:#C8D4E9"/>
</linearGradient>
<path class="st11" d="M120.8,477.4H66.7c-6.2,0-11.3,5.1-11.3,11.3v54.2c0,6.2,5.1,11.3,11.3,11.3h54.2c6.2,0,11.3-5.1,11.3-11.3
	v-54.2C132.1,482.5,127.1,477.4,120.8,477.4z M109.6,531.6H77.9V500h31.6V531.6z"/>
<linearGradient id="SVGID_13_" gradientUnits="userSpaceOnUse" x1="93.753" y1="149.6028" x2="93.753" y2="642.2386">
	<stop  offset="0" style="stop-color:#FFFFFF"/>
	<stop  offset="1" style="stop-color:#C8D4E9"/>
</linearGradient>
<path class="st12" d="M120.8,355.5H66.7c-6.2,0-11.3,5.1-11.3,11.3V421c0,6.2,5.1,11.3,11.3,11.3h54.2c6.2,0,11.3-5.1,11.3-11.3
	v-54.2C132.1,360.6,127.1,355.5,120.8,355.5z M109.6,409.7H77.9v-31.6h31.6V409.7z"/>
</svg>
