<?xml version="1.0" encoding="utf-8"?>
<!-- Generator: Adobe Illustrator 19.0.0, SVG Export Plug-In . SVG Version: 6.00 Build 0)  -->
<svg version="1.1" id="Layer_1" xmlns="http://www.w3.org/2000/svg" xmlns:xlink="http://www.w3.org/1999/xlink" x="0px" y="0px"
	 viewBox="-293 385 24 24" style="enable-background:new -293 385 24 24;" xml:space="preserve">
<style type="text/css">
	.st0{fill:#8F8F8F;}
</style>
<path class="st0" d="M-269.2,391.7C-269.2,391.6-269.2,391.6-269.2,391.7C-269.2,391.6-269.2,391.6-269.2,391.7c0-0.1,0-0.1,0-0.1
	c0,0,0,0,0,0c0,0,0,0,0,0c0,0,0,0,0,0c0,0,0,0,0,0c0,0,0,0,0,0c0,0,0,0,0,0c0,0,0,0,0,0c0,0,0,0,0,0c0,0,0,0,0,0c0,0,0,0,0,0
	c0,0,0,0,0,0c0,0,0,0,0,0c0,0,0,0,0,0c0,0,0,0,0,0c0,0,0,0,0,0c0,0,0,0,0,0c0,0,0,0,0,0c0,0,0,0,0,0c0,0,0,0,0,0c0,0,0,0,0,0
	c0,0,0,0,0,0c0,0,0,0,0,0l-10.6-3.8c-0.2-0.1-0.3-0.1-0.5,0l-10.4,4.2c-0.3,0.1-0.4,0.3-0.4,0.6c0,0.3,0.2,0.5,0.4,0.6l3.6,1.2
	l0.1,3.3c0,1,0.9,1.8,2.4,2.4c1.3,0.5,3,0.7,4.9,0.7c1.8,0,3.5-0.4,4.8-0.9c1.5-0.6,2.3-1.5,2.3-2.5l-0.1-3.3l2.6-1l-0.1,8.3
	c0,0.4,0.3,0.6,0.7,0.6c0.4,0,0.6-0.3,0.6-0.7L-269.2,391.7C-269.2,391.7-269.2,391.7-269.2,391.7z M-280.4,388.6l7,2.5l-6.9,0.1
	c-0.4,0-0.6,0.3-0.6,0.7c0,0.4,0.3,0.6,0.7,0.6l6.9-0.1l-6.8,2.7l-8.7-3L-280.4,388.6z M-274.3,397c0,0.4-0.6,0.9-1.5,1.3
	c-1.1,0.5-2.7,0.8-4.4,0.8c-1.7,0-3.2-0.2-4.4-0.6c-0.9-0.3-1.5-0.8-1.5-1.2l-0.1-2.8l5.7,2c0.1,0,0.2,0,0.2,0c0.1,0,0.2,0,0.2,0
	l5.6-2.2L-274.3,397z"/>
<path class="st0" d="M-275.7,400.8C-275.7,400.8-275.7,400.8-275.7,400.8C-275.7,400.8-275.7,400.8-275.7,400.8
	C-275.7,400.8-275.7,400.8-275.7,400.8c-0.5,0-6.8,1.9-14.7-0.8c-0.2-0.1-0.9-0.1-1.4,0.8c-0.3,0.4-0.4,1-0.5,1.7
	c-0.1,1.1,0.4,2.6,1.5,2.7c0,0,0,0,0.1,0c0,0,0,0,0,0c0.7-0.1,6.7-1.8,14.3,0.7c0.1,0.1,0.3,0.1,0.4,0.1c0,0,0,0,0,0c0,0,0,0,0,0
	c1,0,1.6-1.2,1.7-2.5C-274.2,402.1-274.7,400.9-275.7,400.8z M-290.6,401.1c1.9,0.6,3.9,1.1,5.9,1.3c-0.1,0.4-0.1,0.8-0.1,1.2
	c-2,0-4,0.2-6,0.6c-0.2-0.1-0.5-0.7-0.4-1.6C-291.2,401.8-290.9,401.2-290.6,401.1z M-283.7,403.5
	C-283.7,403.5-283.7,403.5-283.7,403.5c-0.2-0.3-0.1-0.8,0-1.1c0,0,0,0,0,0c2.2,0.1,4.3,0,6.4-0.3c-0.1,0.4-0.2,0.8-0.2,1.2
	c0,0.4,0,0.8,0.1,1.2C-279.4,403.9-281.5,403.6-283.7,403.5z M-275.9,404.9C-275.9,404.9-276,404.9-275.9,404.9
	c-0.1-0.1-0.2-0.2-0.3-0.3c-0.1-0.3-0.2-0.8-0.2-1.2c0-0.7,0.3-1.3,0.5-1.5c0,0,0.1,0,0.1,0c0.2,0.1,0.5,0.7,0.4,1.6
	C-275.4,404.2-275.7,404.8-275.9,404.9z"/>
</svg>
